<?xml version="1.0" encoding="UTF-8" standalone="no"?>
<!-- Created with Inkscape (http://www.inkscape.org/) -->

<svg
   xmlns:dc="http://purl.org/dc/elements/1.1/"
   xmlns:cc="http://creativecommons.org/ns#"
   xmlns:rdf="http://www.w3.org/1999/02/22-rdf-syntax-ns#"
   xmlns:svg="http://www.w3.org/2000/svg"
   xmlns="http://www.w3.org/2000/svg"
   xmlns:sodipodi="http://sodipodi.sourceforge.net/DTD/sodipodi-0.dtd"
   xmlns:inkscape="http://www.inkscape.org/namespaces/inkscape"
   width="210mm"
   height="297mm"
   viewBox="0 0 210 297"
   version="1.1"
   id="svg6151"
   inkscape:version="0.92.2 (unknown)"
   sodipodi:docname="capacitivemusicplayer.svg">
  <sodipodi:namedview
     id="base"
     pagecolor="#ffffff"
     bordercolor="#666666"
     borderopacity="1.0"
     inkscape:pageopacity="0.0"
     inkscape:pageshadow="2"
     inkscape:zoom="2.8"
     inkscape:cx="205.82282"
     inkscape:cy="752.52296"
     inkscape:document-units="mm"
     inkscape:current-layer="layer3"
     showgrid="false"
     inkscape:window-width="1364"
     inkscape:window-height="743"
     inkscape:window-x="0"
     inkscape:window-y="2"
     inkscape:window-maximized="1" />
  <defs
     id="defs6145" />
  <metadata
     id="metadata6148">
    <rdf:RDF>
      <cc:Work
         rdf:about="">
        <dc:format>image/svg+xml</dc:format>
        <dc:type
           rdf:resource="http://purl.org/dc/dcmitype/StillImage" />
        <dc:title />
      </cc:Work>
    </rdf:RDF>
  </metadata>
  <g
     id="layer1"
     inkscape:groupmode="layer"
     inkscape:label="Calque 1" />
  <g
     inkscape:label="SilkS"
     id="layer3"
     inkscape:groupmode="layer">
    <g
       id="text6698"
       style="font-style:normal;font-weight:normal;font-size:10.58333302px;line-height:1.25;font-family:sans-serif;letter-spacing:0px;word-spacing:0px;fill:#000000;fill-opacity:1;stroke:#000000;stroke-width:0.2547755;stroke-opacity:1;stroke-miterlimit:4;stroke-dasharray:none"
       aria-label="capacitive music player"
       transform="matrix(0.39250242,0,0,0.39250242,5.2377316,52.11502)">
      <path
         style="font-style:normal;font-variant:normal;font-weight:normal;font-stretch:normal;font-size:4.93888903px;font-family:'URW Gothic L';-inkscape-font-specification:'URW Gothic L';letter-spacing:0.86518747px;word-spacing:0px;stroke-width:0.2547755;fill:#000000;fill-opacity:1;stroke:#000000;stroke-opacity:1;stroke-miterlimit:4;stroke-dasharray:none"
         d="m 234.52617,82.94111 h 1.09662 v -4.727312 l 0.14425,-1.005851 0.43184,-0.750221 0.71804,-0.49459 1.00284,-0.238959 v -1.081796 l -0.79237,0.110673 -0.63398,0.252389 -0.49505,0.407993 -0.37557,0.577486 v -1.155894 h -1.09662 v 8.106082"
         id="path2666" />
      <path
         style="font-style:normal;font-variant:normal;font-weight:normal;font-stretch:normal;font-size:4.93888903px;font-family:'URW Gothic L';-inkscape-font-specification:'URW Gothic L';letter-spacing:0.86518747px;word-spacing:0px;stroke-width:0.37795276;fill:#000000;fill-opacity:1;stroke:#000000;stroke-opacity:1;stroke-miterlimit:4;stroke-dasharray:none"
         d="M 355.3418 307.69922 L 354.07031 307.82422 L 352.89258 308.18359 L 351.83008 308.75391 L 350.91016 309.51172 L 350.15234 310.43164 L 349.58203 311.49414 L 349.22266 312.67188 L 349.09961 313.94336 L 349.22656 315.23828 L 349.58984 316.43945 L 350.16992 317.51953 L 350.93945 318.45508 L 351.87695 319.22656 L 352.95703 319.80469 L 354.15625 320.16992 L 355.45117 320.29688 L 357.66211 319.88281 L 359.54102 318.69141 L 360.61914 317.43945 L 361.29883 316.05469 L 359.60742 316.05469 L 358.91992 317.17969 L 357.93555 318.04688 L 356.73828 318.60547 L 355.4082 318.80273 L 353.65625 318.46875 L 352.19336 317.56055 L 351.16602 316.20508 L 350.72461 314.53711 L 361.60742 314.53711 L 361.42383 312.45703 L 360.79492 310.82227 L 359.80859 309.52734 L 358.52148 308.54297 L 357.00781 307.91992 L 355.3418 307.69922 z M 355.32031 309.19531 L 356.95508 309.46289 L 358.31836 310.23047 L 359.34766 311.44922 L 359.98047 313.06445 L 350.76953 313.06445 L 351.34375 311.48633 L 352.35156 310.26367 L 353.70703 309.47461 L 355.32031 309.19531 z "
         transform="matrix(0.67409351,0,0,0.67409351,-13.344457,-132.7763)"
         id="path2664" />
      <path
         style="font-style:normal;font-variant:normal;font-weight:normal;font-stretch:normal;font-size:4.93888903px;font-family:'URW Gothic L';-inkscape-font-specification:'URW Gothic L';letter-spacing:0.86518747px;word-spacing:0px;stroke-width:0.2547755;fill:#000000;fill-opacity:1;stroke:#000000;stroke-opacity:1;stroke-miterlimit:4;stroke-dasharray:none"
         d="m 212.78791,85.786395 h 1.17071 l 4.68286,-10.951362 h -1.17072 l -2.74154,6.461157 -2.56372,-6.461157 h -1.20035 l 3.14166,7.839337 -1.3189,3.112025"
         id="path2660" />
      <path
         style="font-style:normal;font-variant:normal;font-weight:normal;font-stretch:normal;font-size:4.93888903px;font-family:'URW Gothic L';-inkscape-font-specification:'URW Gothic L';letter-spacing:0.86518747px;word-spacing:0px;stroke-width:0.37795276;fill:#000000;fill-opacity:1;stroke:#000000;stroke-opacity:1;stroke-miterlimit:4;stroke-dasharray:none"
         d="M 320.93555 307.69922 L 319.62891 307.82422 L 318.42578 308.18164 L 317.34766 308.75195 L 316.41797 309.51367 L 315.65625 310.44336 L 315.08594 311.52148 L 314.72852 312.72461 L 314.60352 314.03125 L 314.72852 315.33008 L 315.0918 316.52148 L 315.66797 317.58789 L 316.43945 318.50781 L 317.38477 319.25977 L 318.48047 319.82227 L 319.70703 320.17383 L 321.04492 320.29688 L 322.45312 320.16406 L 323.65234 319.74219 L 324.70898 318.99805 L 325.68359 317.90039 L 325.68359 320.01172 L 327.31055 320.01172 L 327.31055 307.98633 L 325.68359 307.98633 L 325.68359 310.11914 L 324.73438 309.03516 L 323.64648 308.2832 L 322.39062 307.84375 L 320.93555 307.69922 z M 320.97852 309.19531 L 322.82812 309.56055 L 324.32031 310.56445 L 325.32031 312.07031 L 325.68359 313.94336 L 325.32617 315.85352 L 324.34766 317.39453 L 322.88281 318.42578 L 321.06641 318.80273 L 319.16406 318.42578 L 317.63672 317.39258 L 316.62109 315.84375 L 316.25195 313.92188 L 316.62305 312.08008 L 317.63477 310.57812 L 319.13672 309.56641 L 320.97852 309.19531 z "
         transform="matrix(0.67409351,0,0,0.67409351,-13.344457,-132.7763)"
         id="path2658" />
      <path
         style="font-style:normal;font-variant:normal;font-weight:normal;font-stretch:normal;font-size:4.93888903px;font-family:'URW Gothic L';-inkscape-font-specification:'URW Gothic L';letter-spacing:0.86518747px;word-spacing:0px;stroke-width:0.2547755;fill:#000000;fill-opacity:1;stroke:#000000;stroke-opacity:1;stroke-miterlimit:4;stroke-dasharray:none"
         d="m 193.49089,82.941112 h 1.09662 V 71.989748 H 193.4908 V 82.94111"
         id="path2654" />
      <path
         style="font-style:normal;font-variant:normal;font-weight:normal;font-stretch:normal;font-size:4.93888903px;font-family:'URW Gothic L';-inkscape-font-specification:'URW Gothic L';letter-spacing:0.86518747px;word-spacing:0px;stroke-width:0.37795276;fill:#000000;fill-opacity:1;stroke:#000000;stroke-opacity:1;stroke-miterlimit:4;stroke-dasharray:none"
         d="M 294.35156 307.69922 L 292.89258 307.85352 L 291.60156 308.30664 L 290.50391 309.04492 L 289.625 310.05273 L 289.625 307.98633 L 287.99805 307.98633 L 287.99805 324.23242 L 289.625 324.23242 L 289.625 317.94531 L 290.52148 318.96094 L 291.61133 319.69727 L 292.88086 320.14648 L 294.30859 320.29688 L 295.61133 320.17188 L 296.81641 319.8125 L 297.90039 319.24219 L 298.83984 318.48242 L 299.61133 317.56055 L 300.19141 316.49414 L 300.55664 315.31055 L 300.68359 314.03125 L 300.55859 312.73047 L 300.19727 311.53125 L 299.625 310.45312 L 298.86133 309.52148 L 297.92969 308.75781 L 296.85352 308.18555 L 295.65234 307.82617 L 294.35156 307.69922 z M 294.28516 309.19531 L 296.16797 309.56055 L 297.67383 310.57422 L 298.67188 312.10742 L 299.03516 314.03125 L 298.67383 315.91797 L 297.67773 317.43164 L 296.17773 318.4375 L 294.30859 318.80273 L 292.40039 318.43164 L 290.88086 317.41211 L 289.87695 315.87109 L 289.51562 313.94336 L 289.88672 312.08008 L 290.90234 310.57227 L 292.41797 309.5625 L 294.28516 309.19531 z "
         transform="matrix(0.67409351,0,0,0.67409351,-13.344457,-132.7763)"
         id="path2652" />
      <path
         style="font-style:normal;font-variant:normal;font-weight:normal;font-stretch:normal;font-size:4.93888903px;font-family:'URW Gothic L';-inkscape-font-specification:'URW Gothic L';letter-spacing:0.86518747px;word-spacing:0px;stroke-width:0.2547755;fill:#000000;fill-opacity:1;stroke:#000000;stroke-opacity:1;stroke-miterlimit:4;stroke-dasharray:none"
         d="m 168.74276,80.555224 -0.62889,0.720582 -0.64556,0.487181 -0.70113,0.276007 -0.7956,0.08706 -1.27839,-0.252621 -1.03526,-0.690249 -0.69349,-1.026459 -0.25308,-1.261249 0.24822,-1.27607 0.68168,-1.030163 1.02067,-0.688396 1.26519,-0.250768 0.85882,0.106976 0.76573,0.31537 0.65737,0.51543 0.53372,0.707152 h 1.22999 l -0.64857,-1.102176 -0.92782,-0.83543 -1.14732,-0.529785 -1.3071,-0.185239 -0.88434,0.08483 -0.8194,0.243735 -0.73812,0.386484 -0.64053,0.513085 -0.5266,0.623533 -0.39636,0.717832 -0.24978,0.79598 -0.0869,0.857977 0.0876,0.876907 0.25228,0.809005 0.40092,0.725994 0.53361,0.627875 0.65031,0.514647 0.75103,0.386312 0.83577,0.242866 0.90455,0.08431 1.44302,-0.237107 1.25407,-0.681681 0.66501,-0.668715 0.60944,-0.991032 h -1.24481"
         id="path2648" />
      <path
         style="font-style:normal;font-variant:normal;font-weight:normal;font-stretch:normal;font-size:4.93888903px;font-family:'URW Gothic L';-inkscape-font-specification:'URW Gothic L';letter-spacing:0.86518747px;word-spacing:0px;stroke-width:0.2547755;fill:#000000;fill-opacity:1;stroke:#000000;stroke-opacity:1;stroke-miterlimit:4;stroke-dasharray:none"
         d="m 156.36281,82.941099 h 1.09662 v -8.106082 h -1.09662 v 8.106082"
         id="path2646" />
      <path
         style="font-style:normal;font-variant:normal;font-weight:normal;font-stretch:normal;font-size:4.93888903px;font-family:'URW Gothic L';-inkscape-font-specification:'URW Gothic L';letter-spacing:0.86518747px;word-spacing:0px;stroke-width:0.2547755;fill:#000000;fill-opacity:1;stroke:#000000;stroke-opacity:1;stroke-miterlimit:4;stroke-dasharray:none"
         d="m 156.36281,73.856951 h 1.09662 v -1.867214 h -1.09662 v 1.867214"
         id="path2644" />
      <path
         style="font-style:normal;font-variant:normal;font-weight:normal;font-stretch:normal;font-size:4.93888903px;font-family:'URW Gothic L';-inkscape-font-specification:'URW Gothic L';letter-spacing:0.86518747px;word-spacing:0px;stroke-width:0.2547755;fill:#000000;fill-opacity:1;stroke:#000000;stroke-opacity:1;stroke-miterlimit:4;stroke-dasharray:none"
         d="m 147.34016,80.555214 0.19491,1.065591 0.53118,0.812739 0.82018,0.518207 1.06191,0.181998 0.99936,-0.185239 0.78264,-0.518671 0.51033,-0.79653 0.18246,-1.018817 -0.0866,-0.686777 -0.26165,-0.572854 -0.43948,-0.461709 -0.62009,-0.353345 -1.52637,-0.652043 -0.55942,-0.45013 -0.18154,-0.616849 0.0912,-0.458005 0.24961,-0.371868 0.37187,-0.24961 0.45801,-0.09123 0.47699,0.07687 0.36029,0.226918 0.23803,0.371405 0.11022,0.510335 h 1.11144 l -0.19197,-0.892854 -0.47676,-0.692795 -0.71293,-0.448279 -0.90049,-0.159306 -0.91532,0.171115 -0.72776,0.47537 -0.48047,0.722664 -0.17343,0.912999 0.15375,0.803941 0.45384,0.64834 0.44828,0.331577 1.04846,0.453838 1.05216,0.503851 0.38159,0.442718 0.13708,0.609442 -0.10258,0.563823 -0.28457,0.445733 -0.43184,0.292911 -0.54437,0.105355 -0.61152,-0.105818 -0.46843,-0.307267 -0.31005,-0.493432 -0.13638,-0.664316 h -1.0818"
         id="path2642" />
      <path
         style="font-style:normal;font-variant:normal;font-weight:normal;font-stretch:normal;font-size:4.93888903px;font-family:'URW Gothic L';-inkscape-font-specification:'URW Gothic L';letter-spacing:0.86518747px;word-spacing:0px;stroke-width:0.2547755;fill:#000000;fill-opacity:1;stroke:#000000;stroke-opacity:1;stroke-miterlimit:4;stroke-dasharray:none"
         d="m 143.55235,74.835013 h -1.09662 v 4.164186 l -0.1167,1.242957 -0.37233,0.876183 -0.87063,0.742811 -1.1596,0.264893 -1.22258,-0.266746 -0.47375,-0.320928 -0.34871,-0.43485 -0.28712,-0.792825 -0.0982,-1.104028 v -4.371653 h -1.09662 v 4.371653 l 0.15745,1.546751 0.47978,1.091062 0.52307,0.557801 0.64949,0.403591 0.76342,0.245211 0.86484,0.08266 0.86182,-0.08521 0.70901,-0.263041 0.57563,-0.451984 0.46171,-0.652043 v 1.259628 h 1.09662 V 74.83501"
         id="path2640" />
      <path
         style="font-style:normal;font-variant:normal;font-weight:normal;font-stretch:normal;font-size:4.93888903px;font-family:'URW Gothic L';-inkscape-font-specification:'URW Gothic L';letter-spacing:0.86518747px;word-spacing:0px;stroke-width:0.2547755;fill:#000000;fill-opacity:1;stroke:#000000;stroke-opacity:1;stroke-miterlimit:4;stroke-dasharray:none"
         d="m 119.92053,82.941092 h 1.09661 V 78.21378 l 0.14866,-1.082031 0.42929,-0.80556 0.68492,-0.502694 0.91555,-0.17343 0.94472,0.192648 0.74467,0.548308 0.3853,0.750221 0.11855,1.072538 v 4.727312 h 1.09662 v -4.697673 l 0.0926,-0.987329 0.29267,-0.687238 0.7743,-0.68909 1.06328,-0.244517 0.97991,0.201912 0.72429,0.568684 0.33344,0.768745 0.11114,1.068833 v 4.697673 h 1.09662 v -4.816229 l -0.15376,-1.3541 -0.49829,-0.987326 -0.48555,-0.4932 -0.5981,-0.362606 -0.68978,-0.223677 -0.76065,-0.07641 -0.87548,0.09331 -0.74906,0.286427 -0.6407,0.489264 -0.55039,0.701826 -0.51242,-0.699511 -0.59717,-0.484169 -0.70553,-0.281332 -0.83752,-0.091 -0.70044,0.06136 -0.59068,0.196122 -0.51566,0.348944 -0.47537,0.519828 v -0.933607 h -1.09661 v 8.106082"
         id="path2638" />
      <path
         style="font-style:normal;font-variant:normal;font-weight:normal;font-stretch:normal;font-size:4.93888903px;font-family:'URW Gothic L';-inkscape-font-specification:'URW Gothic L';letter-spacing:0.86518747px;word-spacing:0px;stroke-width:0.37795276;fill:#000000;fill-opacity:1;stroke:#000000;stroke-opacity:1;stroke-miterlimit:4;stroke-dasharray:none"
         d="M 175.37891 307.69922 L 174.10742 307.82422 L 172.92969 308.18359 L 171.86719 308.75391 L 170.94727 309.51172 L 170.18945 310.43164 L 169.61914 311.49414 L 169.26172 312.67188 L 169.13672 313.94336 L 169.26367 315.23828 L 169.62891 316.43945 L 170.20703 317.51953 L 170.97656 318.45508 L 171.91406 319.22656 L 172.99414 319.80469 L 174.19336 320.16992 L 175.49023 320.29688 L 177.69922 319.88281 L 179.57812 318.69141 L 180.65625 317.43945 L 181.33789 316.05469 L 179.64453 316.05469 L 178.95703 317.17969 L 177.97266 318.04688 L 176.77539 318.60352 L 175.44531 318.80273 L 173.69336 318.46875 L 172.23047 317.56055 L 171.20312 316.20508 L 170.76367 314.53711 L 181.64453 314.53711 L 181.46094 312.45703 L 180.83203 310.82227 L 179.8457 309.52734 L 178.55859 308.54297 L 177.04492 307.91797 L 175.37891 307.69922 z M 175.35742 309.19531 L 176.99219 309.46289 L 178.35547 310.23047 L 179.38672 311.44922 L 180.01758 313.06445 L 170.80664 313.06445 L 171.38281 311.48633 L 172.39062 310.26367 L 173.74414 309.47461 L 175.35742 309.19531 z "
         transform="matrix(0.67409351,0,0,0.67409351,-13.344457,-132.7763)"
         id="path2636" />
      <path
         style="font-style:normal;font-variant:normal;font-weight:normal;font-stretch:normal;font-size:4.93888903px;font-family:'URW Gothic L';-inkscape-font-specification:'URW Gothic L';letter-spacing:0.86518747px;word-spacing:0px;stroke-width:0.2547755;fill:#000000;fill-opacity:1;stroke:#000000;stroke-opacity:1;stroke-miterlimit:4;stroke-dasharray:none"
         d="m 92.757652,82.941093 h 1.155897 l 3.408406,-8.106082 h -1.111438 l -2.904555,6.816815 -2.84528,-6.816815 h -1.111436 l 3.408406,8.106082"
         id="path2632" />
      <path
         style="font-style:normal;font-variant:normal;font-weight:normal;font-stretch:normal;font-size:4.93888903px;font-family:'URW Gothic L';-inkscape-font-specification:'URW Gothic L';letter-spacing:0.86518747px;word-spacing:0px;stroke-width:0.2547755;fill:#000000;fill-opacity:1;stroke:#000000;stroke-opacity:1;stroke-miterlimit:4;stroke-dasharray:none"
         d="m 84.616042,82.941093 h 1.096619 v -8.106082 h -1.096619 v 8.106082"
         id="path2630" />
      <path
         style="font-style:normal;font-variant:normal;font-weight:normal;font-stretch:normal;font-size:4.93888903px;font-family:'URW Gothic L';-inkscape-font-specification:'URW Gothic L';letter-spacing:0.86518747px;word-spacing:0px;stroke-width:0.2547755;fill:#000000;fill-opacity:1;stroke:#000000;stroke-opacity:1;stroke-miterlimit:4;stroke-dasharray:none"
         d="m 84.616042,73.856945 h 1.096619 v -1.867214 h -1.096619 v 1.867214"
         id="path2628" />
      <path
         style="font-style:normal;font-variant:normal;font-weight:normal;font-stretch:normal;font-size:4.93888903px;font-family:'URW Gothic L';-inkscape-font-specification:'URW Gothic L';letter-spacing:0.86518747px;word-spacing:0px;stroke-width:0.2547755;fill:#000000;fill-opacity:1;stroke:#000000;stroke-opacity:1;stroke-miterlimit:4;stroke-dasharray:none"
         d="m 77.976725,82.941093 h 1.096619 V 75.827896 H 80.8961 v -0.992885 h -1.822756 v -2.84528 h -1.096619 v 2.84528 h -1.748662 v 0.992885 h 1.748662 v 7.113197"
         id="path2626" />
      <path
         style="font-style:normal;font-variant:normal;font-weight:normal;font-stretch:normal;font-size:4.93888903px;font-family:'URW Gothic L';-inkscape-font-specification:'URW Gothic L';letter-spacing:0.86518747px;word-spacing:0px;stroke-width:0.2547755;fill:#000000;fill-opacity:1;stroke:#000000;stroke-opacity:1;stroke-miterlimit:4;stroke-dasharray:none"
         d="m 71.43559,82.941093 h 1.096619 V 74.835028 H 71.43565 v 8.106082"
         id="path2624" />
      <path
         style="font-style:normal;font-variant:normal;font-weight:normal;font-stretch:normal;font-size:4.93888903px;font-family:'URW Gothic L';-inkscape-font-specification:'URW Gothic L';letter-spacing:0.86518747px;word-spacing:0px;stroke-width:0.2547755;fill:#000000;fill-opacity:1;stroke:#000000;stroke-opacity:1;stroke-miterlimit:4;stroke-dasharray:none"
         d="m 71.43565,73.856962 h 1.096619 V 71.989748 H 71.43565 v 1.867214"
         id="path2622" />
      <path
         style="font-style:normal;font-variant:normal;font-weight:normal;font-stretch:normal;font-size:4.93888903px;font-family:'URW Gothic L';-inkscape-font-specification:'URW Gothic L';letter-spacing:0.86518747px;word-spacing:0px;stroke-width:0.2547755;fill:#000000;fill-opacity:1;stroke:#000000;stroke-opacity:1;stroke-miterlimit:4;stroke-dasharray:none"
         d="m 66.090922,80.555225 -0.628889,0.720582 -0.64556,0.487181 -0.701131,0.276007 -0.795603,0.08706 -1.278384,-0.252621 -1.035258,-0.690249 -0.693491,-1.026459 -0.253084,-1.261249 0.248221,-1.27607 0.681682,-1.030163 1.02067,-0.688396 1.265186,-0.250768 0.858817,0.106976 0.765734,0.31537 0.657369,0.51543 0.533721,0.707152 h 1.229991 l -0.64857,-1.102176 -0.927819,-0.83543 -1.147328,-0.529785 -1.307096,-0.185239 -0.884345,0.08483 -0.819395,0.243735 -0.738122,0.386484 -0.640523,0.513085 -0.526601,0.623533 -0.396354,0.717832 -0.249784,0.79598 -0.08689,0.857977 0.08764,0.876907 0.252273,0.809005 0.400928,0.725994 0.533605,0.627875 0.650307,0.514647 0.75103,0.386312 0.835778,0.242866 0.904549,0.08431 1.443014,-0.237107 1.254071,-0.681681 0.66501,-0.668715 0.60944,-0.991032 h -1.244809"
         id="path2620" />
      <path
         style="font-style:normal;font-variant:normal;font-weight:normal;font-stretch:normal;font-size:4.93888903px;font-family:'URW Gothic L';-inkscape-font-specification:'URW Gothic L';letter-spacing:0.86518747px;word-spacing:0px;stroke-width:0.37795276;fill:#000000;fill-opacity:1;stroke:#000000;stroke-opacity:1;stroke-miterlimit:4;stroke-dasharray:none"
         d="M 94.697266 307.69922 L 93.388672 307.82422 L 92.185547 308.18164 L 91.109375 308.75195 L 90.177734 309.51367 L 89.417969 310.44336 L 88.847656 311.52148 L 88.488281 312.72461 L 88.365234 314.03125 L 88.490234 315.33008 L 88.851562 316.52148 L 89.429688 317.58789 L 90.201172 318.50781 L 91.144531 319.25977 L 92.242188 319.82227 L 93.46875 320.17383 L 94.806641 320.29688 L 96.214844 320.16406 L 97.414062 319.74219 L 98.46875 318.99805 L 99.445312 317.90039 L 99.445312 320.01172 L 101.07227 320.01172 L 101.07227 307.98633 L 99.445312 307.98633 L 99.445312 310.11914 L 98.496094 309.03516 L 97.408203 308.2832 L 96.152344 307.84375 L 94.697266 307.69922 z M 94.740234 309.19531 L 96.587891 309.56055 L 98.082031 310.56445 L 99.080078 312.07031 L 99.445312 313.94336 L 99.087891 315.85352 L 98.109375 317.39453 L 96.644531 318.42578 L 94.828125 318.80273 L 92.925781 318.42578 L 91.398438 317.39258 L 90.382812 315.84375 L 90.013672 313.92188 L 90.384766 312.08008 L 91.396484 310.57812 L 92.898438 309.56641 L 94.740234 309.19531 z "
         transform="matrix(0.67409351,0,0,0.67409351,-13.344457,-132.7763)"
         id="path2618" />
      <path
         style="font-style:normal;font-variant:normal;font-weight:normal;font-stretch:normal;font-size:4.93888903px;font-family:'URW Gothic L';-inkscape-font-specification:'URW Gothic L';letter-spacing:0.86518747px;word-spacing:0px;stroke-width:0.37795276;fill:#000000;fill-opacity:1;stroke:#000000;stroke-opacity:1;stroke-miterlimit:4;stroke-dasharray:none"
         d="M 76.34375 307.69922 L 74.884766 307.85352 L 73.59375 308.30664 L 72.494141 309.04492 L 71.617188 310.05273 L 71.617188 307.98633 L 69.990234 307.98633 L 69.990234 324.23242 L 71.617188 324.23242 L 71.617188 317.94531 L 72.513672 318.96094 L 73.603516 319.69727 L 74.873047 320.14648 L 76.300781 320.29688 L 77.603516 320.17188 L 78.808594 319.8125 L 79.892578 319.24219 L 80.832031 318.48242 L 81.603516 317.56055 L 82.183594 316.49414 L 82.548828 315.31055 L 82.675781 314.03125 L 82.550781 312.73047 L 82.189453 311.53125 L 81.617188 310.45312 L 80.853516 309.52148 L 79.921875 308.75781 L 78.845703 308.18555 L 77.644531 307.82617 L 76.34375 307.69922 z M 76.277344 309.19531 L 78.160156 309.56055 L 79.666016 310.57422 L 80.664062 312.10742 L 81.025391 314.03125 L 80.664062 315.91797 L 79.667969 317.43164 L 78.169922 318.4375 L 76.300781 318.80273 L 74.392578 318.43164 L 72.873047 317.41211 L 71.869141 315.87109 L 71.507812 313.94336 L 71.878906 312.08008 L 72.894531 310.57227 L 74.410156 309.5625 L 76.277344 309.19531 z "
         transform="matrix(0.67409351,0,0,0.67409351,-13.344457,-132.7763)"
         id="path2614" />
      <path
         style="font-style:normal;font-variant:normal;font-weight:normal;font-stretch:normal;font-size:4.93888903px;font-family:'URW Gothic L';-inkscape-font-specification:'URW Gothic L';letter-spacing:0.86518747px;word-spacing:0px;stroke-width:0.37795276;fill:#000000;fill-opacity:1;stroke:#000000;stroke-opacity:1;stroke-miterlimit:4;stroke-dasharray:none"
         d="M 56.980469 307.69922 L 55.673828 307.82422 L 54.470703 308.18164 L 53.392578 308.75195 L 52.462891 309.51367 L 51.703125 310.44336 L 51.132812 311.52148 L 50.773438 312.72461 L 50.650391 314.03125 L 50.775391 315.33008 L 51.136719 316.52148 L 51.714844 317.58789 L 52.484375 318.50781 L 53.429688 319.25977 L 54.527344 319.82227 L 55.753906 320.17383 L 57.091797 320.29688 L 58.498047 320.16406 L 59.699219 319.74219 L 60.753906 318.99805 L 61.730469 317.90039 L 61.730469 320.01172 L 63.355469 320.01172 L 63.355469 307.98633 L 61.730469 307.98633 L 61.730469 310.11914 L 60.78125 309.03516 L 59.693359 308.2832 L 58.4375 307.84375 L 56.980469 307.69922 z M 57.025391 309.19531 L 58.873047 309.56055 L 60.367188 310.56445 L 61.365234 312.07031 L 61.730469 313.94336 L 61.373047 315.85352 L 60.394531 317.39453 L 58.927734 318.42578 L 57.113281 318.80273 L 55.210938 318.42578 L 53.683594 317.39258 L 52.667969 315.84375 L 52.298828 313.92188 L 52.669922 312.08008 L 53.681641 310.57812 L 55.183594 309.56641 L 57.025391 309.19531 z "
         transform="matrix(0.67409351,0,0,0.67409351,-13.344457,-132.7763)"
         id="path2610" />
      <path
         style="font-style:normal;font-variant:normal;font-weight:normal;font-stretch:normal;font-size:4.93888903px;font-family:'URW Gothic L';-inkscape-font-specification:'URW Gothic L';letter-spacing:0.86518747px;word-spacing:0px;stroke-width:0.2547755;fill:#000000;fill-opacity:1;stroke:#000000;stroke-opacity:1;stroke-miterlimit:4;stroke-dasharray:none"
         d="m 15.764648,80.555222 -0.628889,0.720582 -0.645559,0.487181 -0.701131,0.276007 -0.795603,0.08706 -1.278385,-0.252621 -1.035258,-0.690249 -0.6934911,-1.026459 -0.2530835,-1.261249 0.248221,-1.27607 0.6816816,-1.030163 1.02067,-0.688396 1.265186,-0.250768 0.858817,0.106976 0.765734,0.31537 0.657369,0.51543 0.533721,0.707152 h 1.229991 l -0.64857,-1.102176 -0.927818,-0.83543 -1.147328,-0.529785 -1.307096,-0.185239 -0.884346,0.08483 -0.819395,0.243735 -0.738122,0.386484 -0.6405238,0.513085 -0.5266013,0.623533 -0.3963547,0.717832 -0.2497839,0.79598 -0.086889,0.857977 0.087641,0.876907 0.2522731,0.809005 0.4009277,0.725994 0.5336055,0.627875 0.6503064,0.514647 0.751031,0.386312 0.835777,0.242866 0.904548,0.08431 1.443017,-0.237107 1.254071,-0.681681 0.665011,-0.668715 0.609439,-0.991032 h -1.244811"
         id="path6744" />
    </g>
  </g>
</svg>
