<?xml version="1.0" encoding="UTF-8" standalone="no"?>
<!-- Created with Inkscape (http://www.inkscape.org/) -->

<svg
   xmlns:dc="http://purl.org/dc/elements/1.1/"
   xmlns:cc="http://creativecommons.org/ns#"
   xmlns:rdf="http://www.w3.org/1999/02/22-rdf-syntax-ns#"
   xmlns:svg="http://www.w3.org/2000/svg"
   xmlns="http://www.w3.org/2000/svg"
   xmlns:sodipodi="http://sodipodi.sourceforge.net/DTD/sodipodi-0.dtd"
   xmlns:inkscape="http://www.inkscape.org/namespaces/inkscape"
   width="210mm"
   height="297mm"
   viewBox="0 0 210 297"
   version="1.1"
   id="svg8"
   sodipodi:docname="etude logo.svg"
   inkscape:version="0.92.2 (unknown)">
  <defs
     id="defs2" />
  <sodipodi:namedview
     id="base"
     pagecolor="#ffffff"
     bordercolor="#666666"
     borderopacity="1.0"
     inkscape:pageopacity="0.0"
     inkscape:pageshadow="2"
     inkscape:zoom="1.4"
     inkscape:cx="137.67008"
     inkscape:cy="580.70487"
     inkscape:document-units="mm"
     inkscape:current-layer="layer1"
     showgrid="false"
     inkscape:window-width="1364"
     inkscape:window-height="743"
     inkscape:window-x="0"
     inkscape:window-y="2"
     inkscape:window-maximized="1" />
  <metadata
     id="metadata5">
    <rdf:RDF>
      <cc:Work
         rdf:about="">
        <dc:format>image/svg+xml</dc:format>
        <dc:type
           rdf:resource="http://purl.org/dc/dcmitype/StillImage" />
      </cc:Work>
    </rdf:RDF>
  </metadata>
  <g
     inkscape:label="Calque 1"
     inkscape:groupmode="layer"
     id="layer1">
    <path
       style="fill:#000000;fill-opacity:1;stroke:none;stroke-width:0.55009842px;stroke-linecap:butt;stroke-linejoin:miter;stroke-opacity:1"
       d="m 19.085424,98.105127 c 3.366602,0 6.227972,1.715878 7.482196,4.510373 h -1.826497 c -0.61611,-0.96818 -1.056315,-1.45144 -1.782446,-1.91352 -1.078192,-0.726142 -2.398391,-1.100207 -3.806642,-1.100207 -3.872686,0 -6.842921,2.991767 -6.842921,6.908457 0,3.8067 3.101731,6.9321 6.864413,6.9321 1.474258,0 2.948699,-0.48486 4.026891,-1.34301 0.550099,-0.41809 0.946686,-0.85767 1.628809,-1.71583 h 1.803933 c -1.434933,2.65655 -3.554335,4.16632 -6.296048,4.48781 h 11.631573 c -1.094949,-0.15776 -2.042544,-0.61251 -2.793467,-1.36342 -0.90216,-0.92417 -1.452605,-2.2441 -1.452605,-3.54234 0,-1.43023 0.638246,-2.70627 1.78245,-3.63044 0.484087,-0.37405 1.011407,-0.72678 1.957575,-1.21085 -1.364244,-1.43026 -1.803938,-2.28799 -1.803938,-3.41018 0,-2.024345 1.716308,-3.608943 3.850689,-3.608943 z m 14.423965,0 c 2.244403,0 3.917306,1.584157 3.917306,3.718523 0,1.18822 -0.462989,2.06897 -1.475165,2.81711 -0.352063,0.26404 -0.70417,0.46198 -1.694348,0.96804 l 3.08141,3.03629 2.375523,-4.57698 h 1.80501 l -2.992233,5.74272 4.113918,4.00539 -1.055073,1.05508 h 5.521399 c -2.741708,-0.32149 -4.861115,-1.83126 -6.296048,-4.48781 h 1.803938 c 0.682122,0.85816 1.077632,1.29774 1.627731,1.71583 1.078192,0.85815 2.552627,1.34301 4.026891,1.34301 3.762673,0 6.865486,-3.1254 6.865486,-6.9321 0,-3.91669 -2.970228,-6.908457 -6.842922,-6.908457 -1.408252,0 -2.728444,0.374065 -3.806637,1.100207 -0.726129,0.46208 -1.166335,0.94534 -1.78245,1.91352 h -1.826498 c 1.254225,-2.794495 4.114522,-4.510373 7.481125,-4.510373 z m 0.04405,1.474081 c -1.276228,0 -2.265931,0.924592 -2.265931,2.090812 0,0.83613 0.505144,1.60576 1.781372,2.77198 1.958351,-0.74816 2.81711,-1.6063 2.81711,-2.7505 0,-1.18821 -1.012313,-2.112292 -2.332551,-2.112292 z m -0.923994,6.711862 c -2.398429,1.16617 -3.300591,2.22238 -3.300591,3.85068 0,1.84831 1.517849,3.32208 3.410181,3.32208 1.56228,0 2.618425,-0.92423 3.806638,-3.34465 z m 5.127093,4.99492 c -1.09963,2.19927 -2.34722,3.3173 -4.050534,3.58531 h 7.744358 z"
       id="path4629"
       inkscape:connector-curvature="0" />
    <text
       xml:space="preserve"
       style="font-style:normal;font-variant:normal;font-weight:normal;font-stretch:normal;font-size:10.58333302px;line-height:1.25;font-family:'URW Gothic L';-inkscape-font-specification:'URW Gothic L';letter-spacing:0px;word-spacing:0px;fill:#000000;fill-opacity:1;stroke:none;stroke-width:0.26458332"
       x="19.654762"
       y="57.363094"
       id="text4506"><tspan
         sodipodi:role="line"
         id="tspan4504"
         x="19.654762"
         y="57.363094"
         style="font-style:normal;font-variant:normal;font-weight:normal;font-stretch:normal;font-size:9.87777805px;font-family:'URW Gothic L';-inkscape-font-specification:'URW Gothic L';stroke-width:0.26458332">Contact</tspan></text>
    <text
       xml:space="preserve"
       style="font-style:normal;font-variant:normal;font-weight:normal;font-stretch:normal;font-size:10.58333302px;line-height:1.25;font-family:'URW Gothic L';-inkscape-font-specification:'URW Gothic L';letter-spacing:0px;word-spacing:0px;fill:#000000;fill-opacity:1;stroke:none;stroke-width:0.26458332"
       x="-123.94975"
       y="39.877563"
       id="text4520"><tspan
         sodipodi:role="line"
         id="tspan4518"
         x="-123.94975"
         y="39.877563"
         style="font-style:normal;font-variant:normal;font-weight:normal;font-stretch:normal;font-size:9.87777805px;font-family:'URW Gothic L';-inkscape-font-specification:'URW Gothic L';stroke-width:0.26458332">Consequence</tspan></text>
    <text
       xml:space="preserve"
       style="font-style:normal;font-variant:normal;font-weight:normal;font-stretch:normal;font-size:12.69999981px;line-height:1.25;font-family:'URW Gothic L';-inkscape-font-specification:'URW Gothic L';letter-spacing:0px;word-spacing:0px;fill:#000000;fill-opacity:1;stroke:none;stroke-width:0.26458332"
       x="58.019341"
       y="51.693451"
       id="text4524"><tspan
         sodipodi:role="line"
         id="tspan4522"
         x="58.019341"
         y="51.693451"
         style="font-style:normal;font-variant:normal;font-weight:normal;font-stretch:normal;font-size:12.69999981px;font-family:'URW Gothic L';-inkscape-font-specification:'URW Gothic L';stroke-width:0.26458332">&amp;</tspan></text>
    <g
       aria-label="Consequence"
       style="font-style:normal;font-variant:normal;font-weight:normal;font-stretch:normal;font-size:10.58333302px;line-height:1.25;font-family:'URW Gothic L';-inkscape-font-specification:'URW Gothic L';letter-spacing:0px;word-spacing:0px;fill:#000000;fill-opacity:1;stroke:none;stroke-width:0.26458332"
       id="text4557"
       transform="translate(0,-12.828937)">
      <path
         d="m 24.961265,75.646272 c 0.306212,0.385233 0.484012,0.582789 0.730956,0.770467 0.484011,0.385233 1.145822,0.602544 1.807633,0.602544 1.6891,0 3.081867,-1.402644 3.081867,-3.1115 0,-1.758244 -1.3335,-3.101622 -3.071989,-3.101622 -0.632178,0 -1.224844,0.167922 -1.708855,0.493889 -0.325967,0.207433 -0.523523,0.424744 -0.8001,0.859366 h -0.819856 c 0.563033,-1.254477 1.847144,-2.024944 3.358445,-2.024944 2.173111,0 3.783188,1.619956 3.783188,3.802944 0,2.133601 -1.649588,3.753556 -3.832577,3.753556 -1.481667,0 -2.607734,-0.691444 -3.338689,-2.0447 z"
         style="font-style:normal;font-variant:normal;font-weight:normal;font-stretch:normal;font-size:9.87777805px;font-family:'URW Gothic L';-inkscape-font-specification:'URW Gothic L';stroke-width:0.26458332"
         id="path4559"
         inkscape:connector-curvature="0" />
      <path
         d="m 34.992149,72.031005 c -1.6002,0 -2.834922,1.214967 -2.834922,2.795412 0,1.659466 1.214966,2.864555 2.894189,2.864555 1.580444,0 2.746022,-1.195211 2.746022,-2.815167 0,-1.649589 -1.185333,-2.8448 -2.805289,-2.8448 z m 0,0.671689 c 1.185333,0 2.064456,0.928511 2.064456,2.182989 0,1.234722 -0.849489,2.1336 -2.024945,2.1336 -1.2446,0 -2.1336,-0.908755 -2.1336,-2.173111 0,-1.224844 0.898878,-2.143478 2.094089,-2.143478 z"
         style="font-style:normal;font-variant:normal;font-weight:normal;font-stretch:normal;font-size:9.87777805px;font-family:'URW Gothic L';-inkscape-font-specification:'URW Gothic L';stroke-width:0.26458332"
         id="path4561"
         inkscape:connector-curvature="0" />
      <path
         d="m 38.827659,77.562561 h 0.730956 V 74.58935 c 0,-0.602545 0.07902,-0.918634 0.286456,-1.224845 0.286455,-0.414866 0.790222,-0.661811 1.363133,-0.661811 0.5334,0 1.017411,0.217311 1.313744,0.582789 0.256823,0.335845 0.3556,0.730956 0.3556,1.442156 v 2.834922 h 0.730956 v -2.834922 c 0,-0.908756 -0.128411,-1.392767 -0.474133,-1.857023 -0.424745,-0.5334 -1.076678,-0.839611 -1.837267,-0.839611 -0.7112,0 -1.284111,0.276578 -1.738489,0.829734 v -0.701323 h -0.730956 z"
         style="font-style:normal;font-variant:normal;font-weight:normal;font-stretch:normal;font-size:9.87777805px;font-family:'URW Gothic L';-inkscape-font-specification:'URW Gothic L';stroke-width:0.26458332"
         id="path4563"
         inkscape:connector-curvature="0" />
      <path
         d="m 44.40243,75.972239 c 0.0099,1.047044 0.701323,1.718733 1.738489,1.718733 0.968023,0 1.649589,-0.691444 1.649589,-1.679222 0,-0.661811 -0.306211,-1.116189 -0.938389,-1.382889 -0.819855,-0.335845 -0.859366,-0.3556 -1.017411,-0.434622 -0.335844,-0.167923 -0.493889,-0.395111 -0.493889,-0.7112 0,-0.434623 0.345723,-0.780345 0.780345,-0.780345 0.474133,0 0.750711,0.276578 0.790222,0.790222 h 0.740833 c -0.02963,-0.869244 -0.651933,-1.461911 -1.521177,-1.461911 -0.879123,0 -1.531056,0.642056 -1.531056,1.521178 0,0.385233 0.138289,0.721078 0.404989,0.968022 0.227189,0.207434 0.237066,0.207434 0.997655,0.523523 0.325967,0.128411 0.563034,0.246944 0.701323,0.335844 0.217311,0.148167 0.345722,0.404989 0.345722,0.701322 0,0.543278 -0.385233,0.938389 -0.908756,0.938389 -0.602544,0 -0.9779,-0.385233 -1.017411,-1.047044 z"
         style="font-style:normal;font-variant:normal;font-weight:normal;font-stretch:normal;font-size:9.87777805px;font-family:'URW Gothic L';-inkscape-font-specification:'URW Gothic L';stroke-width:0.26458332"
         id="path4565"
         inkscape:connector-curvature="0" />
      <path
         d="m 54.099167,75.102994 c 0,-0.740833 -0.09878,-1.195211 -0.365478,-1.669344 -0.484011,-0.859367 -1.4224,-1.402645 -2.449689,-1.402645 -1.570566,0 -2.805289,1.234723 -2.805289,2.805289 0,1.6002 1.254478,2.854678 2.854678,2.854678 0.691445,0 1.343378,-0.256822 1.837267,-0.721078 0.385233,-0.365477 0.642056,-0.740833 0.790222,-1.185333 h -0.760589 c -0.306211,0.740833 -1.0668,1.234722 -1.886655,1.234722 -1.106311,0 -2.0447,-0.849489 -2.103967,-1.916289 z m -4.869745,-0.661811 c 0.197556,-1.037167 1.017412,-1.738489 2.044701,-1.738489 1.047044,0 1.847144,0.661811 2.094088,1.738489 z"
         style="font-style:normal;font-variant:normal;font-weight:normal;font-stretch:normal;font-size:9.87777805px;font-family:'URW Gothic L';-inkscape-font-specification:'URW Gothic L';stroke-width:0.26458332"
         id="path4567"
         inkscape:connector-curvature="0" />
      <path
         d="m 60.602603,72.159416 h -0.730956 v 0.928512 c -0.454377,-0.691445 -1.205089,-1.056923 -2.123722,-1.056923 -1.610078,0 -2.8448,1.234723 -2.8448,2.834923 0,1.590322 1.254478,2.825044 2.864556,2.825044 0.898877,0 1.629833,-0.365478 2.103966,-1.056922 v 2.825044 h 0.730956 z m -2.825045,0.543278 c 1.224845,0 2.143478,0.938389 2.143478,2.192867 0,1.185333 -0.948266,2.123722 -2.143478,2.123722 -1.214966,0 -2.1336,-0.928511 -2.1336,-2.143478 0,-1.2446 0.918634,-2.173111 2.1336,-2.173111 z"
         style="font-style:normal;font-variant:normal;font-weight:normal;font-stretch:normal;font-size:9.87777805px;font-family:'URW Gothic L';-inkscape-font-specification:'URW Gothic L';stroke-width:0.26458332"
         id="path4569"
         inkscape:connector-curvature="0" />
      <path
         d="m 66.604743,72.159416 h -0.730956 v 2.775656 c 0,0.661811 -0.09878,1.076678 -0.325967,1.412522 -0.306211,0.424745 -0.790222,0.671689 -1.353255,0.671689 -0.602545,0 -1.116189,-0.246944 -1.363134,-0.681566 -0.167922,-0.276578 -0.256822,-0.7112 -0.256822,-1.264356 v -2.913945 h -0.730955 v 2.913945 c 0,0.8001 0.138288,1.363133 0.424744,1.758244 0.404989,0.563034 1.056922,0.859367 1.8669,0.859367 0.839611,0 1.373011,-0.296333 1.738489,-0.968022 v 0.839611 h 0.730956 z"
         style="font-style:normal;font-variant:normal;font-weight:normal;font-stretch:normal;font-size:9.87777805px;font-family:'URW Gothic L';-inkscape-font-specification:'URW Gothic L';stroke-width:0.26458332"
         id="path4571"
         inkscape:connector-curvature="0" />
      <path
         d="m 73.256653,75.102994 c 0,-0.740833 -0.09878,-1.195211 -0.365478,-1.669344 -0.484011,-0.859367 -1.4224,-1.402645 -2.449689,-1.402645 -1.570566,0 -2.805289,1.234723 -2.805289,2.805289 0,1.6002 1.254478,2.854678 2.854678,2.854678 0.691445,0 1.343378,-0.256822 1.837267,-0.721078 0.385233,-0.365477 0.642055,-0.740833 0.790222,-1.185333 h -0.760589 c -0.306211,0.740833 -1.0668,1.234722 -1.886655,1.234722 -1.106312,0 -2.0447,-0.849489 -2.103967,-1.916289 z m -4.869745,-0.661811 c 0.197556,-1.037167 1.017412,-1.738489 2.044701,-1.738489 1.047044,0 1.847144,0.661811 2.094088,1.738489 z"
         style="font-style:normal;font-variant:normal;font-weight:normal;font-stretch:normal;font-size:9.87777805px;font-family:'URW Gothic L';-inkscape-font-specification:'URW Gothic L';stroke-width:0.26458332"
         id="path4573"
         inkscape:connector-curvature="0" />
      <path
         d="m 74.268046,77.562561 h 0.730956 V 74.58935 c 0,-0.602545 0.07902,-0.918634 0.286455,-1.224845 0.286456,-0.414866 0.790223,-0.661811 1.363134,-0.661811 0.5334,0 1.017411,0.217311 1.313744,0.582789 0.256822,0.335845 0.3556,0.730956 0.3556,1.442156 v 2.834922 h 0.730956 v -2.834922 c 0,-0.908756 -0.128411,-1.392767 -0.474134,-1.857023 -0.424744,-0.5334 -1.076677,-0.839611 -1.837266,-0.839611 -0.7112,0 -1.284111,0.276578 -1.738489,0.829734 v -0.701323 h -0.730956 z"
         style="font-style:normal;font-variant:normal;font-weight:normal;font-stretch:normal;font-size:9.87777805px;font-family:'URW Gothic L';-inkscape-font-specification:'URW Gothic L';stroke-width:0.26458332"
         id="path4575"
         inkscape:connector-curvature="0" />
      <path
         d="m 84.840974,75.972239 c -0.563034,0.750711 -1.086556,1.047044 -1.847145,1.047044 -1.214966,0 -2.173111,-0.958144 -2.173111,-2.153355 0,-1.214967 0.938389,-2.163234 2.143478,-2.163234 0.8001,0 1.461911,0.385234 1.876778,1.096434 h 0.819855 c -0.434622,-1.086556 -1.471789,-1.768123 -2.686755,-1.768123 -1.619956,0 -2.894189,1.2446 -2.894189,2.815167 0,1.610078 1.284111,2.8448 2.943578,2.8448 0.671689,0 1.293989,-0.217311 1.797755,-0.612422 0.345722,-0.276578 0.553156,-0.543278 0.849489,-1.106311 z"
         style="font-style:normal;font-variant:normal;font-weight:normal;font-stretch:normal;font-size:9.87777805px;font-family:'URW Gothic L';-inkscape-font-specification:'URW Gothic L';stroke-width:0.26458332"
         id="path4577"
         inkscape:connector-curvature="0" />
      <path
         d="m 92.08617,75.102994 c 0,-0.740833 -0.09878,-1.195211 -0.365477,-1.669344 -0.484012,-0.859367 -1.4224,-1.402645 -2.449689,-1.402645 -1.570567,0 -2.805289,1.234723 -2.805289,2.805289 0,1.6002 1.254477,2.854678 2.854678,2.854678 0.691444,0 1.343377,-0.256822 1.837266,-0.721078 0.385234,-0.365477 0.642056,-0.740833 0.790223,-1.185333 h -0.760589 c -0.306212,0.740833 -1.0668,1.234722 -1.886656,1.234722 -1.106311,0 -2.0447,-0.849489 -2.103967,-1.916289 z m -4.869744,-0.661811 c 0.197555,-1.037167 1.017411,-1.738489 2.0447,-1.738489 1.047044,0 1.847144,0.661811 2.094089,1.738489 z"
         style="font-style:normal;font-variant:normal;font-weight:normal;font-stretch:normal;font-size:9.87777805px;font-family:'URW Gothic L';-inkscape-font-specification:'URW Gothic L';stroke-width:0.26458332"
         id="path4579"
         inkscape:connector-curvature="0" />
    </g>
    <path
       inkscape:connector-curvature="0"
       id="path4586"
       style="font-style:normal;font-variant:normal;font-weight:normal;font-stretch:normal;font-size:medium;line-height:1.25;font-family:'URW Gothic L';-inkscape-font-specification:'URW Gothic L';letter-spacing:0px;word-spacing:0px;fill:#000000;fill-opacity:1;stroke:none;stroke-width:0.26458332"
       d="m 29.459332,75.936241 c -0.328083,0.41275 -0.518583,0.624417 -0.783166,0.8255 -0.518584,0.41275 -1.227667,0.645583 -1.93675,0.645583 -1.80975,0 -3.302,-1.502833 -3.302,-3.33375 0,-1.883833 1.42875,-3.323166 3.291417,-3.323166 0.677333,0 1.312333,0.179917 1.830916,0.529167 0.34925,0.22225 0.560917,0.455083 0.85725,0.92075 h 0.878417 c -0.60325,-1.344084 -1.979084,-2.169584 -3.598333,-2.169584 -2.328334,0 -4.053417,1.735667 -4.053417,4.074583 0,2.286 1.767417,4.021667 4.106333,4.021667 1.5875,0 2.794,-0.740833 3.577167,-2.19075 z" />
    <path
       inkscape:connector-curvature="0"
       id="path4588"
       style="font-style:normal;font-variant:normal;font-weight:normal;font-stretch:normal;font-size:medium;line-height:1.25;font-family:'URW Gothic L';-inkscape-font-specification:'URW Gothic L';letter-spacing:0px;word-spacing:0px;fill:#000000;fill-opacity:1;stroke:none;stroke-width:0.26458332"
       d="m 36.618957,72.898824 -1.143,2.201334 -1.481667,-1.4605 c 0.47625,-0.243417 0.645584,-0.338667 0.814917,-0.465667 0.486833,-0.359833 0.709083,-0.783166 0.709083,-1.354666 0,-1.026584 -0.804333,-1.788584 -1.883833,-1.788584 -1.026583,0 -1.852083,0.762 -1.852083,1.735667 0,0.53975 0.211666,0.9525 0.867833,1.640416 -0.455083,0.232834 -0.709083,0.402167 -0.941917,0.582084 -0.550333,0.4445 -0.85725,1.058333 -0.85725,1.74625 0,0.624416 0.264584,1.259416 0.6985,1.703916 0.455084,0.455084 1.058334,0.687917 1.767417,0.687917 1.037167,0 1.74625,-0.529167 2.360083,-1.756833 l 1.80975,1.756833 0.53975,-0.53975 -1.979083,-1.926167 1.439333,-2.76225 z m -1.524,2.910417 c -0.5715,1.164167 -1.0795,1.608667 -1.830917,1.608667 -0.910166,0 -1.640416,-0.709084 -1.640416,-1.598084 0,-0.783166 0.433916,-1.291166 1.5875,-1.852083 z m -1.672167,-2.7305 c -0.613833,-0.560916 -0.85725,-0.931333 -0.85725,-1.3335 0,-0.560916 0.47625,-1.005416 1.090084,-1.005416 0.635,0 1.121833,0.4445 1.121833,1.016 0,0.550333 -0.41275,0.963083 -1.354667,1.322916 z" />
    <path
       inkscape:connector-curvature="0"
       id="path4590"
       style="font-style:normal;font-variant:normal;font-weight:normal;font-stretch:normal;font-size:medium;line-height:1.25;font-family:'URW Gothic L';-inkscape-font-specification:'URW Gothic L';letter-spacing:0px;word-spacing:0px;fill:#000000;fill-opacity:1;stroke:none;stroke-width:0.26458332"
       d="m 38.013972,75.936241 c 0.328083,0.41275 0.518583,0.624417 0.783167,0.8255 0.518583,0.41275 1.227666,0.645583 1.93675,0.645583 1.809749,0 3.301999,-1.502833 3.301999,-3.33375 0,-1.883833 -1.42875,-3.323166 -3.291416,-3.323166 -0.677333,0 -1.312333,0.179917 -1.830917,0.529167 -0.34925,0.22225 -0.560916,0.455083 -0.85725,0.92075 h -0.878416 c 0.60325,-1.344084 1.979083,-2.169584 3.598333,-2.169584 2.328333,0 4.053416,1.735667 4.053416,4.074583 0,2.286 -1.767416,4.021667 -4.106333,4.021667 -1.5875,0 -2.794,-0.740833 -3.577166,-2.19075 z" />
    <g
       id="g4607"
       transform="translate(-0.21443357,-0.03160889)" />
    <path
       style="fill:#000000;fill-opacity:1;stroke:none;stroke-width:0.55009842px;stroke-linecap:butt;stroke-linejoin:miter;stroke-opacity:1"
       d="m 24.034615,120.756 c 1.15832,0.76792 2.085643,1.82573 2.665613,3.11792 H 24.87373 c -0.616114,-0.96819 -1.056319,-1.45143 -1.78245,-1.91352 -1.078191,-0.72612 -2.398386,-1.1002 -3.806638,-1.1002 -3.872686,0 -6.842922,2.99178 -6.842922,6.90846 0,3.8067 3.10173,6.93211 6.864411,6.93211 1.47426,0 2.948702,-0.48487 4.026891,-1.34303 0.550098,-0.41808 0.946687,-0.85767 1.628808,-1.71582 h 1.803935 c -0.700496,1.29686 -1.565529,2.31771 -2.585031,3.06315 h 5.07337 c -0.868769,-0.92088 -1.398884,-2.21006 -1.398884,-3.4811 0,-1.43024 0.63824,-2.70628 1.782446,-3.63044 0.484088,-0.37405 1.011409,-0.72677 1.957578,-1.21086 -1.364243,-1.43026 -1.803935,-2.28797 -1.803935,-3.41018 0,-0.84341 0.300641,-1.60856 0.802585,-2.21649 z m 12.712431,0 c 0.511824,0.62666 0.812254,1.42656 0.812254,2.32609 0,1.18821 -0.462993,2.06894 -1.475167,2.81711 -0.352064,0.26403 -0.704169,0.46196 -1.694346,0.96803 l 3.081412,3.03627 2.375522,-4.57697 h 1.80501 l -2.992235,5.74271 3.734651,3.63583 h 1.133506 c -1.019504,-0.74544 -1.883462,-1.76629 -2.583959,-3.06315 h 1.803936 c 0.682121,0.85815 1.077636,1.29774 1.627734,1.71582 1.078194,0.85816 2.552628,1.34303 4.026891,1.34303 3.762673,0 6.865489,-3.12541 6.865489,-6.93211 0,-3.91668 -2.970237,-6.90846 -6.842923,-6.90846 -1.408259,0 -2.728449,0.37408 -3.806643,1.1002 -0.72613,0.46209 -1.166331,0.94533 -1.782446,1.91352 h -1.826498 c 0.57992,-1.29209 1.505533,-2.35003 2.663463,-3.11792 z m -3.060999,0.0817 c -1.276227,0 -2.265932,0.92458 -2.265932,2.0908 0,0.83614 0.505144,1.60576 1.781374,2.77198 1.958349,-0.74814 2.817106,-1.60628 2.817106,-2.75048 0,-1.18821 -1.012311,-2.1123 -2.332548,-2.1123 z m -0.923992,6.71186 c -2.398429,1.16615 -3.300591,2.22239 -3.300591,3.85069 0,1.73279 1.333934,3.13619 3.059923,3.30489 h 0.569438 c 1.440822,-0.0869 2.45707,-1.02484 3.587458,-3.32746 z m 5.127088,4.99493 c -0.449045,0.89809 -0.925731,1.6074 -1.445083,2.16065 h 3.671264 z"
       id="path4651"
       inkscape:connector-curvature="0" />
    <path
       style="fill:#000000;fill-opacity:1;stroke:none;stroke-width:0.55009842px;stroke-linecap:butt;stroke-linejoin:miter;stroke-opacity:1"
       d="m 34.102468,142.19896 c -1.27623,0 -2.265933,0.92458 -2.265933,2.09079 0,0.83614 0.505144,1.60576 1.781372,2.77198 1.958351,-0.74815 2.817105,-1.60629 2.817105,-2.75049 0,-1.18821 -1.012308,-2.11228 -2.332544,-2.11228 z m -14.401408,0.0226 c -3.872685,0 -6.842922,2.9918 -6.842922,6.90847 0,3.8067 3.10173,6.93209 6.86441,6.93209 1.474258,0 2.948703,-0.48485 4.026897,-1.34301 0.550097,-0.41808 0.94668,-0.85768 1.628802,-1.71583 h 1.803938 1.11094 c -0.01255,-0.13944 -0.02148,-0.27843 -0.02148,-0.41795 0,-1.43024 0.63824,-2.70626 1.782445,-3.63043 0.484086,-0.37405 1.011412,-0.72679 1.95758,-1.21087 -0.980907,-1.02836 -1.478411,-1.76122 -1.683603,-2.50875 h -3.211416 -1.826498 c -0.616116,-0.96817 -1.056321,-1.45143 -1.782452,-1.91352 -1.078192,-0.72613 -2.398384,-1.1002 -3.806637,-1.1002 z m 29.140179,0 c -1.408259,0 -2.728445,0.37407 -3.806638,1.1002 -0.72613,0.46209 -1.166335,0.94535 -1.782451,1.91352 h -1.826498 -3.530515 c -0.170827,0.8038 -0.621682,1.45398 -1.394587,2.02527 -0.352063,0.26403 -0.704165,0.46199 -1.694348,0.96804 l 3.081415,3.03629 2.375524,-4.57699 h 1.80501 l -2.992239,5.74272 0.587705,0.57267 h 1.696497 1.803933 c 0.682121,0.85815 1.077636,1.29775 1.627735,1.71583 1.078194,0.85816 2.552627,1.34301 4.026891,1.34301 3.762674,0 6.865488,-3.12539 6.865488,-6.93209 0,-3.91667 -2.970235,-6.90847 -6.842922,-6.90847 z m -15.662767,6.68929 c -2.398429,1.16617 -3.30059,2.22239 -3.30059,3.85069 0,1.73279 1.333933,3.1362 3.059923,3.30488 h 0.56944 c 1.440823,-0.0869 2.457068,-1.0248 3.587455,-3.32745 z"
       id="path4659"
       inkscape:connector-curvature="0" />
    <g
       id="g4707"
       transform="translate(42.333354,-31.750014)">
      <path
         d="m 89.234642,100.17168 c -0.437444,0.55033 -0.691444,0.83255 -1.044222,1.10066 -0.691444,0.55034 -1.636889,0.86078 -2.582333,0.86078 -2.413,0 -4.402667,-2.00378 -4.402667,-4.444998 0,-2.511778 1.905,-4.430889 4.388556,-4.430889 0.903111,0 1.749778,0.239889 2.441222,0.705556 0.465667,0.296333 0.747889,0.606778 1.143,1.227667 h 1.171222 c -0.804333,-1.792112 -2.638778,-2.892778 -4.797777,-2.892778 -3.104445,0 -5.404556,2.314222 -5.404556,5.432777 0,3.048005 2.356556,5.362225 5.475111,5.362225 2.116667,0 3.725333,-0.98778 4.769556,-2.921 z"
         style="font-style:normal;font-variant:normal;font-weight:normal;font-stretch:normal;font-size:14.11111069px;line-height:1.25;font-family:'URW Gothic L';-inkscape-font-specification:'URW Gothic L';letter-spacing:0px;word-spacing:0px;fill:#000000;fill-opacity:1;stroke:none;stroke-width:0.26458332"
         id="path4683"
         inkscape:connector-curvature="0" />
      <path
         d="M 95.351807,98.704122 H 93.61614 L 94.011252,96.5169 h 1.552222 v -0.860778 h -1.397 l 0.578555,-3.175 h -0.945444 l -0.564445,3.175 h -2.300111 l 0.578556,-3.175 h -0.903111 l -0.592667,3.175 h -1.905 V 96.5169 h 1.749778 l -0.409222,2.187222 H 87.88703 V 99.5649 h 1.396999 l -0.635,3.34433 h 0.917223 l 0.635,-3.34433 h 2.314222 l -0.606778,3.34433 h 0.931333 l 0.606778,-3.34433 h 1.905 z M 93.079918,96.5169 92.670696,98.704122 H 90.370585 L 90.779807,96.5169 Z"
         style="font-style:normal;font-variant:normal;font-weight:normal;font-stretch:normal;font-size:14.11111069px;line-height:1.25;font-family:'URW Gothic L';-inkscape-font-specification:'URW Gothic L';letter-spacing:0px;word-spacing:0px;fill:#000000;fill-opacity:1;stroke:none;stroke-width:0.26458332"
         id="path4685"
         inkscape:connector-curvature="0" />
      <path
         d="m 94.246737,100.17168 c 0.43744,0.55033 0.69144,0.83255 1.04422,1.10066 0.69144,0.55034 1.636891,0.86078 2.582328,0.86078 2.412985,0 4.402655,-2.00378 4.402655,-4.444998 0,-2.511778 -1.905,-4.430889 -4.388548,-4.430889 -0.903104,0 -1.749775,0.239889 -2.441215,0.705556 -0.46567,0.296333 -0.74789,0.606778 -1.143,1.227667 h -1.17122 c 0.80433,-1.792112 2.63878,-2.892778 4.797775,-2.892778 3.104428,0 5.404538,2.314222 5.404538,5.432777 0,3.048005 -2.35656,5.362225 -5.475095,5.362225 -2.116668,0 -3.725328,-0.98778 -4.769558,-2.921 z"
         style="font-style:normal;font-variant:normal;font-weight:normal;font-stretch:normal;font-size:14.11111069px;line-height:1.25;font-family:'URW Gothic L';-inkscape-font-specification:'URW Gothic L';letter-spacing:0px;word-spacing:0px;fill:#000000;fill-opacity:1;stroke:none;stroke-width:0.26458332"
         id="path4687"
         inkscape:connector-curvature="0" />
    </g>
    <g
       id="g4702"
       transform="translate(42.333354,-31.750014)">
      <path
         inkscape:connector-curvature="0"
         id="path4693"
         style="font-style:normal;font-variant:normal;font-weight:normal;font-stretch:normal;font-size:14.11111069px;line-height:1.25;font-family:'URW Gothic L';-inkscape-font-specification:'URW Gothic L';letter-spacing:0px;word-spacing:0px;fill:#000000;fill-opacity:1;stroke:none;stroke-width:0.26458332"
         d="m 86.891189,114.72376 c -0.437444,0.55033 -0.691444,0.83255 -1.044222,1.10066 -0.691444,0.55034 -1.636889,0.86078 -2.582333,0.86078 -2.413,0 -4.402667,-2.00378 -4.402667,-4.44499 0,-2.51178 1.905,-4.43089 4.388556,-4.43089 0.903111,0 1.749778,0.23989 2.441222,0.70555 0.465667,0.29634 0.747889,0.60678 1.143,1.22767 h 1.171222 c -0.804333,-1.79211 -2.638778,-2.89278 -4.797777,-2.89278 -3.104445,0 -5.404556,2.31422 -5.404556,5.43278 0,3.048 2.356556,5.36222 5.475111,5.36222 2.116667,0 3.725333,-0.98778 4.769556,-2.921 z" />
      <path
         inkscape:connector-curvature="0"
         id="path4695"
         style="font-style:normal;font-variant:normal;font-weight:normal;font-stretch:normal;font-size:14.11111069px;line-height:1.25;font-family:'URW Gothic L';-inkscape-font-specification:'URW Gothic L';letter-spacing:0px;word-spacing:0px;fill:#000000;fill-opacity:1;stroke:none;stroke-width:0.26458332"
         d="m 94.595855,113.25621 h -1.735667 l 0.395112,-2.18723 h 1.552222 v -0.86077 h -1.397 l 0.578555,-3.175 h -0.945444 l -0.564445,3.175 h -2.300111 l 0.578556,-3.175 h -0.903111 l -0.592667,3.175 h -1.905 v 0.86077 h 1.749778 l -0.409222,2.18723 h -1.566333 v 0.86077 h 1.396999 l -0.635,3.34433 H 88.8103 l 0.635,-3.34433 h 2.314222 l -0.606778,3.34433 h 0.931333 l 0.606778,-3.34433 h 1.905 z m -2.271889,-2.18723 -0.409222,2.18723 h -2.300111 l 0.409222,-2.18723 z" />
      <path
         inkscape:connector-curvature="0"
         id="path4697"
         style="font-style:normal;font-variant:normal;font-weight:normal;font-stretch:normal;font-size:14.11111069px;line-height:1.25;font-family:'URW Gothic L';-inkscape-font-specification:'URW Gothic L';letter-spacing:0px;word-spacing:0px;fill:#000000;fill-opacity:1;stroke:none;stroke-width:0.26458332"
         d="m 95.078286,114.72376 c 0.43744,0.55033 0.69144,0.83255 1.04422,1.10066 0.69144,0.55034 1.636891,0.86078 2.582328,0.86078 2.412986,0 4.402666,-2.00378 4.402666,-4.44499 0,-2.51178 -1.90501,-4.43089 -4.388559,-4.43089 -0.903104,0 -1.749775,0.23989 -2.441215,0.70555 -0.46567,0.29634 -0.74789,0.60678 -1.143,1.22767 h -1.17122 c 0.80433,-1.79211 2.63878,-2.89278 4.797775,-2.89278 3.104439,0 5.404549,2.31422 5.404549,5.43278 0,3.048 -2.35656,5.36222 -5.475106,5.36222 -2.116668,0 -3.725328,-0.98778 -4.769558,-2.921 z" />
    </g>
    <path
       style="fill:#000000;fill-opacity:1;stroke:none;stroke-width:0.55009842px;stroke-linecap:butt;stroke-linejoin:miter;stroke-opacity:1"
       d="m 19.70106,163.38824 c -3.872685,0 -6.842922,2.9918 -6.842922,6.90847 0,3.8067 3.10173,6.93209 6.86441,6.93209 1.474258,0 2.948703,-0.48485 4.026897,-1.34301 0.550097,-0.41808 0.94668,-0.85768 1.628802,-1.71583 h 1.803938 1.11094 c -0.01255,-0.13944 -0.02148,-0.27843 -0.02148,-0.41795 0,-1.43024 0.63824,-2.70626 1.782445,-3.63043 0.484086,-0.37405 1.011412,-0.72679 1.95758,-1.21087 -0.980907,-1.02836 -1.478411,-1.76122 -1.683603,-2.50875 h -3.211416 -1.826498 c -0.616116,-0.96817 -1.056321,-1.45143 -1.782452,-1.91352 -1.078192,-0.72613 -2.398384,-1.1002 -3.806637,-1.1002 z"
       id="path4715" />
    <path
       style="fill:#000000;fill-opacity:1;stroke:none;stroke-width:0.55009842px;stroke-linecap:butt;stroke-linejoin:miter;stroke-opacity:1"
       d="m 48.841239,163.38824 c -1.408259,0 -2.728445,0.37407 -3.806638,1.1002 -0.72613,0.46209 -1.166335,0.94535 -1.782451,1.91352 h -1.826498 -3.530515 c -0.170827,0.8038 -0.621682,1.45398 -1.394587,2.02527 -0.352063,0.26403 -0.704165,0.46199 -1.694348,0.96804 l 3.081415,3.03629 2.375524,-4.57699 h 1.80501 l -2.992239,5.74272 0.587705,0.57267 h 1.696497 1.803933 c 0.682121,0.85815 1.077636,1.29775 1.627735,1.71583 1.078194,0.85816 2.552627,1.34301 4.026891,1.34301 3.762674,0 6.865488,-3.12539 6.865488,-6.93209 0,-3.91667 -2.970235,-6.90847 -6.842922,-6.90847 z"
       id="path4713" />
  </g>
</svg>
