<?xml version="1.0" encoding="UTF-8" standalone="no"?>
<!-- Created with Inkscape (http://www.inkscape.org/) -->

<svg
   xmlns:dc="http://purl.org/dc/elements/1.1/"
   xmlns:cc="http://creativecommons.org/ns#"
   xmlns:rdf="http://www.w3.org/1999/02/22-rdf-syntax-ns#"
   xmlns:svg="http://www.w3.org/2000/svg"
   xmlns="http://www.w3.org/2000/svg"
   xmlns:sodipodi="http://sodipodi.sourceforge.net/DTD/sodipodi-0.dtd"
   xmlns:inkscape="http://www.inkscape.org/namespaces/inkscape"
   sodipodi:docname="noms.svg"
   inkscape:version="0.92.2 (unknown)"
   id="svg5494"
   version="1.1"
   viewBox="0 0 210 297"
   height="297mm"
   width="210mm">
  <sodipodi:namedview
     inkscape:window-maximized="1"
     inkscape:window-y="2"
     inkscape:window-x="0"
     inkscape:window-height="743"
     inkscape:window-width="1364"
     showgrid="false"
     inkscape:current-layer="layer4"
     inkscape:document-units="mm"
     inkscape:cy="727.95758"
     inkscape:cx="260.23847"
     inkscape:zoom="3.959798"
     inkscape:pageshadow="2"
     inkscape:pageopacity="0.0"
     borderopacity="1.0"
     bordercolor="#666666"
     pagecolor="#ffffff"
     id="base" />
  <defs
     id="defs5488" />
  <metadata
     id="metadata5491">
    <rdf:RDF>
      <cc:Work
         rdf:about="">
        <dc:format>image/svg+xml</dc:format>
        <dc:type
           rdf:resource="http://purl.org/dc/dcmitype/StillImage" />
        <dc:title />
      </cc:Work>
    </rdf:RDF>
  </metadata>
  <g
     id="layer1"
     inkscape:groupmode="layer"
     inkscape:label="Calque 1" />
  <g
     inkscape:label="SilkS"
     id="layer4"
     inkscape:groupmode="layer">
    <path
       style="font-style:normal;font-variant:normal;font-weight:normal;font-stretch:normal;font-size:3.88055563px;line-height:1.25;font-family:'URW Gothic L';-inkscape-font-specification:'URW Gothic L';letter-spacing:1.32291663px;word-spacing:0px;fill:#000000;fill-opacity:1;stroke:none;stroke-width:1.24543655"
       d="M 285.16992 378.21875 L 284.08398 378.32227 L 283.08594 378.61914 L 282.18945 379.09375 L 281.41797 379.72656 L 280.78516 380.5 L 280.31055 381.39453 L 280.01367 382.39453 L 279.91016 383.48047 L 280.01367 384.55859 L 280.31445 385.54883 L 280.79492 386.43555 L 281.43555 387.19922 L 282.2207 387.82422 L 283.13086 388.29102 L 284.15039 388.58398 L 285.26172 388.68555 L 286.43164 388.57617 L 287.42969 388.22461 L 288.30664 387.60742 L 289.11719 386.69531 L 289.11719 388.44922 L 290.46875 388.44922 L 290.46875 378.45703 L 289.11719 378.45703 L 289.11719 380.22852 L 288.32812 379.33008 L 287.42383 378.70312 L 286.38086 378.33789 L 285.16992 378.21875 z M 285.20703 379.46094 L 286.74219 379.76562 L 287.98438 380.59961 L 288.81445 381.84961 L 289.11719 383.40625 L 288.82031 384.99414 L 288.00586 386.27539 L 286.78906 387.13086 L 285.28125 387.44336 L 283.69922 387.13086 L 282.43164 386.27344 L 281.58594 384.98633 L 281.2793 383.38867 L 281.58789 381.85742 L 282.42773 380.60938 L 283.67578 379.76953 L 285.20703 379.46094 z "
       transform="scale(0.26458333)"
       id="path1278" />
    <path
       style="font-style:normal;font-variant:normal;font-weight:normal;font-stretch:normal;font-size:3.88055563px;line-height:1.25;font-family:'URW Gothic L';-inkscape-font-specification:'URW Gothic L';letter-spacing:1.32291663px;word-spacing:0px;fill:#000000;fill-opacity:1;stroke:none;stroke-width:1.24543655"
       d="M 256.91016 358.35938 L 255.85352 358.46289 L 254.875 358.76172 L 253.99219 359.23438 L 253.22656 359.86328 L 252.59766 360.62891 L 252.125 361.51172 L 251.82617 362.49023 L 251.72266 363.54688 L 251.82812 364.62305 L 252.13086 365.62109 L 252.61328 366.51758 L 253.25195 367.29688 L 254.03125 367.93555 L 254.92773 368.41797 L 255.92578 368.7207 L 257.00195 368.82617 L 257.94336 368.73828 L 258.83789 368.48047 L 259.66211 368.0625 L 260.39844 367.49219 L 261.29492 366.45117 L 261.85938 365.30078 L 260.45312 365.30078 L 259.88281 366.23438 L 259.06641 366.95508 L 258.07031 367.41992 L 256.96484 367.58398 L 255.50977 367.30664 L 254.29297 366.55273 L 253.44141 365.42578 L 253.07422 364.04102 L 262.11523 364.04102 L 261.96289 362.3125 L 261.43945 360.95312 L 260.62109 359.87695 L 259.55273 359.06055 L 258.29297 358.54102 L 256.91016 358.35938 z M 256.89258 359.60156 L 258.25 359.82422 L 259.38281 360.46289 L 260.23828 361.47461 L 260.76367 362.81641 L 253.11133 362.81641 L 253.58789 361.50586 L 254.42578 360.49023 L 255.55078 359.83398 L 256.89258 359.60156 z "
       transform="scale(0.26458333)"
       id="path1228" />
    <path
       style="font-style:normal;font-variant:normal;font-weight:normal;font-stretch:normal;font-size:3.88055563px;line-height:1.25;font-family:'URW Gothic L';-inkscape-font-specification:'URW Gothic L';letter-spacing:1.32291663px;word-spacing:0px;fill:#000000;fill-opacity:1;stroke:none;stroke-width:1.24543655"
       d="M 232.52344 355.08984 L 232.52344 368.58789 L 236.1582 368.58789 L 238.79297 368.3457 L 239.85742 368.0332 L 240.79883 367.58398 L 242.15039 366.53906 L 243.12695 365.22656 L 243.7207 363.66992 L 243.92188 361.88477 L 243.72461 360.08398 L 243.14062 358.50977 L 242.17969 357.18945 L 240.85352 356.14844 L 239.85352 355.66016 L 238.7168 355.33203 L 235.70117 355.08984 L 232.52344 355.08984 z M 233.875 356.31445 L 235.75586 356.31445 L 238.31445 356.51953 L 240.10352 357.18945 L 241.14258 358.02539 L 241.91016 359.10547 L 242.38867 360.38867 L 242.55273 361.83008 L 242.42383 363.11328 L 242.04883 364.28125 L 241.44141 365.30859 L 240.61523 366.1582 L 239.73828 366.70898 L 238.67969 367.08398 L 237.37305 367.29688 L 235.75586 367.36523 L 233.875 367.36523 L 233.875 356.31445 z "
       transform="scale(0.26458333)"
       id="path1224" />
    <path
       style="font-style:normal;font-variant:normal;font-weight:normal;font-stretch:normal;font-size:3.88055563px;line-height:1.25;font-family:'URW Gothic L';-inkscape-font-specification:'URW Gothic L';letter-spacing:1.32291663px;word-spacing:0px;fill:#000000;fill-opacity:1;stroke:none;stroke-width:1.24543655"
       d="M 83.09375 355.08984 L 77.304688 368.58789 L 78.728516 368.58789 L 80.701172 364.04102 L 86.986328 364.04102 L 88.939453 368.58789 L 90.419922 368.58789 L 84.611328 355.08984 L 83.09375 355.08984 z M 83.861328 356.62305 L 86.455078 362.81641 L 81.212891 362.81641 L 83.861328 356.62305 z "
       transform="scale(0.26458333)"
       id="path1196" />
    <path
       style="font-style:normal;font-variant:normal;font-weight:normal;font-stretch:normal;font-size:3.88055563px;line-height:1.25;font-family:'URW Gothic L';-inkscape-font-specification:'URW Gothic L';letter-spacing:1.32291663px;word-spacing:0px;fill:#000000;fill-opacity:1;stroke:none;stroke-width:1.24543655"
       d="M 78.492188 374.94922 L 78.492188 388.44922 L 79.84375 388.44922 L 79.84375 382.98633 L 82.4375 382.98633 L 84.630859 382.79297 L 86.072266 382.14648 L 86.652344 381.58203 L 87.076172 380.86133 L 87.335938 380.00781 L 87.423828 379.04102 L 87.316406 377.94336 L 87.003906 376.99609 L 86.5 376.22656 L 85.816406 375.66211 L 84.353516 375.11523 L 82.21875 374.94922 L 78.492188 374.94922 z M 79.84375 376.17383 L 81.761719 376.17383 L 83.671875 376.27148 L 84.830078 376.57617 L 85.353516 376.96094 L 85.736328 377.50781 L 85.972656 378.20508 L 86.054688 379.04102 L 85.757812 380.41992 L 85.40625 380.9375 L 84.939453 381.30664 L 83.896484 381.6582 L 82.345703 381.76367 L 79.84375 381.76367 L 79.84375 376.17383 z "
       transform="scale(0.26458333)"
       id="path1242" />
    <path
       style="font-style:normal;font-variant:normal;font-weight:normal;font-stretch:normal;font-size:3.88055563px;line-height:1.25;font-family:'URW Gothic L';-inkscape-font-specification:'URW Gothic L';letter-spacing:1.32291663px;word-spacing:0px;fill:#000000;fill-opacity:1;stroke:none;stroke-width:1.24543655"
       d="M 109.96094 378.21875 L 108.9043 378.32422 L 107.92578 378.62305 L 107.04297 379.0957 L 106.2793 379.72461 L 105.65039 380.49023 L 105.17578 381.37109 L 104.87695 382.35156 L 104.77344 383.4082 L 104.87891 384.48438 L 105.18164 385.48047 L 105.66406 386.37891 L 106.30273 387.15625 L 107.08203 387.79688 L 107.98047 388.27734 L 108.97656 388.58008 L 110.05273 388.68555 L 110.99414 388.59961 L 111.88867 388.3418 L 112.71484 387.92383 L 113.45117 387.35352 L 114.3457 386.3125 L 114.91211 385.16211 L 113.50586 385.16211 L 112.93359 386.0957 L 112.11719 386.81641 L 111.12109 387.28125 L 110.01562 387.44531 L 108.56055 387.16797 L 107.3457 386.41211 L 106.49219 385.28711 L 106.125 383.90039 L 115.16797 383.90039 L 115.01367 382.17188 L 114.49219 380.8125 L 113.67383 379.73828 L 112.60352 378.91992 L 111.3457 378.40234 L 109.96094 378.21875 z M 109.94336 379.46289 L 111.30078 379.68359 L 112.43359 380.32227 L 113.29102 381.33398 L 113.81641 382.67578 L 106.16211 382.67578 L 106.64062 381.36523 L 107.47656 380.34961 L 108.60156 379.69531 L 109.94336 379.46289 z "
       transform="scale(0.26458333)"
       id="path1250" />
    <path
       style="font-style:normal;font-variant:normal;font-weight:normal;font-stretch:normal;font-size:3.88055563px;line-height:1.25;font-family:'URW Gothic L';-inkscape-font-specification:'URW Gothic L';letter-spacing:1.32291663px;word-spacing:0px;fill:#000000;fill-opacity:1;stroke:none;stroke-width:1.24543655"
       d="M 151.51172 378.21875 L 150.45508 378.32422 L 149.47656 378.62109 L 148.59375 379.0957 L 147.82812 379.72461 L 147.19922 380.49023 L 146.72656 381.37109 L 146.42773 382.35156 L 146.32422 383.4082 L 146.42969 384.48438 L 146.73242 385.48047 L 147.21484 386.37891 L 147.85352 387.15625 L 148.63281 387.79688 L 149.5293 388.27734 L 150.52734 388.58008 L 151.60352 388.68555 L 152.54492 388.59961 L 153.43945 388.3418 L 154.26367 387.92383 L 155 387.35352 L 155.89648 386.3125 L 156.46094 385.16016 L 155.05469 385.16016 L 154.48438 386.0957 L 153.66797 386.81641 L 152.67188 387.2793 L 151.56641 387.44336 L 150.11133 387.16797 L 148.89453 386.41211 L 148.04297 385.28711 L 147.67578 383.90039 L 156.7168 383.90039 L 156.56445 382.17188 L 156.04102 380.8125 L 155.22266 379.73828 L 154.1543 378.91992 L 152.89453 378.40039 L 151.51172 378.21875 z M 151.49414 379.46094 L 152.85156 379.68359 L 153.98438 380.32227 L 154.83984 381.33398 L 155.36523 382.67578 L 147.71289 382.67578 L 148.18945 381.36523 L 149.02734 380.34961 L 150.15234 379.69336 L 151.49414 379.46094 z "
       transform="scale(0.26458333)"
       id="path1258" />
    <path
       style="font-style:normal;font-variant:normal;font-weight:normal;font-stretch:normal;font-size:3.88055563px;line-height:1.25;font-family:'URW Gothic L';-inkscape-font-specification:'URW Gothic L';letter-spacing:1.32291663px;word-spacing:0px;fill:#000000;fill-opacity:1;stroke:none;stroke-width:1.24543655"
       d="M 178.54102 358.35938 L 177.45312 358.46289 L 176.45508 358.75977 L 175.55859 359.23438 L 174.78711 359.86719 L 174.1543 360.63867 L 173.67969 361.5332 L 173.38281 362.5332 L 173.2793 363.61914 L 173.38281 364.69922 L 173.68359 365.68945 L 174.16406 366.57617 L 174.80469 367.33984 L 175.58984 367.96289 L 176.5 368.43164 L 177.51953 368.72461 L 178.63086 368.82617 L 179.80078 368.71484 L 180.79883 368.36523 L 181.67578 367.74609 L 182.48633 366.83398 L 182.48633 368.58789 L 183.83789 368.58789 L 183.83789 358.59766 L 183.83789 358.5957 L 182.48633 358.5957 L 182.48633 360.36914 L 181.69727 359.46875 L 180.79297 358.84375 L 179.75 358.47852 L 178.54102 358.35938 z M 178.57617 359.60156 L 180.11133 359.9043 L 181.35352 360.73828 L 182.18359 361.99023 L 182.48633 363.54688 L 182.18945 365.13281 L 181.37695 366.41406 L 180.1582 367.27148 L 178.65039 367.58398 L 177.06836 367.27148 L 175.80078 366.41211 L 174.95508 365.125 L 174.64844 363.5293 L 174.95703 361.99805 L 175.79883 360.75 L 177.04688 359.91016 L 178.57617 359.60156 z "
       transform="scale(0.26458333)"
       id="path1214" />
    <path
       style="font-style:normal;font-variant:normal;font-weight:normal;font-stretch:normal;font-size:3.88055563px;line-height:1.25;font-family:'URW Gothic L';-inkscape-font-specification:'URW Gothic L';letter-spacing:1.32291663px;word-spacing:0px;fill:#000000;fill-opacity:1;stroke:none;stroke-width:1.24543655"
       d="M 154.98438 355.08984 L 154.98438 368.58789 L 156.33594 368.58789 L 156.33594 366.87109 L 157.07031 367.70117 L 157.99023 368.31445 L 159.05859 368.69531 L 160.24609 368.82617 L 161.33789 368.72266 L 162.3418 368.42773 L 163.24023 367.95703 L 164.01562 367.32812 L 164.64844 366.55859 L 165.12305 365.66602 L 165.42188 364.66797 L 165.52344 363.58398 L 165.41992 362.51367 L 165.11914 361.52734 L 164.64062 360.63867 L 164.00391 359.86914 L 163.22852 359.23633 L 162.33398 358.76172 L 161.33984 358.46289 L 160.26367 358.35938 L 159.0625 358.48828 L 157.99219 358.86328 L 157.07617 359.47656 L 156.33594 360.31445 L 156.33594 355.08984 L 154.98438 355.08984 z M 160.22656 359.60156 L 161.78906 359.90234 L 163.0332 360.73242 L 163.85742 361.98242 L 164.1543 363.54688 L 163.85352 365.14844 L 163.02344 366.42773 L 161.77344 367.27734 L 160.20898 367.58398 L 158.67969 367.29102 L 157.39648 366.39648 L 156.52539 365.0957 L 156.24414 363.54688 L 156.55469 361.99805 L 157.40039 360.74609 L 158.66406 359.90625 L 160.22656 359.60156 z "
       transform="scale(0.26458333)"
       id="path1210" />
    <path
       style="font-style:normal;font-variant:normal;font-weight:normal;font-stretch:normal;font-size:3.88055563px;line-height:1.25;font-family:'URW Gothic L';-inkscape-font-specification:'URW Gothic L';letter-spacing:1.32291663px;word-spacing:0px;fill:#000000;fill-opacity:1;stroke:none;stroke-width:1.24543655"
       d="M 196.64844 378.21875 L 195.57422 378.32227 L 194.58203 378.61719 L 193.68945 379.08398 L 192.91797 379.70898 L 192.28516 380.46875 L 191.80859 381.34766 L 191.50977 382.32812 L 191.40625 383.38867 L 191.50977 384.49805 L 191.80664 385.51172 L 192.28125 386.41406 L 192.91797 387.18945 L 193.70117 387.82031 L 194.61133 388.29102 L 195.63672 388.58398 L 196.75781 388.68555 L 197.81641 388.58594 L 198.78516 388.29492 L 199.65039 387.82812 L 200.39258 387.20703 L 201 386.44336 L 201.45312 385.55664 L 201.73828 384.56445 L 201.83594 383.48047 L 201.73633 382.37891 L 201.44727 381.37109 L 200.98438 380.47461 L 200.36523 379.70508 L 199.60742 379.08008 L 198.72266 378.61328 L 197.73242 378.32031 L 196.64844 378.21875 z M 196.64844 379.46094 L 198.16992 379.76562 L 199.37891 380.60938 L 200.17773 381.88867 L 200.4668 383.49805 L 200.1875 385.07812 L 199.41016 386.32812 L 198.22461 387.14844 L 196.72266 387.44531 L 195.13477 387.14453 L 193.88672 386.3125 L 193.06836 385.04102 L 192.77539 383.42578 L 193.07031 381.85156 L 193.88281 380.59375 L 195.11133 379.76367 L 196.64844 379.46289 L 196.64844 379.46094 z "
       transform="scale(0.26458333)"
       id="path1266" />
    <path
       style="font-style:normal;font-variant:normal;font-weight:normal;font-stretch:normal;font-size:3.88055563px;line-height:1.25;font-family:'URW Gothic L';-inkscape-font-specification:'URW Gothic L';letter-spacing:1.32291663px;word-spacing:0px;fill:#000000;fill-opacity:1;stroke:none;stroke-width:1.24543655"
       d="M 211.10156 355.08984 L 211.10156 360.18555 L 210.29297 359.40039 L 209.35742 358.82812 L 208.3125 358.47852 L 207.17578 358.35938 L 206.08203 358.46289 L 205.07227 358.75977 L 204.16797 359.23242 L 203.38672 359.86328 L 202.74609 360.63477 L 202.26562 361.52734 L 201.96484 362.52148 L 201.85938 363.60156 L 201.9668 364.67578 L 202.27539 365.66602 L 202.76758 366.55469 L 203.42383 367.32422 L 204.22461 367.95312 L 205.15039 368.42578 L 206.18359 368.72266 L 207.30273 368.82617 L 208.45703 368.70898 L 209.44922 368.34375 L 210.31836 367.70898 L 211.10156 366.7793 L 211.10156 368.58789 L 212.45312 368.58789 L 212.45312 355.08984 L 211.10156 355.08984 z M 207.13867 359.60156 L 208.69922 359.91211 L 209.97656 360.76172 L 210.83984 362.02148 L 211.15625 363.56445 L 210.84961 365.11719 L 210.01367 366.39648 L 208.77539 367.26367 L 207.26562 367.58398 L 205.67188 367.27344 L 204.39258 366.42188 L 203.53906 365.14062 L 203.23047 363.54688 L 203.53516 362.00586 L 204.36914 360.75195 L 205.61133 359.91016 L 207.13867 359.60156 z "
       transform="scale(0.26458333)"
       id="path1220" />
    <path
       style="font-style:normal;font-variant:normal;font-weight:normal;font-stretch:normal;font-size:3.88055563px;line-height:1.25;font-family:'URW Gothic L';-inkscape-font-specification:'URW Gothic L';letter-spacing:1.32291663px;word-spacing:0px;fill:#000000;fill-opacity:1;stroke:none;stroke-width:1.24543655"
       d="M 232.57031 378.21875 L 231.35742 378.34766 L 230.28516 378.72461 L 229.37305 379.33594 L 228.64258 380.17383 L 228.64258 378.45703 L 227.29102 378.45703 L 227.29102 391.95508 L 228.64258 391.95508 L 228.64258 386.73242 L 229.38672 387.57617 L 230.29297 388.1875 L 231.34766 388.56055 L 232.5332 388.68555 L 233.61719 388.58203 L 234.61719 388.2832 L 235.51758 387.80859 L 236.29883 387.17969 L 236.93945 386.41211 L 237.42188 385.52734 L 237.72461 384.54297 L 237.83008 383.48047 L 237.72656 382.39844 L 237.42773 381.40234 L 236.95117 380.50781 L 236.31641 379.73242 L 235.54297 379.09961 L 234.64844 378.62305 L 233.65039 378.32422 L 232.57031 378.21875 z M 232.51562 379.46094 L 234.08008 379.76562 L 235.33008 380.60742 L 236.16016 381.88086 L 236.46094 383.48047 L 236.16016 385.04688 L 235.33398 386.30469 L 234.08789 387.14062 L 232.5332 387.44336 L 230.94922 387.13672 L 229.6875 386.28906 L 228.85352 385.00977 L 228.55078 383.40625 L 228.85938 381.85742 L 229.70508 380.60547 L 230.96289 379.76758 L 232.51562 379.46094 z "
       transform="scale(0.26458333)"
       id="path1272" />
    <path
       inkscape:connector-curvature="0"
       id="path1288"
       d="m 88.114234,102.77705 h 0.357641 v -1.45473 l 0.03202,-0.35402 0.108139,-0.24527 0.12392,-0.13623 0.156997,-0.10179 0.183276,-0.0637 0.202758,-0.0221 0.36489,0.0755 0.277898,0.20963 0.134117,0.28393 0.03987,0.42168 v 1.38707 h 0.357641 v -1.38707 l -0.05256,-0.53586 -0.179425,-0.37274 -0.175798,-0.17429 -0.212049,-0.12898 -0.242856,-0.08 -0.268231,-0.0275 -0.248445,0.0254 -0.223979,0.0761 -0.200419,0.12687 -0.177763,0.17761 v -0.34314 h -0.357641 v 2.64364"
       style="font-style:normal;font-variant:normal;font-weight:normal;font-stretch:normal;font-size:3.88055563px;line-height:1.25;font-family:'URW Gothic L';-inkscape-font-specification:'URW Gothic L';letter-spacing:1.32291663px;word-spacing:0px;fill:#000000;fill-opacity:1;stroke:none;stroke-width:0.32952175" />
    <path
       inkscape:connector-curvature="0"
       id="path1286"
       d="m 85.503802,102.77705 h 0.357641 v -2.64364 h -0.357641 v 2.64364"
       style="font-style:normal;font-variant:normal;font-weight:normal;font-stretch:normal;font-size:3.88055563px;line-height:1.25;font-family:'URW Gothic L';-inkscape-font-specification:'URW Gothic L';letter-spacing:1.32291663px;word-spacing:0px;fill:#000000;fill-opacity:1;stroke:none;stroke-width:0.32952175" />
    <path
       inkscape:connector-curvature="0"
       id="path1284"
       d="m 85.503802,99.814428 h 0.357641 v -0.608955 h -0.357641 v 0.608955"
       style="font-style:normal;font-variant:normal;font-weight:normal;font-stretch:normal;font-size:3.88055563px;line-height:1.25;font-family:'URW Gothic L';-inkscape-font-specification:'URW Gothic L';letter-spacing:1.32291663px;word-spacing:0px;fill:#000000;fill-opacity:1;stroke:none;stroke-width:0.32952175" />
    <path
       inkscape:connector-curvature="0"
       id="path1282"
       d="m 82.537547,102.77705 h 0.35764 v -2.31983 h 0.594459 v -0.32381 h -0.594459 v -0.927937 h -0.35764 v 0.927937 h -0.570291 v 0.32381 h 0.570291 v 2.31983"
       style="font-style:normal;font-variant:normal;font-weight:normal;font-stretch:normal;font-size:3.88055563px;line-height:1.25;font-family:'URW Gothic L';-inkscape-font-specification:'URW Gothic L';letter-spacing:1.32291663px;word-spacing:0px;fill:#000000;fill-opacity:1;stroke:none;stroke-width:0.32952175" />
    <path
       inkscape:connector-curvature="0"
       id="path1280"
       d="m 79.112455,102.77705 h 0.357641 v -1.54172 l 0.04704,-0.32804 0.140836,-0.24467 0.234172,-0.1613 0.327058,-0.0779 v -0.3528 l -0.258414,0.0361 -0.206761,0.0823 -0.161449,0.13305 -0.122487,0.18834 v -0.37697 H 79.11245 v 2.64364"
       style="font-style:normal;font-variant:normal;font-weight:normal;font-stretch:normal;font-size:3.88055563px;line-height:1.25;font-family:'URW Gothic L';-inkscape-font-specification:'URW Gothic L';letter-spacing:1.32291663px;word-spacing:0px;fill:#000000;fill-opacity:1;stroke:none;stroke-width:0.32952175" />
    <path
       inkscape:connector-curvature="0"
       id="path1274"
       d="m 68.130293,102.77705 h 0.35764 v -3.180106 l 1.338737,3.180106 h 0.309311 l 1.34357,-3.180106 v 3.180106 h 0.35764 v -3.571577 h -0.555793 l -1.295237,3.039947 -1.300075,-3.039947 h -0.555793 v 3.571577"
       style="font-style:normal;font-variant:normal;font-weight:normal;font-stretch:normal;font-size:3.88055563px;line-height:1.25;font-family:'URW Gothic L';-inkscape-font-specification:'URW Gothic L';letter-spacing:1.32291663px;word-spacing:0px;fill:#000000;fill-opacity:1;stroke:none;stroke-width:0.32952175" />
    <path
       inkscape:connector-curvature="0"
       id="path1268"
       d="m 57.883724,100.13342 h -0.35764 v 1.35807 l -0.03806,0.40536 -0.12143,0.28576 -0.127923,0.13902 -0.156013,0.10323 -0.179577,0.0643 -0.198605,0.0221 -0.211596,-0.0222 -0.187128,-0.0648 -0.154503,-0.10467 -0.113724,-0.14182 -0.09364,-0.25856 -0.03202,-0.36006 v -1.42573 h -0.357644 v 1.42573 l 0.05135,0.50444 0.156465,0.35583 0.170589,0.18192 0.211821,0.13163 0.248974,0.08 0.28205,0.027 0.281069,-0.0278 0.23123,-0.0858 0.187732,-0.14741 0.150576,-0.21265 v 0.4108 h 0.35764 v -2.64364"
       style="font-style:normal;font-variant:normal;font-weight:normal;font-stretch:normal;font-size:3.88055563px;line-height:1.25;font-family:'URW Gothic L';-inkscape-font-specification:'URW Gothic L';letter-spacing:1.32291663px;word-spacing:0px;fill:#000000;fill-opacity:1;stroke:none;stroke-width:0.32952175" />
    <path
       inkscape:connector-curvature="0"
       id="path1262"
       d="m 46.922489,102.77707 h 1.836533 v -0.32381 h -1.478893 v -3.247787 h -0.35764 v 3.571577"
       style="font-style:normal;font-variant:normal;font-weight:normal;font-stretch:normal;font-size:3.88055563px;line-height:1.25;font-family:'URW Gothic L';-inkscape-font-specification:'URW Gothic L';letter-spacing:1.32291663px;word-spacing:0px;fill:#000000;fill-opacity:1;stroke:none;stroke-width:0.32952175" />
    <path
       inkscape:connector-curvature="0"
       id="path1260"
       d="m 43.452684,101.34648 v 0.30448 h 1.309741 v -0.30448 h -1.309741"
       style="font-style:normal;font-variant:normal;font-weight:normal;font-stretch:normal;font-size:3.88055563px;line-height:1.25;font-family:'URW Gothic L';-inkscape-font-specification:'URW Gothic L';letter-spacing:1.32291663px;word-spacing:0px;fill:#000000;fill-opacity:1;stroke:none;stroke-width:0.32952175" />
    <path
       inkscape:connector-curvature="0"
       id="path1254"
       d="m 35.715122,102.77706 h 0.357641 v -1.54172 l 0.04705,-0.32804 0.140836,-0.24467 0.234174,-0.1613 0.327057,-0.0779 v -0.35281 l -0.258414,0.0361 -0.206761,0.0823 -0.161452,0.13306 -0.122486,0.18833 v -0.37697 h -0.357641 v 2.64364"
       style="font-style:normal;font-variant:normal;font-weight:normal;font-stretch:normal;font-size:3.88055563px;line-height:1.25;font-family:'URW Gothic L';-inkscape-font-specification:'URW Gothic L';letter-spacing:1.32291663px;word-spacing:0px;fill:#000000;fill-opacity:1;stroke:none;stroke-width:0.32952175" />
    <path
       inkscape:connector-curvature="0"
       id="path1252"
       d="m 32.613841,102.77706 h 0.35764 v -1.54172 l 0.04705,-0.32804 0.140837,-0.24467 0.234174,-0.1613 0.327058,-0.0779 v -0.35281 l -0.258415,0.0361 -0.206761,0.0823 -0.161452,0.13306 -0.122487,0.18833 v -0.37697 h -0.35764 v 2.64364"
       style="font-style:normal;font-variant:normal;font-weight:normal;font-stretch:normal;font-size:3.88055563px;line-height:1.25;font-family:'URW Gothic L';-inkscape-font-specification:'URW Gothic L';letter-spacing:1.32291663px;word-spacing:0px;fill:#000000;fill-opacity:1;stroke:none;stroke-width:0.32952175" />
    <path
       inkscape:connector-curvature="0"
       id="path1246"
       d="m 25.212471,102.77709 h 0.357641 v -2.64365 h -0.357641 v 2.64365"
       style="font-style:normal;font-variant:normal;font-weight:normal;font-stretch:normal;font-size:3.88055563px;line-height:1.25;font-family:'URW Gothic L';-inkscape-font-specification:'URW Gothic L';letter-spacing:1.32291663px;word-spacing:0px;fill:#000000;fill-opacity:1;stroke:none;stroke-width:0.32952175" />
    <path
       inkscape:connector-curvature="0"
       id="path1244"
       d="m 25.212471,99.814464 h 0.357641 v -0.608956 h -0.357641 v 0.608956"
       style="font-style:normal;font-variant:normal;font-weight:normal;font-stretch:normal;font-size:3.88055563px;line-height:1.25;font-family:'URW Gothic L';-inkscape-font-specification:'URW Gothic L';letter-spacing:1.32291663px;word-spacing:0px;fill:#000000;fill-opacity:1;stroke:none;stroke-width:0.32952175" />
    <path
       inkscape:connector-curvature="0"
       id="path1238"
       d="m 81.486524,96.74427 0.06357,0.347523 0.173234,0.265059 0.267487,0.169004 0.346317,0.05935 0.325925,-0.06041 0.255242,-0.169155 0.166434,-0.259773 0.05951,-0.332267 -0.02825,-0.223979 -0.08533,-0.186826 -0.143329,-0.150578 -0.202229,-0.115236 -0.497799,-0.212652 -0.182447,-0.146802 -0.0592,-0.201173 0.02977,-0.149369 0.0814,-0.121278 0.121278,-0.08141 0.14937,-0.02975 0.155564,0.02507 0.117502,0.074 0.07763,0.121127 0.03595,0.166436 h 0.362473 l -0.0626,-0.291188 -0.155488,-0.225942 -0.232514,-0.146197 -0.29368,-0.05196 -0.298513,0.05581 -0.237347,0.155033 -0.156693,0.235684 -0.05656,0.297756 0.05014,0.26219 0.14801,0.211443 0.14619,0.108137 0.34194,0.148011 0.343144,0.164323 0.124449,0.144384 0.0447,0.198758 -0.03345,0.18388 -0.09281,0.145366 -0.140835,0.09553 -0.177536,0.03436 -0.199438,-0.03451 -0.152766,-0.100208 -0.101116,-0.160924 -0.04448,-0.216654 h -0.352809"
       style="font-style:normal;font-variant:normal;font-weight:normal;font-stretch:normal;font-size:3.88055563px;line-height:1.25;font-family:'URW Gothic L';-inkscape-font-specification:'URW Gothic L';letter-spacing:1.32291663px;word-spacing:0px;fill:#000000;fill-opacity:1;stroke:none;stroke-width:0.32952175" />
    <path
       inkscape:connector-curvature="0"
       id="path1236"
       d="m 77.960478,96.744269 0.06357,0.347522 0.173235,0.26506 0.267483,0.169003 0.346321,0.05936 0.325921,-0.06041 0.255243,-0.169154 0.166434,-0.259773 0.05951,-0.332268 -0.02825,-0.223979 -0.08533,-0.186825 -0.143329,-0.150578 -0.202229,-0.115237 -0.497795,-0.212651 -0.182447,-0.146803 -0.0592,-0.201172 0.02977,-0.14937 0.0814,-0.121277 0.121278,-0.08141 0.14937,-0.02975 0.15556,0.02507 0.117503,0.074 0.07763,0.121126 0.03595,0.166436 h 0.362473 l -0.0626,-0.291187 -0.155487,-0.225942 -0.232517,-0.146198 -0.293681,-0.05195 -0.298512,0.05581 -0.237344,0.155033 -0.156693,0.235683 -0.05656,0.297757 0.05014,0.26219 0.148006,0.211443 0.146199,0.108136 0.341935,0.148012 0.34314,0.164322 0.124452,0.144384 0.0447,0.198759 -0.03345,0.183879 -0.09281,0.145367 -0.140836,0.09553 -0.177535,0.03436 -0.199438,-0.03451 -0.152766,-0.100208 -0.101116,-0.160923 -0.04448,-0.216655 h -0.352808"
       style="font-style:normal;font-variant:normal;font-weight:normal;font-stretch:normal;font-size:3.88055563px;line-height:1.25;font-family:'URW Gothic L';-inkscape-font-specification:'URW Gothic L';letter-spacing:1.32291663px;word-spacing:0px;fill:#000000;fill-opacity:1;stroke:none;stroke-width:0.32952175" />
    <path
       inkscape:connector-curvature="0"
       id="path1234"
       d="m 75.567544,97.522379 h 0.357641 v -2.64364 h -0.357641 v 2.64364"
       style="font-style:normal;font-variant:normal;font-weight:normal;font-stretch:normal;font-size:3.88055563px;line-height:1.25;font-family:'URW Gothic L';-inkscape-font-specification:'URW Gothic L';letter-spacing:1.32291663px;word-spacing:0px;fill:#000000;fill-opacity:1;stroke:none;stroke-width:0.32952175" />
    <path
       inkscape:connector-curvature="0"
       id="path1232"
       d="m 75.567544,94.559758 h 0.357641 v -0.608957 h -0.357641 v 0.608957"
       style="font-style:normal;font-variant:normal;font-weight:normal;font-stretch:normal;font-size:3.88055563px;line-height:1.25;font-family:'URW Gothic L';-inkscape-font-specification:'URW Gothic L';letter-spacing:1.32291663px;word-spacing:0px;fill:#000000;fill-opacity:1;stroke:none;stroke-width:0.32952175" />
    <path
       inkscape:connector-curvature="0"
       id="path1230"
       d="m 71.494002,97.522379 h 0.357641 v -0.546128 l 0.415635,-0.512296 0.879604,1.058424 h 0.444636 l -1.097089,-1.314572 1.029427,-1.329072 h -0.439801 l -1.232412,1.604551 v -2.532485 h -0.357641 v 3.571578"
       style="font-style:normal;font-variant:normal;font-weight:normal;font-stretch:normal;font-size:3.88055563px;line-height:1.25;font-family:'URW Gothic L';-inkscape-font-specification:'URW Gothic L';letter-spacing:1.32291663px;word-spacing:0px;fill:#000000;fill-opacity:1;stroke:none;stroke-width:0.32952175" />
    <path
       inkscape:connector-curvature="0"
       id="path1216"
       d="m 50.899735,97.522346 h 0.35764 v -3.571578 h -0.35764 v 3.571578"
       style="font-style:normal;font-variant:normal;font-weight:normal;font-stretch:normal;font-size:3.88055563px;line-height:1.25;font-family:'URW Gothic L';-inkscape-font-specification:'URW Gothic L';letter-spacing:1.32291663px;word-spacing:0px;fill:#000000;fill-opacity:1;stroke:none;stroke-width:0.32952175" />
    <path
       inkscape:connector-curvature="0"
       id="path1206"
       d="m 38.395926,97.522347 h 0.357641 v -2.643645 h -0.357641 v 2.643645"
       style="font-style:normal;font-variant:normal;font-weight:normal;font-stretch:normal;font-size:3.88055563px;line-height:1.25;font-family:'URW Gothic L';-inkscape-font-specification:'URW Gothic L';letter-spacing:1.32291663px;word-spacing:0px;fill:#000000;fill-opacity:1;stroke:none;stroke-width:0.32952175" />
    <path
       inkscape:connector-curvature="0"
       id="path1204"
       d="m 38.395926,94.559725 h 0.357641 v -0.608957 h -0.357641 v 0.608957"
       style="font-style:normal;font-variant:normal;font-weight:normal;font-stretch:normal;font-size:3.88055563px;line-height:1.25;font-family:'URW Gothic L';-inkscape-font-specification:'URW Gothic L';letter-spacing:1.32291663px;word-spacing:0px;fill:#000000;fill-opacity:1;stroke:none;stroke-width:0.32952175" />
    <path
       inkscape:connector-curvature="0"
       id="path1202"
       d="m 33.803215,97.522347 h 0.35764 v -1.449898 l 0.03263,-0.352203 0.112366,-0.247087 0.126564,-0.139023 0.157374,-0.103229 0.37818,-0.08639 0.362475,0.07793 0.27548,0.212046 0.136532,0.27548 0.04229,0.391473 v 1.420898 h 0.357641 v -1.420898 l -0.05558,-0.508068 -0.171571,-0.366703 -0.172629,-0.17429 -0.215219,-0.128981 -0.249654,-0.08005 -0.275933,-0.02749 -0.259169,0.02673 -0.230172,0.07838 -0.195736,0.127319 -0.155864,0.173534 v -1.271076 h -0.35764 v 3.571578"
       style="font-style:normal;font-variant:normal;font-weight:normal;font-stretch:normal;font-size:3.88055563px;line-height:1.25;font-family:'URW Gothic L';-inkscape-font-specification:'URW Gothic L';letter-spacing:1.32291663px;word-spacing:0px;fill:#000000;fill-opacity:1;stroke:none;stroke-width:0.32952175" />
    <path
       inkscape:connector-curvature="0"
       id="path1200"
       d="m 31.259164,96.744233 -0.2051,0.235005 -0.210537,0.158884 -0.228661,0.09001 -0.259471,0.02839 -0.41692,-0.08239 -0.33763,-0.225111 -0.226168,-0.33476 -0.08254,-0.411332 0.08095,-0.416166 0.222317,-0.335967 0.332872,-0.224507 0.412616,-0.08178 0.280087,0.03489 0.24973,0.102852 0.214388,0.168097 0.174063,0.230624 h 0.401138 l -0.211519,-0.359454 -0.30259,-0.27246 -0.374179,-0.172779 -0.426284,-0.06041 -0.288413,0.02767 -0.26723,0.07949 -0.240725,0.126045 -0.208894,0.167333 -0.171741,0.203353 -0.129264,0.234107 -0.08146,0.259594 -0.02834,0.279813 0.02858,0.285987 0.08227,0.263841 0.130755,0.236769 0.174025,0.20477 0.212085,0.167842 0.244935,0.125988 0.272573,0.07921 0.295001,0.0275 0.470612,-0.07733 0.408992,-0.222318 0.216879,-0.218088 0.198757,-0.323207 h -0.405971"
       style="font-style:normal;font-variant:normal;font-weight:normal;font-stretch:normal;font-size:3.88055563px;line-height:1.25;font-family:'URW Gothic L';-inkscape-font-specification:'URW Gothic L';letter-spacing:1.32291663px;word-spacing:0px;fill:#000000;fill-opacity:1;stroke:none;stroke-width:0.32952175" />
    <path
       inkscape:connector-curvature="0"
       id="path1198"
       d="m 25.929874,97.522345 h 0.35764 v -1.541722 l 0.04705,-0.32804 0.140836,-0.24467 0.234174,-0.161301 0.327057,-0.07793 v -0.352808 l -0.258414,0.0361 -0.206762,0.08231 -0.161451,0.133059 -0.122487,0.188335 v -0.376972 h -0.35764 v 2.643644"
       style="font-style:normal;font-variant:normal;font-weight:normal;font-stretch:normal;font-size:3.88055563px;line-height:1.25;font-family:'URW Gothic L';-inkscape-font-specification:'URW Gothic L';letter-spacing:1.32291663px;word-spacing:0px;fill:#000000;fill-opacity:1;stroke:none;stroke-width:0.32952175" />
  </g>
</svg>
