G04 #@! TF.FileFunction,Other,Fab,Bot*
%FSLAX46Y46*%
G04 Gerber Fmt 4.6, Leading zero omitted, Abs format (unit mm)*
G04 Created by KiCad (PCBNEW 4.0.7-e2-6376~58~ubuntu16.04.1) date Fri Nov  3 12:19:54 2017*
%MOMM*%
%LPD*%
G01*
G04 APERTURE LIST*
%ADD10C,0.100000*%
%ADD11C,0.150000*%
G04 APERTURE END LIST*
D10*
D11*
X48020239Y-6127381D02*
X48020239Y-5127381D01*
X47782144Y-5127381D01*
X47639286Y-5175000D01*
X47544048Y-5270238D01*
X47496429Y-5365476D01*
X47448810Y-5555952D01*
X47448810Y-5698810D01*
X47496429Y-5889286D01*
X47544048Y-5984524D01*
X47639286Y-6079762D01*
X47782144Y-6127381D01*
X48020239Y-6127381D01*
X47020239Y-6127381D02*
X47020239Y-5460714D01*
X47020239Y-5127381D02*
X47067858Y-5175000D01*
X47020239Y-5222619D01*
X46972620Y-5175000D01*
X47020239Y-5127381D01*
X47020239Y-5222619D01*
X46591668Y-6079762D02*
X46496430Y-6127381D01*
X46305954Y-6127381D01*
X46210715Y-6079762D01*
X46163096Y-5984524D01*
X46163096Y-5936905D01*
X46210715Y-5841667D01*
X46305954Y-5794048D01*
X46448811Y-5794048D01*
X46544049Y-5746429D01*
X46591668Y-5651190D01*
X46591668Y-5603571D01*
X46544049Y-5508333D01*
X46448811Y-5460714D01*
X46305954Y-5460714D01*
X46210715Y-5508333D01*
X45734525Y-5460714D02*
X45734525Y-6460714D01*
X45734525Y-5508333D02*
X45639287Y-5460714D01*
X45448810Y-5460714D01*
X45353572Y-5508333D01*
X45305953Y-5555952D01*
X45258334Y-5651190D01*
X45258334Y-5936905D01*
X45305953Y-6032143D01*
X45353572Y-6079762D01*
X45448810Y-6127381D01*
X45639287Y-6127381D01*
X45734525Y-6079762D01*
X44686906Y-6127381D02*
X44782144Y-6079762D01*
X44829763Y-5984524D01*
X44829763Y-5127381D01*
X43877381Y-6127381D02*
X43877381Y-5603571D01*
X43925000Y-5508333D01*
X44020238Y-5460714D01*
X44210715Y-5460714D01*
X44305953Y-5508333D01*
X43877381Y-6079762D02*
X43972619Y-6127381D01*
X44210715Y-6127381D01*
X44305953Y-6079762D01*
X44353572Y-5984524D01*
X44353572Y-5889286D01*
X44305953Y-5794048D01*
X44210715Y-5746429D01*
X43972619Y-5746429D01*
X43877381Y-5698810D01*
X43496429Y-5460714D02*
X43258334Y-6127381D01*
X43020238Y-5460714D02*
X43258334Y-6127381D01*
X43353572Y-6365476D01*
X43401191Y-6413095D01*
X43496429Y-6460714D01*
X41877381Y-5746429D02*
X41115476Y-5746429D01*
X39925000Y-6079762D02*
X39829762Y-6127381D01*
X39639286Y-6127381D01*
X39544047Y-6079762D01*
X39496428Y-5984524D01*
X39496428Y-5936905D01*
X39544047Y-5841667D01*
X39639286Y-5794048D01*
X39782143Y-5794048D01*
X39877381Y-5746429D01*
X39925000Y-5651190D01*
X39925000Y-5603571D01*
X39877381Y-5508333D01*
X39782143Y-5460714D01*
X39639286Y-5460714D01*
X39544047Y-5508333D01*
X38686904Y-6079762D02*
X38782142Y-6127381D01*
X38972619Y-6127381D01*
X39067857Y-6079762D01*
X39115476Y-5984524D01*
X39115476Y-5603571D01*
X39067857Y-5508333D01*
X38972619Y-5460714D01*
X38782142Y-5460714D01*
X38686904Y-5508333D01*
X38639285Y-5603571D01*
X38639285Y-5698810D01*
X39115476Y-5794048D01*
X37782142Y-6079762D02*
X37877380Y-6127381D01*
X38067857Y-6127381D01*
X38163095Y-6079762D01*
X38210714Y-6032143D01*
X38258333Y-5936905D01*
X38258333Y-5651190D01*
X38210714Y-5555952D01*
X38163095Y-5508333D01*
X38067857Y-5460714D01*
X37877380Y-5460714D01*
X37782142Y-5508333D01*
X37210714Y-6127381D02*
X37305952Y-6079762D01*
X37353571Y-6032143D01*
X37401190Y-5936905D01*
X37401190Y-5651190D01*
X37353571Y-5555952D01*
X37305952Y-5508333D01*
X37210714Y-5460714D01*
X37067856Y-5460714D01*
X36972618Y-5508333D01*
X36924999Y-5555952D01*
X36877380Y-5651190D01*
X36877380Y-5936905D01*
X36924999Y-6032143D01*
X36972618Y-6079762D01*
X37067856Y-6127381D01*
X37210714Y-6127381D01*
X36448809Y-5460714D02*
X36448809Y-6127381D01*
X36448809Y-5555952D02*
X36401190Y-5508333D01*
X36305952Y-5460714D01*
X36163094Y-5460714D01*
X36067856Y-5508333D01*
X36020237Y-5603571D01*
X36020237Y-6127381D01*
X35115475Y-6127381D02*
X35115475Y-5127381D01*
X35115475Y-6079762D02*
X35210713Y-6127381D01*
X35401190Y-6127381D01*
X35496428Y-6079762D01*
X35544047Y-6032143D01*
X35591666Y-5936905D01*
X35591666Y-5651190D01*
X35544047Y-5555952D01*
X35496428Y-5508333D01*
X35401190Y-5460714D01*
X35210713Y-5460714D01*
X35115475Y-5508333D01*
X34210713Y-6127381D02*
X34210713Y-5603571D01*
X34258332Y-5508333D01*
X34353570Y-5460714D01*
X34544047Y-5460714D01*
X34639285Y-5508333D01*
X34210713Y-6079762D02*
X34305951Y-6127381D01*
X34544047Y-6127381D01*
X34639285Y-6079762D01*
X34686904Y-5984524D01*
X34686904Y-5889286D01*
X34639285Y-5794048D01*
X34544047Y-5746429D01*
X34305951Y-5746429D01*
X34210713Y-5698810D01*
X33734523Y-6127381D02*
X33734523Y-5460714D01*
X33734523Y-5651190D02*
X33686904Y-5555952D01*
X33639285Y-5508333D01*
X33544047Y-5460714D01*
X33448808Y-5460714D01*
X33210713Y-5460714D02*
X32972618Y-6127381D01*
X32734522Y-5460714D02*
X32972618Y-6127381D01*
X33067856Y-6365476D01*
X33115475Y-6413095D01*
X33210713Y-6460714D01*
M02*
