G04 #@! TF.FileFunction,Legend,Bot*
%FSLAX46Y46*%
G04 Gerber Fmt 4.6, Leading zero omitted, Abs format (unit mm)*
G04 Created by KiCad (PCBNEW 4.0.7-e2-6376~58~ubuntu16.04.1) date Thu Nov  2 15:42:12 2017*
%MOMM*%
%LPD*%
G01*
G04 APERTURE LIST*
%ADD10C,0.100000*%
%ADD11C,0.200000*%
%ADD12C,0.071903*%
%ADD13C,0.106667*%
%ADD14C,0.150000*%
%ADD15C,2.400000*%
%ADD16C,3.900000*%
%ADD17R,2.200000X2.600000*%
%ADD18R,1.000000X1.700000*%
%ADD19R,2.100000X2.100000*%
%ADD20O,2.100000X2.100000*%
%ADD21C,1.900000*%
%ADD22O,1.650000X1.350000*%
%ADD23O,1.400000X1.950000*%
%ADD24C,3.600000*%
%ADD25C,2.600000*%
%ADD26C,2.100000*%
%ADD27C,0.900000*%
%ADD28C,1.000000*%
G04 APERTURE END LIST*
D10*
D11*
X31456857Y80538857D02*
X30992571Y78538857D01*
X30028285Y80538857D01*
X28189000Y81538857D02*
X27903285Y81538857D01*
X27635428Y81396000D01*
X27510428Y81253143D01*
X27403285Y80967429D01*
X27331857Y80396000D01*
X27421143Y79681714D01*
X27635428Y79110286D01*
X27814000Y78824571D01*
X27974714Y78681714D01*
X28278285Y78538857D01*
X28564000Y78538857D01*
X28831857Y78681714D01*
X28956857Y78824571D01*
X29063999Y79110286D01*
X29135428Y79681714D01*
X29046142Y80396000D01*
X28831856Y80967429D01*
X28653285Y81253143D01*
X28492571Y81396000D01*
X28189000Y81538857D01*
X26242571Y78824571D02*
X26117571Y78681714D01*
X26278285Y78538857D01*
X26403285Y78681714D01*
X26242571Y78824571D01*
X26278285Y78538857D01*
X23278286Y78538857D02*
X24992571Y78538857D01*
X24135429Y78538857D02*
X23760429Y81538857D01*
X24099714Y81110286D01*
X24421143Y80824571D01*
X24724714Y80681714D01*
X98595619Y10907048D02*
X96908119Y8407048D01*
X96595619Y10907048D02*
X98908119Y8407048D01*
X95765261Y8407048D02*
X95452761Y10907048D01*
X91866452Y11026095D02*
X94839667Y7811810D01*
X91053952Y10668952D02*
X90896214Y10788000D01*
X90595619Y10907048D01*
X89881333Y10907048D01*
X89610500Y10788000D01*
X89482524Y10668952D01*
X89369429Y10430857D01*
X89399191Y10192762D01*
X89586691Y9835619D01*
X91479548Y8407048D01*
X89622405Y8407048D01*
X87452762Y10907048D02*
X87167047Y10907048D01*
X86896214Y10788000D01*
X86768238Y10668952D01*
X86655143Y10430857D01*
X86571810Y9954667D01*
X86646214Y9359429D01*
X86848595Y8883238D01*
X87021214Y8645143D01*
X87178952Y8526095D01*
X87479547Y8407048D01*
X87765262Y8407048D01*
X88036095Y8526095D01*
X88164071Y8645143D01*
X88277166Y8883238D01*
X88360499Y9359429D01*
X88286095Y9954667D01*
X88083714Y10430857D01*
X87911095Y10668952D01*
X87753357Y10788000D01*
X87452762Y10907048D01*
X83908119Y8407048D02*
X85622404Y8407048D01*
X84765262Y8407048D02*
X84452762Y10907048D01*
X84783119Y10549905D01*
X85098595Y10311810D01*
X85399190Y10192762D01*
X82595619Y10907048D02*
X80595619Y10907048D01*
X82193833Y8407048D01*
D10*
X50225000Y-12525000D02*
X30625000Y-12525000D01*
X50225000Y-6925000D02*
X30625000Y-6925000D01*
X30625000Y-7925000D02*
X50225000Y-7925000D01*
X31175000Y-7175000D02*
X31025000Y-7425000D01*
X31325000Y-7425000D02*
X31175000Y-7175000D01*
X31025000Y-7425000D02*
X31325000Y-7425000D01*
X50225000Y-7625000D02*
X50225000Y-6925000D01*
X49925000Y-7625000D02*
X50225000Y-7625000D01*
X49925000Y-7925000D02*
X49925000Y-7625000D01*
X30925000Y-7625000D02*
X30925000Y-7925000D01*
X30625000Y-7625000D02*
X30925000Y-7625000D01*
X30625000Y-6925000D02*
X30625000Y-7625000D01*
X50225000Y-7925000D02*
X50225000Y-12525000D01*
X30625000Y-12525000D02*
X30625000Y-7925000D01*
G36*
X91384584Y42759892D02*
X112906313Y42726121D01*
X115007341Y42522577D01*
X116945720Y41936072D01*
X118685239Y41002807D01*
X120189687Y39758978D01*
X121422850Y38240783D01*
X122348515Y36484420D01*
X122930470Y34526085D01*
X123132502Y32401977D01*
X122922347Y30323535D01*
X122320379Y28383350D01*
X121369344Y26624222D01*
X120111984Y25088954D01*
X118591045Y23820349D01*
X116849272Y22861209D01*
X114929409Y22254337D01*
X112874201Y22042534D01*
X111231038Y22175786D01*
X109643310Y22565125D01*
X108166561Y23194922D01*
X106856333Y24049553D01*
X105713265Y25085018D01*
X104422221Y26613721D01*
X101726383Y26613721D01*
X100066174Y26613721D01*
X100098270Y27238313D01*
X99922521Y28793518D01*
X99407631Y30234609D01*
X98572130Y31533897D01*
X97434551Y32663694D01*
X94509106Y34473241D01*
X96201825Y36505181D01*
X97025113Y38222363D01*
X101824313Y38222363D01*
X104553865Y38222363D01*
X105824078Y39935773D01*
X107217594Y41081962D01*
X108490262Y41796657D01*
X109876981Y42310970D01*
X112906304Y42726121D01*
X112906309Y42726121D01*
X112906313Y42726121D01*
X91384584Y42759892D01*
X69358691Y42726121D01*
X72388016Y42310970D01*
X73774733Y41796657D01*
X75047399Y41081962D01*
X76440916Y39935773D01*
X77711125Y38222363D01*
X80440678Y38222363D01*
X85716745Y38222363D01*
X86421385Y36578762D01*
X87800842Y35195762D01*
X90332907Y33749106D01*
X85727984Y29211618D01*
X82177954Y36051556D01*
X79480517Y36051556D01*
X83952174Y27469529D01*
X83073895Y26613721D01*
X80538622Y26613721D01*
X77842790Y26613721D01*
X76552546Y25085018D01*
X75410271Y24049553D01*
X74100046Y23194922D01*
X72623303Y22565125D01*
X71035579Y22175786D01*
X69392414Y22042534D01*
X67337140Y22254337D01*
X65417095Y22861209D01*
X63675063Y23820349D01*
X62153827Y25088954D01*
X60896170Y26624222D01*
X59944874Y28383350D01*
X59342722Y30323535D01*
X59132498Y32401977D01*
X59334530Y34526085D01*
X59916485Y36484420D01*
X60842150Y38240783D01*
X62075313Y39758978D01*
X63579762Y41002807D01*
X65319282Y41936072D01*
X67257663Y42522577D01*
X69358691Y42726121D01*
X91384584Y42759892D01*
X92718295Y42516769D01*
X93792918Y41851187D01*
X94509938Y40858828D01*
X94770836Y39635378D01*
X94623083Y38706045D01*
X92765416Y32729524D01*
X95048223Y31437347D01*
X96575744Y30111234D01*
X97431218Y28655629D01*
X97697879Y26974982D01*
X97346100Y25146280D01*
X96378734Y23629006D01*
X94927738Y22550003D01*
X93125074Y22036108D01*
X92274093Y22036108D01*
X90765587Y22383956D01*
X89419542Y23280687D01*
X88160483Y24798280D01*
X86912933Y27008711D01*
X92765416Y32729524D01*
X94623083Y38706045D01*
X94154985Y37749108D01*
X92108721Y35492881D01*
X90216261Y36366347D01*
X88906281Y37326122D01*
X88145038Y38396871D01*
X87898788Y39603262D01*
X88165992Y40845602D01*
X88901816Y41847459D01*
X90007575Y42516374D01*
X91384584Y42759892D01*
X91384584Y42759892D01*
G37*
G36*
X43893577Y14626049D02*
X43883103Y14275475D01*
X43449847Y14189487D01*
X43099273Y13954117D01*
X42865009Y13601339D01*
X42779569Y13162021D01*
X42863355Y12713883D01*
X43093211Y12352286D01*
X43436619Y12110853D01*
X43862157Y12022659D01*
X44308641Y12110853D01*
X44666380Y12352836D01*
X44905055Y12716087D01*
X44991596Y13166982D01*
X44904505Y13599135D01*
X44667484Y13951360D01*
X44315256Y14188384D01*
X43883103Y14275475D01*
X43893577Y14626049D01*
X44200053Y14596833D01*
X44481722Y14513050D01*
X44734731Y14379104D01*
X44952460Y14200511D01*
X45131053Y13982229D01*
X45264999Y13729773D01*
X45348785Y13447551D01*
X45377998Y13141074D01*
X45348785Y12836805D01*
X45263898Y12557337D01*
X45128299Y12307085D01*
X44947499Y12091560D01*
X44725912Y11915172D01*
X44469045Y11783430D01*
X44181311Y11700750D01*
X43867669Y11672085D01*
X43537491Y11702955D01*
X43255819Y11802173D01*
X43008325Y11976357D01*
X42779569Y12233775D01*
X42779569Y11738783D01*
X42398129Y11738783D01*
X42398129Y14558801D01*
X42779569Y14558801D01*
X42779569Y14058847D01*
X43002262Y14312407D01*
X43257473Y14489349D01*
X43551822Y14592425D01*
X43893577Y14626049D01*
X43893577Y14626049D01*
G37*
G36*
X51869109Y20230804D02*
X51874070Y19880233D01*
X51490976Y19817394D01*
X51171272Y19637147D01*
X50929839Y19351617D01*
X50781563Y18972931D01*
X52941223Y18972931D01*
X52806727Y19342797D01*
X52570256Y19629431D01*
X52252756Y19814639D01*
X51874070Y19880233D01*
X51869109Y20230804D01*
X52167316Y20201591D01*
X52443476Y20117255D01*
X52692625Y19983860D01*
X52908703Y19806370D01*
X53086192Y19590292D01*
X53219587Y19341144D01*
X53303924Y19064986D01*
X53333137Y18766776D01*
X53303373Y18463057D01*
X53217933Y18181388D01*
X53081784Y17928379D01*
X52901537Y17708443D01*
X52681601Y17528196D01*
X52428595Y17392046D01*
X52146923Y17306609D01*
X51843204Y17276843D01*
X51577517Y17301648D01*
X51325061Y17374408D01*
X51092447Y17492368D01*
X50884639Y17653322D01*
X50631632Y17947121D01*
X50472329Y18271787D01*
X50869207Y18271787D01*
X51030161Y18008304D01*
X51260567Y17804907D01*
X51541689Y17673718D01*
X51853677Y17627417D01*
X52264330Y17705688D01*
X52607738Y17918459D01*
X52848067Y18236509D01*
X52951696Y18627319D01*
X50400122Y18627319D01*
X50443116Y19115146D01*
X50590843Y19498793D01*
X50821802Y19802512D01*
X51123317Y20032918D01*
X51478849Y20179541D01*
X51869109Y20230804D01*
X51869109Y20230804D01*
G37*
G36*
X58751583Y21153541D02*
X58370143Y20807929D01*
X57839322Y20807929D01*
X57117231Y20750051D01*
X56612316Y20560984D01*
X56319070Y20325063D01*
X56102442Y20020241D01*
X55967396Y19658093D01*
X55921095Y19251295D01*
X55957473Y18889148D01*
X56063306Y18559521D01*
X56234734Y18269583D01*
X56467900Y18029804D01*
X56715395Y17874361D01*
X57014152Y17768528D01*
X57382915Y17708443D01*
X57839322Y17689153D01*
X58370143Y17689153D01*
X58370143Y20807929D01*
X58751583Y21153541D01*
X58751583Y17344091D01*
X57725773Y17344091D01*
X56982182Y17412443D01*
X56681771Y17500637D01*
X56416084Y17627417D01*
X56034644Y17922317D01*
X55759037Y18292733D01*
X55591467Y18732052D01*
X55534690Y19235861D01*
X55590364Y19744084D01*
X55755179Y20188361D01*
X56026375Y20560984D01*
X56400649Y20854780D01*
X56682872Y20992584D01*
X57003679Y21085189D01*
X57854757Y21153541D01*
X58751583Y21153541D01*
X58751583Y21153541D01*
G37*
G36*
X100923962Y21153541D02*
X100707334Y20720835D01*
X99975320Y18972931D01*
X101454782Y18972931D01*
X100707334Y20720835D01*
X100923962Y21153541D01*
X102557764Y17344091D01*
X102155928Y17344091D01*
X101599200Y18627319D01*
X99825390Y18627319D01*
X99274174Y17344091D01*
X98856353Y17344091D01*
X100495667Y21153541D01*
X100923962Y21153541D01*
X100923962Y21153541D01*
G37*
G36*
X102222625Y15548783D02*
X101841184Y15203170D01*
X101299890Y15203170D01*
X100760802Y15175611D01*
X100433931Y15089621D01*
X100286205Y14981031D01*
X100178167Y14826692D01*
X100111470Y14629907D01*
X100088319Y14393986D01*
X100172104Y14004830D01*
X100271323Y13858757D01*
X100403063Y13754577D01*
X100697412Y13655359D01*
X101135077Y13625593D01*
X101841184Y13625593D01*
X101841184Y15203170D01*
X102222625Y15548783D01*
X102222625Y11738783D01*
X101841184Y11738783D01*
X101841184Y13280532D01*
X101109170Y13280532D01*
X100490155Y13335102D01*
X100083358Y13517556D01*
X99919647Y13676856D01*
X99800034Y13880254D01*
X99726722Y14121136D01*
X99701917Y14393986D01*
X99732234Y14703770D01*
X99820429Y14971110D01*
X99962642Y15188289D01*
X100155568Y15347589D01*
X100568428Y15501931D01*
X101170906Y15548783D01*
X102222625Y15548783D01*
X102222625Y15548783D01*
G37*
G36*
X93341444Y14626049D02*
X93346405Y14274925D01*
X92963311Y14212638D01*
X92643607Y14032388D01*
X92401621Y13746861D01*
X92253344Y13368176D01*
X94413558Y13368176D01*
X94278512Y13738042D01*
X94042591Y14024673D01*
X93725091Y14209331D01*
X93346405Y14274925D01*
X93341444Y14626049D01*
X93639651Y14596283D01*
X93915811Y14511946D01*
X94164960Y14378554D01*
X94380484Y14201061D01*
X94557977Y13984986D01*
X94691922Y13736388D01*
X94776259Y13459678D01*
X94805471Y13161470D01*
X94775705Y12857749D01*
X94690268Y12576630D01*
X94554119Y12323070D01*
X94373872Y12103688D01*
X94153936Y11922887D01*
X93900376Y11787291D01*
X93619258Y11701851D01*
X93315539Y11672085D01*
X93049852Y11696339D01*
X92797395Y11769099D01*
X92564232Y11887059D01*
X92356423Y12048014D01*
X92103967Y12341812D01*
X91944114Y12666478D01*
X92340989Y12666478D01*
X92502496Y12402998D01*
X92732902Y12199598D01*
X93014024Y12068410D01*
X93326012Y12022108D01*
X93736665Y12100380D01*
X94079523Y12313700D01*
X94320402Y12631200D01*
X94424031Y13022564D01*
X91871904Y13022564D01*
X91915451Y13510387D01*
X92062624Y13894035D01*
X92293584Y14197203D01*
X92595649Y14428163D01*
X92950634Y14574235D01*
X93341444Y14626049D01*
X93341444Y14626049D01*
G37*
G36*
X81614890Y14626049D02*
X81619852Y14275475D01*
X81236758Y14212638D01*
X80917051Y14032388D01*
X80675621Y13746861D01*
X80527344Y13368176D01*
X82687005Y13368176D01*
X82552509Y13738042D01*
X82316038Y14024673D01*
X81998538Y14209881D01*
X81619852Y14275475D01*
X81614890Y14626049D01*
X81913098Y14596283D01*
X82189258Y14512499D01*
X82438406Y14378554D01*
X82654484Y14201061D01*
X82831974Y13984986D01*
X82965369Y13736388D01*
X83049705Y13459678D01*
X83078918Y13161470D01*
X83049152Y12857749D01*
X82963715Y12576630D01*
X82827565Y12323070D01*
X82647316Y12103688D01*
X82427383Y11922887D01*
X82174373Y11787291D01*
X81892704Y11701851D01*
X81588982Y11672085D01*
X81323298Y11696339D01*
X81070842Y11769099D01*
X80838229Y11887059D01*
X80630420Y12048014D01*
X80377414Y12341812D01*
X80218111Y12667028D01*
X80614986Y12667028D01*
X80775940Y12402998D01*
X81006349Y12199598D01*
X81287467Y12068960D01*
X81599456Y12022659D01*
X82010112Y12100380D01*
X82353520Y12313700D01*
X82593849Y12631200D01*
X82697478Y13022564D01*
X80145901Y13022564D01*
X80188898Y13510387D01*
X80336621Y13894035D01*
X80567581Y14197203D01*
X80869096Y14428163D01*
X81224631Y14574786D01*
X81614890Y14626049D01*
X81614890Y14626049D01*
G37*
G36*
X73986621Y20230804D02*
X73976701Y19880233D01*
X73543445Y19794793D01*
X73192871Y19559426D01*
X72958607Y19206098D01*
X72873167Y18766776D01*
X72956953Y18319192D01*
X73186259Y17957594D01*
X73530217Y17715611D01*
X73955755Y17627417D01*
X74402239Y17715611D01*
X74759978Y17958145D01*
X74998653Y18321396D01*
X75085194Y18771738D01*
X74998103Y19203891D01*
X74760528Y19556118D01*
X74408301Y19793139D01*
X73976701Y19880233D01*
X73986621Y20230804D01*
X74293651Y20201591D01*
X74575320Y20117805D01*
X74828329Y19983860D01*
X75046058Y19805267D01*
X75224651Y19587538D01*
X75358597Y19335082D01*
X75442383Y19052859D01*
X75471596Y18746383D01*
X75442383Y18441560D01*
X75357496Y18162095D01*
X75221897Y17911843D01*
X75041097Y17696319D01*
X74819510Y17520480D01*
X74562643Y17388188D01*
X74274909Y17305506D01*
X73961267Y17276843D01*
X73631089Y17308263D01*
X73349417Y17406931D01*
X73101922Y17581666D01*
X72873167Y17839084D01*
X72873167Y17344091D01*
X72491727Y17344091D01*
X72491727Y20163556D01*
X72491727Y20164109D01*
X72873167Y20164109D01*
X72873167Y19663605D01*
X73095857Y19917715D01*
X73351071Y20094104D01*
X73645420Y20197180D01*
X73986621Y20230804D01*
X73986621Y20230804D01*
G37*
G36*
X80634829Y21153541D02*
X80279296Y18766776D01*
X80191652Y19203891D01*
X79952977Y19557221D01*
X79596341Y19794243D01*
X79155369Y19880233D01*
X78714397Y19795346D01*
X78363273Y19561079D01*
X78130660Y19208302D01*
X78046873Y18766776D01*
X78131760Y18314780D01*
X78366027Y17953736D01*
X78718805Y17713958D01*
X79160330Y17627417D01*
X79591930Y17710097D01*
X79954080Y17962556D01*
X80199921Y18329665D01*
X80279296Y18766776D01*
X80634829Y21153541D01*
X80634829Y17344091D01*
X80253388Y17344091D01*
X80253388Y17828610D01*
X80046133Y17594343D01*
X79786511Y17421262D01*
X79484996Y17313775D01*
X79149857Y17276843D01*
X78841727Y17306056D01*
X78558401Y17389292D01*
X78304844Y17522134D01*
X78086012Y17699626D01*
X77907416Y17916805D01*
X77773471Y18168708D01*
X77689134Y18450380D01*
X77660472Y18756306D01*
X77689687Y19058371D01*
X77774574Y19336735D01*
X77909623Y19587538D01*
X78089317Y19804716D01*
X78308149Y19983309D01*
X78560608Y20117255D01*
X78841177Y20201591D01*
X79144896Y20230804D01*
X79483892Y20194426D01*
X79785958Y20088592D01*
X80044479Y19915511D01*
X80253388Y19679040D01*
X80253388Y21153541D01*
X80634829Y21153541D01*
X80634829Y21153541D01*
G37*
G36*
X68876305Y14626049D02*
X68876305Y14275475D01*
X68446910Y14189487D01*
X68105706Y13951360D01*
X67880261Y13590316D01*
X67798679Y13136113D01*
X67877504Y12690182D01*
X68096886Y12337404D01*
X68431475Y12105892D01*
X68855359Y12022108D01*
X69303496Y12106995D01*
X69655724Y12341812D01*
X69886683Y12700652D01*
X69969366Y13156509D01*
X69886133Y13600789D01*
X69656827Y13955771D01*
X69310112Y14190038D01*
X68876305Y14274925D01*
X68876305Y14275475D01*
X68876305Y14626049D01*
X69179474Y14596833D01*
X69459492Y14513600D01*
X69711398Y14381861D01*
X69929127Y14205473D01*
X70107720Y13991049D01*
X70242218Y13743001D01*
X70326552Y13466293D01*
X70355768Y13166982D01*
X70326552Y12853891D01*
X70242769Y12567810D01*
X70108823Y12313150D01*
X69929127Y12094318D01*
X69708090Y11916275D01*
X69451223Y11783430D01*
X69161835Y11700750D01*
X68845438Y11672085D01*
X68546678Y11700197D01*
X68273275Y11782330D01*
X68029088Y11914071D01*
X67819626Y12089356D01*
X67648198Y12304881D01*
X67520318Y12555133D01*
X67439839Y12835151D01*
X67412277Y13141074D01*
X67440390Y13451959D01*
X67521969Y13736388D01*
X67652607Y13989395D01*
X67827344Y14206573D01*
X68041215Y14382962D01*
X68290914Y14514703D01*
X68570382Y14597386D01*
X68876305Y14626049D01*
X68876305Y14626049D01*
G37*
G36*
X64797314Y21153541D02*
X64781879Y18761818D01*
X64868419Y18323600D01*
X65104340Y17962556D01*
X65453810Y17717816D01*
X65879901Y17627417D01*
X66329690Y17715058D01*
X66690737Y17955387D01*
X66931619Y18316987D01*
X67018710Y18766776D01*
X66932720Y19201686D01*
X66697352Y19555568D01*
X66346778Y19793139D01*
X65915729Y19880233D01*
X65475307Y19792589D01*
X65114814Y19552810D01*
X64871177Y19197278D01*
X64781879Y18761818D01*
X64797314Y21153541D01*
X64797314Y19715418D01*
X65025516Y19937008D01*
X65289549Y20098515D01*
X65584448Y20197180D01*
X65905256Y20230804D01*
X66213936Y20201591D01*
X66498913Y20117805D01*
X66754127Y19984413D01*
X66974613Y19806370D01*
X67155413Y19588638D01*
X67291012Y19336735D01*
X67375899Y19056167D01*
X67405662Y18751344D01*
X67375346Y18448176D01*
X67288255Y18168708D01*
X67149348Y17917905D01*
X66964140Y17700727D01*
X66738142Y17523237D01*
X66476866Y17389842D01*
X66185274Y17306056D01*
X65869428Y17276843D01*
X65543659Y17309917D01*
X65263641Y17412993D01*
X65018350Y17592139D01*
X64797314Y17854516D01*
X64797314Y17344091D01*
X64415873Y17344091D01*
X64415873Y21153541D01*
X64797314Y21153541D01*
X64797314Y21153541D01*
G37*
G36*
X58738355Y14626049D02*
X58753790Y14275475D01*
X58312265Y14189487D01*
X57959487Y13951913D01*
X57725220Y13592520D01*
X57640333Y13141074D01*
X57725220Y12698999D01*
X57958386Y12344017D01*
X58310060Y12108099D01*
X58748829Y12022659D01*
X59195863Y12109199D01*
X59551948Y12348428D01*
X59787316Y12709472D01*
X59872756Y13162021D01*
X59785662Y13599135D01*
X59546987Y13952463D01*
X59192005Y14188934D01*
X58753790Y14275475D01*
X58738355Y14626049D01*
X59080660Y14589667D01*
X59383275Y14483284D01*
X59640693Y14310753D01*
X59846848Y14074282D01*
X59846848Y14558801D01*
X60228288Y14558801D01*
X60228288Y10749351D01*
X59846848Y10749351D01*
X59846848Y12223302D01*
X59636835Y11985177D01*
X59381071Y11812646D01*
X59083414Y11707363D01*
X58748829Y11672085D01*
X58442902Y11701301D01*
X58160680Y11785637D01*
X57906570Y11919583D01*
X57686084Y12097072D01*
X57505287Y12313700D01*
X57369134Y12563402D01*
X57283697Y12841213D01*
X57253931Y13141074D01*
X57283147Y13446447D01*
X57367483Y13727569D01*
X57501979Y13980025D01*
X57681123Y14198857D01*
X57899405Y14377450D01*
X58151861Y14511946D01*
X58433533Y14596283D01*
X58738355Y14626049D01*
X58738355Y14626049D01*
G37*
G36*
X30386348Y11738930D02*
X30004864Y11738930D01*
X30004864Y13290642D01*
X29970709Y13668263D01*
X29855361Y13929885D01*
X29723180Y14075197D01*
X29555716Y14183773D01*
X29360222Y14251719D01*
X29143947Y14275293D01*
X28754731Y14194759D01*
X28458306Y13971154D01*
X28315248Y13668295D01*
X28272720Y13218503D01*
X28272720Y11738962D01*
X27891236Y11738962D01*
X27891236Y13218503D01*
X27947300Y13790087D01*
X28138687Y14187677D01*
X28326205Y14373586D01*
X28552391Y14511165D01*
X28811437Y14596498D01*
X29097550Y14625831D01*
X29362558Y14598738D01*
X29601469Y14517565D01*
X29815249Y14382237D01*
X30004863Y14192786D01*
X30004863Y14558802D01*
X30386347Y14558802D01*
X30386347Y11738919D01*
X30386348Y11738930D01*
X30386348Y11738930D01*
G37*
G36*
X33170809Y11738930D02*
X32789325Y11738930D01*
X32789325Y14558813D01*
X33170809Y14558813D01*
X33170809Y11738930D01*
X33170809Y11738930D01*
G37*
G36*
X33170809Y14899060D02*
X32789325Y14899060D01*
X32789325Y15548612D01*
X33170809Y15548612D01*
X33170809Y14899060D01*
X33170809Y14899060D01*
G37*
G36*
X36334814Y11738930D02*
X35953331Y11738930D01*
X35953331Y14213415D01*
X35319242Y14213415D01*
X35319242Y14558813D01*
X35953331Y14558813D01*
X35953331Y15548612D01*
X36334814Y15548612D01*
X36334814Y14558813D01*
X36943124Y14558813D01*
X36943124Y14213415D01*
X36334814Y14213415D01*
X36334814Y11738930D01*
X36334814Y11738930D01*
G37*
G36*
X39988245Y11738930D02*
X39606762Y11738930D01*
X39606762Y13383431D01*
X39556586Y13733341D01*
X39406361Y13994322D01*
X39156577Y14166375D01*
X38807715Y14249469D01*
X38807715Y14625789D01*
X39083357Y14587282D01*
X39303902Y14499495D01*
X39476114Y14357575D01*
X39606767Y14156679D01*
X39606767Y14558781D01*
X39988251Y14558781D01*
X39988251Y11738898D01*
X39988245Y11738930D01*
X39988245Y11738930D01*
G37*
G36*
X51702552Y11738930D02*
X51321069Y11738930D01*
X51321069Y15131043D01*
X49893083Y11738930D01*
X49563151Y11738930D01*
X48130010Y15131043D01*
X48130010Y11738930D01*
X47748527Y11738930D01*
X47748527Y15548612D01*
X48341373Y15548612D01*
X49722959Y12306002D01*
X51109706Y15548612D01*
X51702552Y15548612D01*
X51702552Y11738930D01*
X51702552Y11738930D01*
G37*
G36*
X62632225Y14558802D02*
X63013708Y14558802D01*
X63013708Y13110194D01*
X63054305Y12677810D01*
X63183831Y12372999D01*
X63320282Y12224711D01*
X63486696Y12114599D01*
X63678244Y12046013D01*
X63890090Y12022439D01*
X64115792Y12046119D01*
X64315395Y12115239D01*
X64480199Y12226887D01*
X64601504Y12378162D01*
X64701387Y12653959D01*
X64735541Y13038023D01*
X64735541Y14558802D01*
X65117028Y14558802D01*
X65117028Y13038023D01*
X65062255Y12499954D01*
X64895359Y12120402D01*
X64713397Y11926354D01*
X64487455Y11785949D01*
X64221883Y11700615D01*
X63921029Y11671815D01*
X63621223Y11701469D01*
X63374577Y11792989D01*
X63174330Y11950226D01*
X63013715Y12177053D01*
X63013715Y11738866D01*
X62632233Y11738866D01*
X62632233Y14558749D01*
X62632225Y14558802D01*
X62632225Y14558802D01*
G37*
G36*
X74324209Y11738909D02*
X72365241Y11738909D01*
X72365241Y12084306D01*
X73942727Y12084306D01*
X73942727Y15548612D01*
X74324209Y15548612D01*
X74324209Y11738930D01*
X74324209Y11738909D01*
X74324209Y11738909D01*
G37*
G36*
X78025335Y13264871D02*
X78025335Y12940093D01*
X76628277Y12940093D01*
X76628277Y13264871D01*
X78025335Y13264871D01*
X78025335Y13264871D01*
G37*
G36*
X86278734Y11738919D02*
X85897250Y11738919D01*
X85897250Y13383421D01*
X85847064Y13733330D01*
X85696839Y13994311D01*
X85447053Y14166365D01*
X85098192Y14249458D01*
X85098192Y14625789D01*
X85373834Y14587282D01*
X85594379Y14499495D01*
X85766594Y14357565D01*
X85897246Y14156679D01*
X85897246Y14558781D01*
X86278730Y14558781D01*
X86278730Y11738898D01*
X86278734Y11738919D01*
X86278734Y11738919D01*
G37*
G36*
X89586767Y11738919D02*
X89205284Y11738919D01*
X89205284Y13383421D01*
X89155098Y13733330D01*
X89004872Y13994311D01*
X88755086Y14166365D01*
X88406224Y14249458D01*
X88406224Y14625789D01*
X88681867Y14587282D01*
X88902412Y14499495D01*
X89074627Y14357565D01*
X89205280Y14156679D01*
X89205280Y14558781D01*
X89586763Y14558781D01*
X89586763Y11738898D01*
X89586767Y11738919D01*
X89586767Y11738919D01*
G37*
G36*
X97481562Y11738887D02*
X97100078Y11738887D01*
X97100078Y14558781D01*
X97481562Y14558781D01*
X97481562Y11738887D01*
X97481562Y11738887D01*
G37*
G36*
X97481562Y14899022D02*
X97100078Y14899022D01*
X97100078Y15548575D01*
X97481562Y15548575D01*
X97481562Y14899022D01*
X97481562Y14899022D01*
G37*
G36*
X37455905Y18173895D02*
X37388097Y17803204D01*
X37203314Y17520475D01*
X36917995Y17340204D01*
X36548590Y17276897D01*
X36200937Y17341334D01*
X35928679Y17521766D01*
X35751149Y17798857D01*
X35687672Y18153276D01*
X35717805Y18392187D01*
X35808824Y18591468D01*
X35961708Y18752084D01*
X36177419Y18875003D01*
X36708404Y19101831D01*
X36903015Y19258420D01*
X36966161Y19473005D01*
X36934407Y19632332D01*
X36847580Y19761695D01*
X36718217Y19848532D01*
X36558889Y19880265D01*
X36392954Y19853524D01*
X36267618Y19774591D01*
X36184813Y19645389D01*
X36146466Y19467857D01*
X35759828Y19467857D01*
X35826602Y19778457D01*
X35992456Y20019462D01*
X36240471Y20175406D01*
X36553729Y20230830D01*
X36872143Y20171299D01*
X37125313Y20005931D01*
X37292452Y19754534D01*
X37352783Y19436928D01*
X37299300Y19157259D01*
X37141423Y18931719D01*
X36985487Y18816373D01*
X36620751Y18658495D01*
X36254731Y18483217D01*
X36121985Y18329207D01*
X36074305Y18117199D01*
X36109985Y17921060D01*
X36208983Y17766003D01*
X36359207Y17664104D01*
X36548578Y17627454D01*
X36761312Y17664264D01*
X36924263Y17771153D01*
X37032120Y17942805D01*
X37079565Y18173903D01*
X37455895Y18173903D01*
X37455905Y18173895D01*
X37455905Y18173895D01*
G37*
G36*
X41217021Y18173896D02*
X41149213Y17803206D01*
X40964429Y17520476D01*
X40679114Y17340206D01*
X40309705Y17276888D01*
X39962056Y17341326D01*
X39689796Y17521757D01*
X39512267Y17798848D01*
X39448789Y18153267D01*
X39478923Y18392178D01*
X39569941Y18591458D01*
X39722826Y18752075D01*
X39938537Y18874994D01*
X40469518Y19101822D01*
X40664128Y19258412D01*
X40727275Y19472995D01*
X40695520Y19632323D01*
X40608693Y19761685D01*
X40479330Y19848523D01*
X40320002Y19880256D01*
X40154072Y19853515D01*
X40028735Y19774581D01*
X39945930Y19645380D01*
X39907583Y19467848D01*
X39520945Y19467848D01*
X39587719Y19778448D01*
X39753571Y20019453D01*
X40001589Y20175397D01*
X40314849Y20230811D01*
X40633262Y20171280D01*
X40886429Y20005911D01*
X41053568Y19754516D01*
X41113899Y19436909D01*
X41060416Y19157239D01*
X40902543Y18931700D01*
X40746597Y18816355D01*
X40381867Y18658476D01*
X40015851Y18483199D01*
X39883102Y18329189D01*
X39835422Y18117180D01*
X39871102Y17921042D01*
X39970099Y17765984D01*
X40120324Y17664085D01*
X40309695Y17627435D01*
X40522429Y17664245D01*
X40685379Y17771134D01*
X40793236Y17942785D01*
X40840682Y18173884D01*
X41217010Y18173884D01*
X41217021Y18173896D01*
X41217021Y18173896D01*
G37*
G36*
X43769484Y17343912D02*
X43388000Y17343912D01*
X43388000Y20163795D01*
X43769484Y20163795D01*
X43769484Y17343912D01*
X43769484Y17343912D01*
G37*
G36*
X43769484Y20504041D02*
X43388000Y20504041D01*
X43388000Y21153596D01*
X43769484Y21153596D01*
X43769484Y20504041D01*
X43769484Y20504041D01*
G37*
G36*
X48114595Y17343912D02*
X47733112Y17343912D01*
X47733112Y17926449D01*
X47289768Y18472898D01*
X46351523Y17343912D01*
X45877245Y17343912D01*
X47047473Y18746123D01*
X45949418Y20163799D01*
X46418539Y20163799D01*
X47733112Y18452278D01*
X47733112Y21153596D01*
X48114595Y21153596D01*
X48114595Y17343912D01*
X48114595Y17343912D01*
G37*
G36*
X70081813Y17343948D02*
X69700331Y17343948D01*
X69700331Y21153631D01*
X70081813Y21153631D01*
X70081813Y17343948D01*
X70081813Y17343948D01*
G37*
G36*
X83419210Y17343947D02*
X83037726Y17343947D01*
X83037726Y20163835D01*
X83419210Y20163835D01*
X83419210Y17343947D01*
X83419210Y17343947D01*
G37*
G36*
X83419210Y20504077D02*
X83037726Y20504077D01*
X83037726Y21153631D01*
X83419210Y21153631D01*
X83419210Y20504077D01*
X83419210Y20504077D01*
G37*
G36*
X88318101Y17343947D02*
X87936619Y17343947D01*
X87936619Y18890504D01*
X87901813Y19266188D01*
X87781956Y19529747D01*
X87646955Y19678038D01*
X87479089Y19788149D01*
X87075697Y19880299D01*
X86689057Y19797173D01*
X86395212Y19570991D01*
X86249578Y19277145D01*
X86204468Y18859574D01*
X86204468Y17343950D01*
X85822985Y17343950D01*
X85822985Y18859574D01*
X85882270Y19401513D01*
X86065279Y19792663D01*
X86249417Y19978573D01*
X86478984Y20116152D01*
X86745281Y20201539D01*
X87039610Y20230862D01*
X87316057Y20202350D01*
X87561573Y20118744D01*
X87770359Y19982937D01*
X87936613Y19797835D01*
X87936613Y21153649D01*
X88318096Y21153649D01*
X88318096Y17343966D01*
X88318101Y17343947D01*
X88318101Y17343947D01*
G37*
G36*
X91031756Y18173935D02*
X91250529Y17923263D01*
X91475102Y17753787D01*
X91719007Y17657776D01*
X91995776Y17627493D01*
X92440491Y17715376D01*
X92800629Y17955494D01*
X93041875Y18312572D01*
X93129918Y18751326D01*
X93043571Y19195236D01*
X92806433Y19553601D01*
X92451370Y19793075D01*
X92011246Y19880307D01*
X91712487Y19843091D01*
X91446108Y19733382D01*
X91217427Y19554079D01*
X91031760Y19308080D01*
X90603880Y19308080D01*
X90829500Y19691497D01*
X91152263Y19982121D01*
X91551387Y20166419D01*
X92006090Y20230856D01*
X92313730Y20201342D01*
X92598776Y20116552D01*
X92855549Y19982104D01*
X93078369Y19803616D01*
X93261560Y19586706D01*
X93399441Y19336992D01*
X93486332Y19060092D01*
X93516561Y18761624D01*
X93486076Y18456572D01*
X93398321Y18175141D01*
X93258849Y17922588D01*
X93073223Y17704166D01*
X92846999Y17525135D01*
X92585735Y17390748D01*
X92294990Y17306257D01*
X91980322Y17276924D01*
X91478336Y17359409D01*
X91042078Y17596548D01*
X90810740Y17829175D01*
X90598733Y18173929D01*
X91031769Y18173929D01*
X91031756Y18173935D01*
X91031756Y18173935D01*
G37*
G36*
X96716332Y17343949D02*
X96334849Y17343949D01*
X96334849Y18988452D01*
X96284663Y19338361D01*
X96134437Y19599343D01*
X95884652Y19771397D01*
X95535791Y19854523D01*
X95535791Y20230851D01*
X95811433Y20192344D01*
X96031979Y20104547D01*
X96204193Y19962617D01*
X96334846Y19761727D01*
X96334846Y20163830D01*
X96716329Y20163830D01*
X96716329Y17343943D01*
X96716332Y17343949D01*
X96716332Y17343949D01*
G37*
D12*
G36*
X22264792Y82009171D02*
X21805671Y82009171D01*
X21805671Y83988352D01*
X21745278Y84409470D01*
X21564480Y84723565D01*
X21263858Y84930635D01*
X20844000Y85030679D01*
X20844000Y85483594D01*
X21175741Y85437259D01*
X21441169Y85331591D01*
X21648431Y85160777D01*
X21805671Y84919001D01*
X21805671Y85402939D01*
X22264792Y85402939D01*
X22264792Y82009171D01*
X22264792Y82009171D01*
G37*
X22264792Y82009171D02*
X21805671Y82009171D01*
X21805671Y83988352D01*
X21745278Y84409470D01*
X21564480Y84723565D01*
X21263858Y84930635D01*
X20844000Y85030679D01*
X20844000Y85483594D01*
X21175741Y85437259D01*
X21441169Y85331591D01*
X21648431Y85160777D01*
X21805671Y84919001D01*
X21805671Y85402939D01*
X22264792Y85402939D01*
X22264792Y82009171D01*
D13*
G36*
X25755248Y85483859D02*
X25761313Y85061630D01*
X25299945Y84986113D01*
X24915197Y84769484D01*
X24624706Y84425526D01*
X24446112Y83969672D01*
X27045644Y83969672D01*
X26883587Y84415053D01*
X26599160Y84760115D01*
X26216617Y84982805D01*
X25761313Y85061630D01*
X25755248Y85483859D01*
X26114091Y85448582D01*
X26446473Y85347159D01*
X26746334Y85186202D01*
X27005956Y84972332D01*
X27219829Y84712710D01*
X27380783Y84412849D01*
X27482206Y84080464D01*
X27516933Y83721624D01*
X27481105Y83356169D01*
X27378579Y83017172D01*
X27214868Y82712350D01*
X26997689Y82448317D01*
X26733106Y82230588D01*
X26428283Y82067427D01*
X26089837Y81964351D01*
X25724382Y81928520D01*
X25100405Y82045380D01*
X24570135Y82381619D01*
X24265866Y82734950D01*
X24074042Y83125760D01*
X24551395Y83125760D01*
X24745423Y82808260D01*
X25023234Y82563520D01*
X25361131Y82405873D01*
X25736509Y82350202D01*
X26230948Y82444459D01*
X26643808Y82700773D01*
X26933746Y83083317D01*
X27058322Y83554055D01*
X23986951Y83554055D01*
X24038764Y84141100D01*
X24216257Y84602465D01*
X24494621Y84967923D01*
X24857872Y85245734D01*
X25285063Y85421573D01*
X25755248Y85483859D01*
X25755248Y85483859D01*
G37*
X25755248Y85483859D02*
X25761313Y85061630D01*
X25299945Y84986113D01*
X24915197Y84769484D01*
X24624706Y84425526D01*
X24446112Y83969672D01*
X27045644Y83969672D01*
X26883587Y84415053D01*
X26599160Y84760115D01*
X26216617Y84982805D01*
X25761313Y85061630D01*
X25755248Y85483859D01*
X26114091Y85448582D01*
X26446473Y85347159D01*
X26746334Y85186202D01*
X27005956Y84972332D01*
X27219829Y84712710D01*
X27380783Y84412849D01*
X27482206Y84080464D01*
X27516933Y83721624D01*
X27481105Y83356169D01*
X27378579Y83017172D01*
X27214868Y82712350D01*
X26997689Y82448317D01*
X26733106Y82230588D01*
X26428283Y82067427D01*
X26089837Y81964351D01*
X25724382Y81928520D01*
X25100405Y82045380D01*
X24570135Y82381619D01*
X24265866Y82734950D01*
X24074042Y83125760D01*
X24551395Y83125760D01*
X24745423Y82808260D01*
X25023234Y82563520D01*
X25361131Y82405873D01*
X25736509Y82350202D01*
X26230948Y82444459D01*
X26643808Y82700773D01*
X26933746Y83083317D01*
X27058322Y83554055D01*
X23986951Y83554055D01*
X24038764Y84141100D01*
X24216257Y84602465D01*
X24494621Y84967923D01*
X24857872Y85245734D01*
X25285063Y85421573D01*
X25755248Y85483859D01*
D12*
G36*
X31365933Y80817938D02*
X30875793Y80817938D01*
X28915223Y85402937D01*
X29405368Y85402937D01*
X30553166Y82697849D01*
X31626517Y85402937D01*
X32129066Y85402937D01*
X30813750Y82120847D01*
X31365933Y80817938D01*
X31365933Y80817938D01*
G37*
X31365933Y80817938D02*
X30875793Y80817938D01*
X28915223Y85402937D01*
X29405368Y85402937D01*
X30553166Y82697849D01*
X31626517Y85402937D01*
X32129066Y85402937D01*
X30813750Y82120847D01*
X31365933Y80817938D01*
D13*
G36*
X35465457Y85483859D02*
X35453329Y85061630D01*
X34931331Y84958551D01*
X34510202Y84675228D01*
X34227980Y84250241D01*
X34125454Y83721624D01*
X34226326Y83182535D01*
X34502483Y82747627D01*
X34915897Y82456586D01*
X35428525Y82350202D01*
X35965410Y82456586D01*
X36396460Y82748178D01*
X36683093Y83185292D01*
X36787273Y83727686D01*
X36682540Y84247483D01*
X36397010Y84671370D01*
X35973126Y84956897D01*
X35453329Y85061630D01*
X35465457Y85483859D01*
X35834219Y85448582D01*
X36173769Y85347710D01*
X36478039Y85186756D01*
X36740418Y84971781D01*
X36955392Y84709402D01*
X37116347Y84405133D01*
X37217218Y84065583D01*
X37252496Y83696820D01*
X37217218Y83330261D01*
X37114693Y82994022D01*
X36952085Y82693057D01*
X36734356Y82433435D01*
X36467566Y82221215D01*
X36158335Y82062465D01*
X35812172Y81963247D01*
X35434590Y81928520D01*
X35037165Y81966005D01*
X34698718Y82085066D01*
X34400511Y82295078D01*
X34125454Y82604863D01*
X34125454Y82008998D01*
X33666290Y82008998D01*
X33666290Y85402831D01*
X34125454Y85402831D01*
X34125454Y84800904D01*
X34393342Y85106827D01*
X34700372Y85319047D01*
X35054803Y85443070D01*
X35465457Y85483859D01*
X35465457Y85483859D01*
G37*
X35465457Y85483859D02*
X35453329Y85061630D01*
X34931331Y84958551D01*
X34510202Y84675228D01*
X34227980Y84250241D01*
X34125454Y83721624D01*
X34226326Y83182535D01*
X34502483Y82747627D01*
X34915897Y82456586D01*
X35428525Y82350202D01*
X35965410Y82456586D01*
X36396460Y82748178D01*
X36683093Y83185292D01*
X36787273Y83727686D01*
X36682540Y84247483D01*
X36397010Y84671370D01*
X35973126Y84956897D01*
X35453329Y85061630D01*
X35465457Y85483859D01*
X35834219Y85448582D01*
X36173769Y85347710D01*
X36478039Y85186756D01*
X36740418Y84971781D01*
X36955392Y84709402D01*
X37116347Y84405133D01*
X37217218Y84065583D01*
X37252496Y83696820D01*
X37217218Y83330261D01*
X37114693Y82994022D01*
X36952085Y82693057D01*
X36734356Y82433435D01*
X36467566Y82221215D01*
X36158335Y82062465D01*
X35812172Y81963247D01*
X35434590Y81928520D01*
X35037165Y81966005D01*
X34698718Y82085066D01*
X34400511Y82295078D01*
X34125454Y82604863D01*
X34125454Y82008998D01*
X33666290Y82008998D01*
X33666290Y85402831D01*
X34125454Y85402831D01*
X34125454Y84800904D01*
X34393342Y85106827D01*
X34700372Y85319047D01*
X35054803Y85443070D01*
X35465457Y85483859D01*
D12*
G36*
X39445002Y82009171D02*
X38985881Y82009171D01*
X38985881Y86594170D01*
X39445039Y86594170D01*
X39445039Y82009171D01*
X39445002Y82009171D01*
X39445002Y82009171D01*
G37*
X39445002Y82009171D02*
X38985881Y82009171D01*
X38985881Y86594170D01*
X39445039Y86594170D01*
X39445039Y82009171D01*
X39445002Y82009171D01*
D13*
G36*
X42968049Y85483859D02*
X42986789Y85061630D01*
X42455418Y84958551D01*
X42030431Y84672471D01*
X41748759Y84239767D01*
X41646233Y83696820D01*
X41748209Y83164346D01*
X42029330Y82737154D01*
X42452664Y82453278D01*
X42980176Y82350202D01*
X43518713Y82454932D01*
X43947558Y82742666D01*
X44230884Y83177576D01*
X44332859Y83721624D01*
X44228126Y84247483D01*
X43941496Y84673021D01*
X43513751Y84958000D01*
X42986789Y85061630D01*
X42968049Y85483859D01*
X43379806Y85440313D01*
X43744160Y85312432D01*
X44053942Y85104073D01*
X44301990Y84819647D01*
X44301990Y85402831D01*
X44761151Y85402831D01*
X44761151Y80817823D01*
X44301990Y80817823D01*
X44301990Y82592185D01*
X44048983Y82305552D01*
X43741403Y82097743D01*
X43383114Y81970966D01*
X42980176Y81928520D01*
X42612514Y81963798D01*
X42272414Y82065223D01*
X41966491Y82226177D01*
X41701357Y82440601D01*
X41483625Y82700773D01*
X41319914Y83001738D01*
X41216838Y83335773D01*
X41181010Y83696820D01*
X41216288Y84063929D01*
X41318260Y84402375D01*
X41479767Y84706648D01*
X41695292Y84969577D01*
X41958222Y85185102D01*
X42261941Y85346606D01*
X42600940Y85448031D01*
X42968049Y85483859D01*
X42968049Y85483859D01*
G37*
X42968049Y85483859D02*
X42986789Y85061630D01*
X42455418Y84958551D01*
X42030431Y84672471D01*
X41748759Y84239767D01*
X41646233Y83696820D01*
X41748209Y83164346D01*
X42029330Y82737154D01*
X42452664Y82453278D01*
X42980176Y82350202D01*
X43518713Y82454932D01*
X43947558Y82742666D01*
X44230884Y83177576D01*
X44332859Y83721624D01*
X44228126Y84247483D01*
X43941496Y84673021D01*
X43513751Y84958000D01*
X42986789Y85061630D01*
X42968049Y85483859D01*
X43379806Y85440313D01*
X43744160Y85312432D01*
X44053942Y85104073D01*
X44301990Y84819647D01*
X44301990Y85402831D01*
X44761151Y85402831D01*
X44761151Y80817823D01*
X44301990Y80817823D01*
X44301990Y82592185D01*
X44048983Y82305552D01*
X43741403Y82097743D01*
X43383114Y81970966D01*
X42980176Y81928520D01*
X42612514Y81963798D01*
X42272414Y82065223D01*
X41966491Y82226177D01*
X41701357Y82440601D01*
X41483625Y82700773D01*
X41319914Y83001738D01*
X41216838Y83335773D01*
X41181010Y83696820D01*
X41216288Y84063929D01*
X41318260Y84402375D01*
X41479767Y84706648D01*
X41695292Y84969577D01*
X41958222Y85185102D01*
X42261941Y85346606D01*
X42600940Y85448031D01*
X42968049Y85483859D01*
D12*
G36*
X49806283Y83008069D02*
X50069580Y82706383D01*
X50339856Y82502415D01*
X50633397Y82386860D01*
X50966491Y82350410D01*
X51501713Y82456175D01*
X51935145Y82745161D01*
X52225488Y83174908D01*
X52331444Y83702954D01*
X52227522Y84237205D01*
X51942124Y84668503D01*
X51514801Y84956713D01*
X50985105Y85061702D01*
X50625543Y85016914D01*
X50304955Y84884879D01*
X50029735Y84669084D01*
X49806283Y84373021D01*
X49291324Y84373021D01*
X49562860Y84834468D01*
X49951310Y85184237D01*
X50431657Y85406042D01*
X50978900Y85483596D01*
X51349146Y85448080D01*
X51692203Y85346036D01*
X52001232Y85184227D01*
X52269402Y84969414D01*
X52489873Y84708360D01*
X52655817Y84407826D01*
X52760392Y84074573D01*
X52796774Y83715365D01*
X52760099Y83348231D01*
X52654477Y83009525D01*
X52486624Y82705574D01*
X52263218Y82442702D01*
X51990953Y82227235D01*
X51676520Y82065498D01*
X51326609Y81963817D01*
X50947902Y81928519D01*
X50343754Y82027789D01*
X49818713Y82313188D01*
X49540294Y82593158D01*
X49285140Y83008073D01*
X49806304Y83008073D01*
X49806283Y83008069D01*
X49806283Y83008069D01*
G37*
X49806283Y83008069D02*
X50069580Y82706383D01*
X50339856Y82502415D01*
X50633397Y82386860D01*
X50966491Y82350410D01*
X51501713Y82456175D01*
X51935145Y82745161D01*
X52225488Y83174908D01*
X52331444Y83702954D01*
X52227522Y84237205D01*
X51942124Y84668503D01*
X51514801Y84956713D01*
X50985105Y85061702D01*
X50625543Y85016914D01*
X50304955Y84884879D01*
X50029735Y84669084D01*
X49806283Y84373021D01*
X49291324Y84373021D01*
X49562860Y84834468D01*
X49951310Y85184237D01*
X50431657Y85406042D01*
X50978900Y85483596D01*
X51349146Y85448080D01*
X51692203Y85346036D01*
X52001232Y85184227D01*
X52269402Y84969414D01*
X52489873Y84708360D01*
X52655817Y84407826D01*
X52760392Y84074573D01*
X52796774Y83715365D01*
X52760099Y83348231D01*
X52654477Y83009525D01*
X52486624Y82705574D01*
X52263218Y82442702D01*
X51990953Y82227235D01*
X51676520Y82065498D01*
X51326609Y81963817D01*
X50947902Y81928519D01*
X50343754Y82027789D01*
X49818713Y82313188D01*
X49540294Y82593158D01*
X49285140Y83008073D01*
X49806304Y83008073D01*
X49806283Y83008069D01*
G36*
X54989387Y82009176D02*
X54530266Y82009176D01*
X54530266Y85402943D01*
X54989387Y85402943D01*
X54989387Y82009176D01*
X54989387Y82009176D01*
G37*
X54989387Y82009176D02*
X54530266Y82009176D01*
X54530266Y85402943D01*
X54989387Y85402943D01*
X54989387Y82009176D01*
G36*
X54989387Y85812429D02*
X54530266Y85812429D01*
X54530266Y86594175D01*
X54989387Y86594175D01*
X54989387Y85812429D01*
X54989387Y85812429D01*
G37*
X54989387Y85812429D02*
X54530266Y85812429D01*
X54530266Y86594175D01*
X54989387Y86594175D01*
X54989387Y85812429D01*
G36*
X58766893Y83008073D02*
X58685290Y82561943D01*
X58462902Y82221674D01*
X58119517Y82004716D01*
X57674928Y81928519D01*
X57256527Y82006073D01*
X56928860Y82223225D01*
X56715200Y82556707D01*
X56638810Y82983255D01*
X56675067Y83270787D01*
X56784611Y83510624D01*
X56968608Y83703927D01*
X57228221Y83851862D01*
X57867265Y84124852D01*
X58101477Y84313308D01*
X58177482Y84571563D01*
X58139300Y84763316D01*
X58034796Y84919006D01*
X57879105Y85023510D01*
X57687350Y85061705D01*
X57487649Y85029522D01*
X57336807Y84934518D01*
X57237151Y84779022D01*
X57191005Y84565361D01*
X56725680Y84565361D01*
X56806052Y84939171D01*
X57005656Y85229223D01*
X57304138Y85416904D01*
X57681146Y85483600D01*
X58064362Y85411960D01*
X58369053Y85212937D01*
X58570211Y84910380D01*
X58642821Y84528135D01*
X58578450Y84191550D01*
X58388441Y83920110D01*
X58200760Y83781289D01*
X57761802Y83591281D01*
X57321295Y83380334D01*
X57161535Y83194981D01*
X57104144Y82939827D01*
X57147091Y82703771D01*
X57266232Y82517157D01*
X57447030Y82394524D01*
X57674941Y82350415D01*
X57930966Y82394718D01*
X58127083Y82523361D01*
X58256891Y82729946D01*
X58313989Y83008074D01*
X58766906Y83008074D01*
X58766893Y83008073D01*
X58766893Y83008073D01*
G37*
X58766893Y83008073D02*
X58685290Y82561943D01*
X58462902Y82221674D01*
X58119517Y82004716D01*
X57674928Y81928519D01*
X57256527Y82006073D01*
X56928860Y82223225D01*
X56715200Y82556707D01*
X56638810Y82983255D01*
X56675067Y83270787D01*
X56784611Y83510624D01*
X56968608Y83703927D01*
X57228221Y83851862D01*
X57867265Y84124852D01*
X58101477Y84313308D01*
X58177482Y84571563D01*
X58139300Y84763316D01*
X58034796Y84919006D01*
X57879105Y85023510D01*
X57687350Y85061705D01*
X57487649Y85029522D01*
X57336807Y84934518D01*
X57237151Y84779022D01*
X57191005Y84565361D01*
X56725680Y84565361D01*
X56806052Y84939171D01*
X57005656Y85229223D01*
X57304138Y85416904D01*
X57681146Y85483600D01*
X58064362Y85411960D01*
X58369053Y85212937D01*
X58570211Y84910380D01*
X58642821Y84528135D01*
X58578450Y84191550D01*
X58388441Y83920110D01*
X58200760Y83781289D01*
X57761802Y83591281D01*
X57321295Y83380334D01*
X57161535Y83194981D01*
X57104144Y82939827D01*
X57147091Y82703771D01*
X57266232Y82517157D01*
X57447030Y82394524D01*
X57674941Y82350415D01*
X57930966Y82394718D01*
X58127083Y82523361D01*
X58256891Y82729946D01*
X58313989Y83008074D01*
X58766906Y83008074D01*
X58766893Y83008073D01*
G36*
X60352733Y85402945D02*
X60811854Y85402945D01*
X60811854Y83659528D01*
X60860712Y83139140D01*
X61016596Y82772310D01*
X61381102Y82461317D01*
X61866590Y82350415D01*
X62378447Y82462093D01*
X62576792Y82596456D01*
X62722786Y82778514D01*
X62842994Y83110446D01*
X62884107Y83572668D01*
X62884107Y85402945D01*
X63343229Y85402945D01*
X63343229Y83572668D01*
X63277309Y82925091D01*
X63076440Y82468297D01*
X62857447Y82234763D01*
X62585525Y82065792D01*
X62265905Y81963130D01*
X61903823Y81928522D01*
X61543005Y81964197D01*
X61246165Y82074324D01*
X61005166Y82263556D01*
X60811862Y82536546D01*
X60811862Y82009179D01*
X60352741Y82009179D01*
X60352741Y85402946D01*
X60352733Y85402945D01*
X60352733Y85402945D01*
G37*
X60352733Y85402945D02*
X60811854Y85402945D01*
X60811854Y83659528D01*
X60860712Y83139140D01*
X61016596Y82772310D01*
X61381102Y82461317D01*
X61866590Y82350415D01*
X62378447Y82462093D01*
X62576792Y82596456D01*
X62722786Y82778514D01*
X62842994Y83110446D01*
X62884107Y83572668D01*
X62884107Y85402945D01*
X63343229Y85402945D01*
X63343229Y83572668D01*
X63277309Y82925091D01*
X63076440Y82468297D01*
X62857447Y82234763D01*
X62585525Y82065792D01*
X62265905Y81963130D01*
X61903823Y81928522D01*
X61543005Y81964197D01*
X61246165Y82074324D01*
X61005166Y82263556D01*
X60811862Y82536546D01*
X60811862Y82009179D01*
X60352741Y82009179D01*
X60352741Y85402946D01*
X60352733Y85402945D01*
G36*
X70246649Y82009179D02*
X69787532Y82009179D01*
X69787532Y83988359D01*
X69725293Y84441372D01*
X69545562Y84778635D01*
X69258807Y84989098D01*
X68875495Y85061708D01*
X68479969Y84981052D01*
X68168199Y84751492D01*
X68006886Y84437398D01*
X67957253Y83988359D01*
X67957253Y82009179D01*
X67498131Y82009179D01*
X67498131Y83975950D01*
X67459363Y84389314D01*
X67336831Y84677040D01*
X67012655Y84965541D01*
X66567493Y85067912D01*
X66157234Y84983378D01*
X65853996Y84745288D01*
X65714395Y84423438D01*
X65667864Y83975950D01*
X65667864Y82009179D01*
X65208743Y82009179D01*
X65208743Y84025586D01*
X65273118Y84592506D01*
X65481737Y85005869D01*
X65685021Y85212357D01*
X65935428Y85364169D01*
X66224217Y85457815D01*
X66542678Y85489806D01*
X66909215Y85450740D01*
X67222823Y85330822D01*
X67491064Y85125982D01*
X67721496Y84832149D01*
X67936030Y85125013D01*
X68186047Y85327719D01*
X68481431Y85445504D01*
X68832074Y85483603D01*
X69125327Y85457914D01*
X69372627Y85375803D01*
X69588518Y85229711D01*
X69787541Y85012075D01*
X69787541Y85402948D01*
X70246657Y85402948D01*
X70246657Y82009181D01*
X70246649Y82009179D01*
X70246649Y82009179D01*
G37*
X70246649Y82009179D02*
X69787532Y82009179D01*
X69787532Y83988359D01*
X69725293Y84441372D01*
X69545562Y84778635D01*
X69258807Y84989098D01*
X68875495Y85061708D01*
X68479969Y84981052D01*
X68168199Y84751492D01*
X68006886Y84437398D01*
X67957253Y83988359D01*
X67957253Y82009179D01*
X67498131Y82009179D01*
X67498131Y83975950D01*
X67459363Y84389314D01*
X67336831Y84677040D01*
X67012655Y84965541D01*
X66567493Y85067912D01*
X66157234Y84983378D01*
X65853996Y84745288D01*
X65714395Y84423438D01*
X65667864Y83975950D01*
X65667864Y82009179D01*
X65208743Y82009179D01*
X65208743Y84025586D01*
X65273118Y84592506D01*
X65481737Y85005869D01*
X65685021Y85212357D01*
X65935428Y85364169D01*
X66224217Y85457815D01*
X66542678Y85489806D01*
X66909215Y85450740D01*
X67222823Y85330822D01*
X67491064Y85125982D01*
X67721496Y84832149D01*
X67936030Y85125013D01*
X68186047Y85327719D01*
X68481431Y85445504D01*
X68832074Y85483603D01*
X69125327Y85457914D01*
X69372627Y85375803D01*
X69588518Y85229711D01*
X69787541Y85012075D01*
X69787541Y85402948D01*
X70246657Y85402948D01*
X70246657Y82009181D01*
X70246649Y82009179D01*
D13*
G36*
X76544775Y85483859D02*
X76550840Y85061630D01*
X76089472Y84986113D01*
X75704724Y84769484D01*
X75413682Y84425526D01*
X75235639Y83969672D01*
X77835171Y83969672D01*
X77672563Y84415053D01*
X77388137Y84760115D01*
X77006143Y84982805D01*
X76550840Y85061630D01*
X76544775Y85483859D01*
X76903618Y85448582D01*
X77235999Y85347159D01*
X77535860Y85186202D01*
X77795482Y84972332D01*
X78009356Y84712710D01*
X78170310Y84412849D01*
X78271182Y84080464D01*
X78306460Y83721624D01*
X78270632Y83356169D01*
X78167553Y83017172D01*
X78004395Y82712350D01*
X77787216Y82448317D01*
X77522633Y82230588D01*
X77217810Y82067427D01*
X76879364Y81964351D01*
X76513358Y81928520D01*
X75889932Y82045380D01*
X75359665Y82381619D01*
X75055392Y82734950D01*
X74863018Y83125760D01*
X75340922Y83125760D01*
X75534950Y82808260D01*
X75812761Y82563520D01*
X76150657Y82406424D01*
X76526036Y82350202D01*
X77020475Y82444459D01*
X77433335Y82700773D01*
X77723276Y83083317D01*
X77847298Y83554055D01*
X74776478Y83554055D01*
X74828291Y84141100D01*
X75005783Y84602465D01*
X75284148Y84967923D01*
X75647399Y85245734D01*
X76074590Y85422123D01*
X76544775Y85483859D01*
X76544775Y85483859D01*
G37*
X76544775Y85483859D02*
X76550840Y85061630D01*
X76089472Y84986113D01*
X75704724Y84769484D01*
X75413682Y84425526D01*
X75235639Y83969672D01*
X77835171Y83969672D01*
X77672563Y84415053D01*
X77388137Y84760115D01*
X77006143Y84982805D01*
X76550840Y85061630D01*
X76544775Y85483859D01*
X76903618Y85448582D01*
X77235999Y85347159D01*
X77535860Y85186202D01*
X77795482Y84972332D01*
X78009356Y84712710D01*
X78170310Y84412849D01*
X78271182Y84080464D01*
X78306460Y83721624D01*
X78270632Y83356169D01*
X78167553Y83017172D01*
X78004395Y82712350D01*
X77787216Y82448317D01*
X77522633Y82230588D01*
X77217810Y82067427D01*
X76879364Y81964351D01*
X76513358Y81928520D01*
X75889932Y82045380D01*
X75359665Y82381619D01*
X75055392Y82734950D01*
X74863018Y83125760D01*
X75340922Y83125760D01*
X75534950Y82808260D01*
X75812761Y82563520D01*
X76150657Y82406424D01*
X76526036Y82350202D01*
X77020475Y82444459D01*
X77433335Y82700773D01*
X77723276Y83083317D01*
X77847298Y83554055D01*
X74776478Y83554055D01*
X74828291Y84141100D01*
X75005783Y84602465D01*
X75284148Y84967923D01*
X75647399Y85245734D01*
X76074590Y85422123D01*
X76544775Y85483859D01*
D12*
G36*
X81618911Y82009179D02*
X81134972Y82009179D01*
X79707977Y85402946D01*
X80173302Y85402946D01*
X81389350Y82548955D01*
X82580581Y85402946D01*
X83045905Y85402946D01*
X81618911Y82009179D01*
X81618911Y82009179D01*
G37*
X81618911Y82009179D02*
X81134972Y82009179D01*
X79707977Y85402946D01*
X80173302Y85402946D01*
X81389350Y82548955D01*
X82580581Y85402946D01*
X83045905Y85402946D01*
X81618911Y82009179D01*
G36*
X85027552Y82009179D02*
X84568432Y82009179D01*
X84568432Y85402946D01*
X85027552Y85402946D01*
X85027552Y82009179D01*
X85027552Y82009179D01*
G37*
X85027552Y82009179D02*
X84568432Y82009179D01*
X84568432Y85402946D01*
X85027552Y85402946D01*
X85027552Y82009179D01*
G36*
X85027552Y85812432D02*
X84568432Y85812432D01*
X84568432Y86594177D01*
X85027552Y86594177D01*
X85027552Y85812432D01*
X85027552Y85812432D01*
G37*
X85027552Y85812432D02*
X84568432Y85812432D01*
X84568432Y86594177D01*
X85027552Y86594177D01*
X85027552Y85812432D01*
G36*
X87807230Y82009179D02*
X87348110Y82009179D01*
X87348110Y84987255D01*
X86584978Y84987255D01*
X86584978Y85402946D01*
X87348110Y85402946D01*
X87348110Y86594177D01*
X87807230Y86594177D01*
X87807230Y85402946D01*
X88539341Y85402946D01*
X88539341Y84987255D01*
X87807230Y84987255D01*
X87807230Y82009179D01*
X87807230Y82009179D01*
G37*
X87807230Y82009179D02*
X87348110Y82009179D01*
X87348110Y84987255D01*
X86584978Y84987255D01*
X86584978Y85402946D01*
X87348110Y85402946D01*
X87348110Y86594177D01*
X87807230Y86594177D01*
X87807230Y85402946D01*
X88539341Y85402946D01*
X88539341Y84987255D01*
X87807230Y84987255D01*
X87807230Y82009179D01*
G36*
X90545802Y82009179D02*
X90086682Y82009179D01*
X90086682Y85402939D01*
X90545777Y85402939D01*
X90545777Y82009171D01*
X90545802Y82009179D01*
X90545802Y82009179D01*
G37*
X90545802Y82009179D02*
X90086682Y82009179D01*
X90086682Y85402939D01*
X90545777Y85402939D01*
X90545777Y82009171D01*
X90545802Y82009179D01*
G36*
X90545777Y85812425D02*
X90086657Y85812425D01*
X90086657Y86594170D01*
X90545777Y86594170D01*
X90545777Y85812425D01*
X90545777Y85812425D01*
G37*
X90545777Y85812425D02*
X90086657Y85812425D01*
X90086657Y86594170D01*
X90545777Y86594170D01*
X90545777Y85812425D01*
G36*
X92783451Y83008068D02*
X93046747Y82706383D01*
X93317023Y82502415D01*
X93610565Y82386859D01*
X93943660Y82350410D01*
X94478880Y82456175D01*
X94912310Y82745161D01*
X95202654Y83174907D01*
X95308612Y83702954D01*
X95204690Y84237205D01*
X94919290Y84668502D01*
X94491967Y84956713D01*
X93962273Y85061701D01*
X93602713Y85016914D01*
X93282123Y84884878D01*
X93006903Y84669084D01*
X92783451Y84373021D01*
X92268491Y84373021D01*
X92540027Y84834468D01*
X92928477Y85184237D01*
X93408828Y85406041D01*
X93956069Y85483595D01*
X94326317Y85448080D01*
X94669372Y85346035D01*
X94978401Y85184226D01*
X95246568Y84969413D01*
X95467040Y84708359D01*
X95632981Y84407825D01*
X95737558Y84074573D01*
X95773936Y83715364D01*
X95737244Y83348230D01*
X95631625Y83009525D01*
X95463769Y82705573D01*
X95240365Y82442701D01*
X94968101Y82227234D01*
X94653668Y82065498D01*
X94303754Y81963817D01*
X93925047Y81928519D01*
X93320901Y82027788D01*
X92795860Y82313187D01*
X92517441Y82593158D01*
X92262287Y83008072D01*
X92783451Y83008072D01*
X92783451Y83008068D01*
X92783451Y83008068D01*
G37*
X92783451Y83008068D02*
X93046747Y82706383D01*
X93317023Y82502415D01*
X93610565Y82386859D01*
X93943660Y82350410D01*
X94478880Y82456175D01*
X94912310Y82745161D01*
X95202654Y83174907D01*
X95308612Y83702954D01*
X95204690Y84237205D01*
X94919290Y84668502D01*
X94491967Y84956713D01*
X93962273Y85061701D01*
X93602713Y85016914D01*
X93282123Y84884878D01*
X93006903Y84669084D01*
X92783451Y84373021D01*
X92268491Y84373021D01*
X92540027Y84834468D01*
X92928477Y85184237D01*
X93408828Y85406041D01*
X93956069Y85483595D01*
X94326317Y85448080D01*
X94669372Y85346035D01*
X94978401Y85184226D01*
X95246568Y84969413D01*
X95467040Y84708359D01*
X95632981Y84407825D01*
X95737558Y84074573D01*
X95773936Y83715364D01*
X95737244Y83348230D01*
X95631625Y83009525D01*
X95463769Y82705573D01*
X95240365Y82442701D01*
X94968101Y82227234D01*
X94653668Y82065498D01*
X94303754Y81963817D01*
X93925047Y81928519D01*
X93320901Y82027788D01*
X92795860Y82313187D01*
X92517441Y82593158D01*
X92262287Y83008072D01*
X92783451Y83008072D01*
X92783451Y83008068D01*
D13*
G36*
X99314928Y85483859D02*
X99302801Y85061630D01*
X98781352Y84958551D01*
X98359672Y84675228D01*
X98078001Y84250241D01*
X97974924Y83721624D01*
X98075796Y83182535D01*
X98351955Y82747627D01*
X98765367Y82456586D01*
X99277997Y82350202D01*
X99814880Y82456586D01*
X100245931Y82748178D01*
X100532563Y83185292D01*
X100636742Y83727686D01*
X100532011Y84247483D01*
X100246482Y84671370D01*
X99822597Y84956897D01*
X99302801Y85061630D01*
X99314928Y85483859D01*
X99684242Y85448582D01*
X100023791Y85347710D01*
X100327511Y85186756D01*
X100590440Y84971781D01*
X100804863Y84709402D01*
X100965818Y84405133D01*
X101067242Y84065583D01*
X101101968Y83696820D01*
X101066690Y83330261D01*
X100964716Y82994022D01*
X100801556Y82693057D01*
X100583826Y82433435D01*
X100317589Y82221215D01*
X100007806Y82062465D01*
X99661643Y81963247D01*
X99284060Y81928520D01*
X98886634Y81966005D01*
X98548188Y82085066D01*
X98250531Y82295078D01*
X97974924Y82604863D01*
X97974924Y82008998D01*
X97515760Y82008998D01*
X97515760Y85402831D01*
X97974924Y85402831D01*
X97974924Y84800904D01*
X98242814Y85106827D01*
X98549841Y85319047D01*
X98904273Y85443070D01*
X99314928Y85483859D01*
X99314928Y85483859D01*
G37*
X99314928Y85483859D02*
X99302801Y85061630D01*
X98781352Y84958551D01*
X98359672Y84675228D01*
X98078001Y84250241D01*
X97974924Y83721624D01*
X98075796Y83182535D01*
X98351955Y82747627D01*
X98765367Y82456586D01*
X99277997Y82350202D01*
X99814880Y82456586D01*
X100245931Y82748178D01*
X100532563Y83185292D01*
X100636742Y83727686D01*
X100532011Y84247483D01*
X100246482Y84671370D01*
X99822597Y84956897D01*
X99302801Y85061630D01*
X99314928Y85483859D01*
X99684242Y85448582D01*
X100023791Y85347710D01*
X100327511Y85186756D01*
X100590440Y84971781D01*
X100804863Y84709402D01*
X100965818Y84405133D01*
X101067242Y84065583D01*
X101101968Y83696820D01*
X101066690Y83330261D01*
X100964716Y82994022D01*
X100801556Y82693057D01*
X100583826Y82433435D01*
X100317589Y82221215D01*
X100007806Y82062465D01*
X99661643Y81963247D01*
X99284060Y81928520D01*
X98886634Y81966005D01*
X98548188Y82085066D01*
X98250531Y82295078D01*
X97974924Y82604863D01*
X97974924Y82008998D01*
X97515760Y82008998D01*
X97515760Y85402831D01*
X97974924Y85402831D01*
X97974924Y84800904D01*
X98242814Y85106827D01*
X98549841Y85319047D01*
X98904273Y85443070D01*
X99314928Y85483859D01*
G36*
X104494698Y85483859D02*
X104513439Y85061630D01*
X103982068Y84958551D01*
X103557081Y84672471D01*
X103275410Y84239767D01*
X103173435Y83696820D01*
X103275410Y83164346D01*
X103556530Y82737154D01*
X103979312Y82453278D01*
X104506825Y82350202D01*
X105045362Y82454932D01*
X105474208Y82742666D01*
X105757532Y83177576D01*
X105859507Y83721624D01*
X105754776Y84247483D01*
X105468144Y84673021D01*
X105040401Y84958000D01*
X104513439Y85061630D01*
X104494698Y85483859D01*
X104906456Y85440313D01*
X105270809Y85312432D01*
X105581143Y85104073D01*
X105828639Y84819647D01*
X105828639Y85402831D01*
X106287801Y85402831D01*
X106287801Y80817823D01*
X105828639Y80817823D01*
X105828639Y82592185D01*
X105575631Y82305552D01*
X105268053Y82097743D01*
X104909763Y81970966D01*
X104506825Y81928520D01*
X104139164Y81963798D01*
X103799064Y82065223D01*
X103493140Y82226177D01*
X103228005Y82440601D01*
X103010275Y82700773D01*
X102846564Y83001738D01*
X102743487Y83335773D01*
X102707658Y83696820D01*
X102742936Y84063929D01*
X102844911Y84402375D01*
X103006417Y84706648D01*
X103221942Y84969577D01*
X103484872Y85185102D01*
X103788591Y85346606D01*
X104127589Y85448031D01*
X104494698Y85483859D01*
X104494698Y85483859D01*
G37*
X104494698Y85483859D02*
X104513439Y85061630D01*
X103982068Y84958551D01*
X103557081Y84672471D01*
X103275410Y84239767D01*
X103173435Y83696820D01*
X103275410Y83164346D01*
X103556530Y82737154D01*
X103979312Y82453278D01*
X104506825Y82350202D01*
X105045362Y82454932D01*
X105474208Y82742666D01*
X105757532Y83177576D01*
X105859507Y83721624D01*
X105754776Y84247483D01*
X105468144Y84673021D01*
X105040401Y84958000D01*
X104513439Y85061630D01*
X104494698Y85483859D01*
X104906456Y85440313D01*
X105270809Y85312432D01*
X105581143Y85104073D01*
X105828639Y84819647D01*
X105828639Y85402831D01*
X106287801Y85402831D01*
X106287801Y80817823D01*
X105828639Y80817823D01*
X105828639Y82592185D01*
X105575631Y82305552D01*
X105268053Y82097743D01*
X104909763Y81970966D01*
X104506825Y81928520D01*
X104139164Y81963798D01*
X103799064Y82065223D01*
X103493140Y82226177D01*
X103228005Y82440601D01*
X103010275Y82700773D01*
X102846564Y83001738D01*
X102743487Y83335773D01*
X102707658Y83696820D01*
X102742936Y84063929D01*
X102844911Y84402375D01*
X103006417Y84706648D01*
X103221942Y84969577D01*
X103484872Y85185102D01*
X103788591Y85346606D01*
X104127589Y85448031D01*
X104494698Y85483859D01*
G36*
X109959446Y85483859D02*
X109946768Y85061630D01*
X109425319Y84958551D01*
X109003639Y84675228D01*
X108721968Y84250241D01*
X108618891Y83721624D01*
X108719763Y83182535D01*
X108995922Y82747627D01*
X109409885Y82456586D01*
X109921964Y82350202D01*
X110458847Y82456586D01*
X110889898Y82748178D01*
X111176530Y83185292D01*
X111280709Y83727686D01*
X111175978Y84247483D01*
X110890449Y84671370D01*
X110466564Y84956897D01*
X109946768Y85061630D01*
X109959446Y85483859D01*
X110328209Y85448582D01*
X110667758Y85347710D01*
X110972029Y85186756D01*
X111234407Y84971781D01*
X111448830Y84709402D01*
X111609785Y84405133D01*
X111711208Y84065583D01*
X111745935Y83696820D01*
X111710657Y83330261D01*
X111608682Y82994022D01*
X111445523Y82693057D01*
X111228344Y82433435D01*
X110961556Y82221215D01*
X110651773Y82062465D01*
X110305610Y81963247D01*
X109928027Y81928520D01*
X109531152Y81966005D01*
X109192155Y82085066D01*
X108894499Y82295078D01*
X108618891Y82604863D01*
X108618891Y82008998D01*
X108160280Y82008998D01*
X108160280Y85402831D01*
X108618891Y85402831D01*
X108618891Y84800904D01*
X108886781Y85106827D01*
X109193808Y85319047D01*
X109548240Y85443070D01*
X109959446Y85483859D01*
X109959446Y85483859D01*
G37*
X109959446Y85483859D02*
X109946768Y85061630D01*
X109425319Y84958551D01*
X109003639Y84675228D01*
X108721968Y84250241D01*
X108618891Y83721624D01*
X108719763Y83182535D01*
X108995922Y82747627D01*
X109409885Y82456586D01*
X109921964Y82350202D01*
X110458847Y82456586D01*
X110889898Y82748178D01*
X111176530Y83185292D01*
X111280709Y83727686D01*
X111175978Y84247483D01*
X110890449Y84671370D01*
X110466564Y84956897D01*
X109946768Y85061630D01*
X109959446Y85483859D01*
X110328209Y85448582D01*
X110667758Y85347710D01*
X110972029Y85186756D01*
X111234407Y84971781D01*
X111448830Y84709402D01*
X111609785Y84405133D01*
X111711208Y84065583D01*
X111745935Y83696820D01*
X111710657Y83330261D01*
X111608682Y82994022D01*
X111445523Y82693057D01*
X111228344Y82433435D01*
X110961556Y82221215D01*
X110651773Y82062465D01*
X110305610Y81963247D01*
X109928027Y81928520D01*
X109531152Y81966005D01*
X109192155Y82085066D01*
X108894499Y82295078D01*
X108618891Y82604863D01*
X108618891Y82008998D01*
X108160280Y82008998D01*
X108160280Y85402831D01*
X108618891Y85402831D01*
X108618891Y84800904D01*
X108886781Y85106827D01*
X109193808Y85319047D01*
X109548240Y85443070D01*
X109959446Y85483859D01*
D12*
G36*
X113853514Y83008069D02*
X114116810Y82706384D01*
X114387086Y82502416D01*
X114680628Y82386861D01*
X115013722Y82350411D01*
X115548943Y82456176D01*
X115982374Y82745162D01*
X116272717Y83174909D01*
X116378675Y83702955D01*
X116274753Y84237206D01*
X115989354Y84668504D01*
X115562031Y84956714D01*
X115032336Y85061703D01*
X114672776Y85016915D01*
X114352187Y84884879D01*
X114076966Y84669085D01*
X113853514Y84373022D01*
X113338554Y84373022D01*
X113610091Y84834469D01*
X113998540Y85184238D01*
X114478891Y85406043D01*
X115026131Y85483597D01*
X115396380Y85448081D01*
X115739435Y85346037D01*
X116048464Y85184228D01*
X116316632Y84969415D01*
X116537104Y84708361D01*
X116703045Y84407826D01*
X116807622Y84074574D01*
X116844000Y83715365D01*
X116807307Y83348231D01*
X116701688Y83009526D01*
X116533832Y82705575D01*
X116310428Y82442703D01*
X116038165Y82227236D01*
X115723731Y82065499D01*
X115373817Y81963818D01*
X114995111Y81928520D01*
X114390964Y82027790D01*
X113865923Y82313189D01*
X113587503Y82593159D01*
X113332350Y83008074D01*
X113853514Y83008074D01*
X113853514Y83008069D01*
X113853514Y83008069D01*
G37*
X113853514Y83008069D02*
X114116810Y82706384D01*
X114387086Y82502416D01*
X114680628Y82386861D01*
X115013722Y82350411D01*
X115548943Y82456176D01*
X115982374Y82745162D01*
X116272717Y83174909D01*
X116378675Y83702955D01*
X116274753Y84237206D01*
X115989354Y84668504D01*
X115562031Y84956714D01*
X115032336Y85061703D01*
X114672776Y85016915D01*
X114352187Y84884879D01*
X114076966Y84669085D01*
X113853514Y84373022D01*
X113338554Y84373022D01*
X113610091Y84834469D01*
X113998540Y85184238D01*
X114478891Y85406043D01*
X115026131Y85483597D01*
X115396380Y85448081D01*
X115739435Y85346037D01*
X116048464Y85184228D01*
X116316632Y84969415D01*
X116537104Y84708361D01*
X116703045Y84407826D01*
X116807622Y84074574D01*
X116844000Y83715365D01*
X116807307Y83348231D01*
X116701688Y83009526D01*
X116533832Y82705575D01*
X116310428Y82442703D01*
X116038165Y82227236D01*
X115723731Y82065499D01*
X115373817Y81963818D01*
X114995111Y81928520D01*
X114390964Y82027790D01*
X113865923Y82313189D01*
X113587503Y82593159D01*
X113332350Y83008074D01*
X113853514Y83008074D01*
X113853514Y83008069D01*
D14*
X40758333Y-13977381D02*
X40758333Y-14691667D01*
X40805953Y-14834524D01*
X40901191Y-14929762D01*
X41044048Y-14977381D01*
X41139286Y-14977381D01*
X40139286Y-14405952D02*
X40234524Y-14358333D01*
X40282143Y-14310714D01*
X40329762Y-14215476D01*
X40329762Y-14167857D01*
X40282143Y-14072619D01*
X40234524Y-14025000D01*
X40139286Y-13977381D01*
X39948809Y-13977381D01*
X39853571Y-14025000D01*
X39805952Y-14072619D01*
X39758333Y-14167857D01*
X39758333Y-14215476D01*
X39805952Y-14310714D01*
X39853571Y-14358333D01*
X39948809Y-14405952D01*
X40139286Y-14405952D01*
X40234524Y-14453571D01*
X40282143Y-14501190D01*
X40329762Y-14596429D01*
X40329762Y-14786905D01*
X40282143Y-14882143D01*
X40234524Y-14929762D01*
X40139286Y-14977381D01*
X39948809Y-14977381D01*
X39853571Y-14929762D01*
X39805952Y-14882143D01*
X39758333Y-14786905D01*
X39758333Y-14596429D01*
X39805952Y-14501190D01*
X39853571Y-14453571D01*
X39948809Y-14405952D01*
%LPC*%
D10*
X31893000Y6000000D02*
G75*
G03X31893000Y6000000I-1143000J0D01*
G01*
X37389000Y3500000D02*
G75*
G03X37389000Y3500000I-889000J0D01*
G01*
X32889000Y3500000D02*
G75*
G03X32889000Y3500000I-889000J0D01*
G01*
X38893000Y6000000D02*
G75*
G03X38893000Y6000000I-1143000J0D01*
G01*
X42393000Y6000000D02*
G75*
G03X42393000Y6000000I-1143000J0D01*
G01*
X47889000Y3500000D02*
G75*
G03X47889000Y3500000I-889000J0D01*
G01*
X43389000Y3500000D02*
G75*
G03X43389000Y3500000I-889000J0D01*
G01*
X49393000Y6000000D02*
G75*
G03X49393000Y6000000I-1143000J0D01*
G01*
X98393000Y6000000D02*
G75*
G03X98393000Y6000000I-1143000J0D01*
G01*
X103889000Y3500000D02*
G75*
G03X103889000Y3500000I-889000J0D01*
G01*
X99389000Y3500000D02*
G75*
G03X99389000Y3500000I-889000J0D01*
G01*
X105393000Y6000000D02*
G75*
G03X105393000Y6000000I-1143000J0D01*
G01*
X112393000Y6000000D02*
G75*
G03X112393000Y6000000I-1143000J0D01*
G01*
X117889000Y3500000D02*
G75*
G03X117889000Y3500000I-889000J0D01*
G01*
X113389000Y3500000D02*
G75*
G03X113389000Y3500000I-889000J0D01*
G01*
X119393000Y6000000D02*
G75*
G03X119393000Y6000000I-1143000J0D01*
G01*
X56393000Y6000000D02*
G75*
G03X56393000Y6000000I-1143000J0D01*
G01*
X61889000Y3500000D02*
G75*
G03X61889000Y3500000I-889000J0D01*
G01*
X57389000Y3500000D02*
G75*
G03X57389000Y3500000I-889000J0D01*
G01*
X63393000Y6000000D02*
G75*
G03X63393000Y6000000I-1143000J0D01*
G01*
X70393000Y6000000D02*
G75*
G03X70393000Y6000000I-1143000J0D01*
G01*
X75889000Y3500000D02*
G75*
G03X75889000Y3500000I-889000J0D01*
G01*
X71389000Y3500000D02*
G75*
G03X71389000Y3500000I-889000J0D01*
G01*
X77393000Y6000000D02*
G75*
G03X77393000Y6000000I-1143000J0D01*
G01*
X84393000Y6000000D02*
G75*
G03X84393000Y6000000I-1143000J0D01*
G01*
X89889000Y3500000D02*
G75*
G03X89889000Y3500000I-889000J0D01*
G01*
X85389000Y3500000D02*
G75*
G03X85389000Y3500000I-889000J0D01*
G01*
X91393000Y6000000D02*
G75*
G03X91393000Y6000000I-1143000J0D01*
G01*
D15*
X20000000Y8000000D03*
X22500000Y8000000D03*
X17500000Y8000000D03*
D16*
X25850000Y8000000D03*
X14150000Y8000000D03*
D17*
X30525000Y-9225000D03*
D18*
X40925000Y-12825000D03*
X41925000Y-12825000D03*
X42925000Y-12825000D03*
X38925000Y-12825000D03*
X37925000Y-12825000D03*
X39925000Y-12825000D03*
D17*
X50325000Y-9225000D03*
D18*
X33925000Y-12825000D03*
X34925000Y-12825000D03*
X35925000Y-12825000D03*
X36925000Y-12825000D03*
X32925000Y-12825000D03*
X45925000Y-12825000D03*
X46925000Y-12825000D03*
X47925000Y-12825000D03*
X44925000Y-12825000D03*
X43925000Y-12825000D03*
D19*
X16456500Y60338000D03*
D20*
X18996500Y60338000D03*
X16456500Y57798000D03*
X18996500Y57798000D03*
X16456500Y55258000D03*
X18996500Y55258000D03*
D21*
X110373000Y108407500D03*
X110373000Y101407500D03*
X120469500Y108407500D03*
X120469500Y101407500D03*
X78226000Y104238000D03*
X102426000Y104238000D03*
D22*
X19595000Y105300000D03*
X14595000Y105300000D03*
D23*
X20595000Y108000000D03*
X13595000Y108000000D03*
D19*
X53286500Y80277000D03*
D20*
X55826500Y80277000D03*
X58366500Y80277000D03*
X60906500Y80277000D03*
X63446500Y80277000D03*
X65986500Y80277000D03*
X68526500Y80277000D03*
X71066500Y80277000D03*
D21*
X39222000Y108407500D03*
X39222000Y101407500D03*
X49318500Y108407500D03*
X49318500Y101407500D03*
D19*
X59319000Y49162000D03*
D20*
X59319000Y46622000D03*
X59319000Y44082000D03*
X59319000Y41542000D03*
D19*
X46610000Y41540000D03*
D20*
X49150000Y41540000D03*
X51690000Y41540000D03*
X54230000Y41540000D03*
D19*
X129042000Y47892000D03*
D20*
X129042000Y50432000D03*
X129042000Y52972000D03*
X129042000Y55512000D03*
X129042000Y58052000D03*
X129042000Y60592000D03*
D24*
X5000000Y105000000D03*
X130000000Y105000000D03*
X5000000Y5000000D03*
X130000000Y5000000D03*
D25*
X30750000Y6000000D03*
X37750000Y6000000D03*
D26*
X32000000Y3500000D03*
X36500000Y3500000D03*
D25*
X41250000Y6000000D03*
X48250000Y6000000D03*
D26*
X42500000Y3500000D03*
X47000000Y3500000D03*
D25*
X97250000Y6000000D03*
X104250000Y6000000D03*
D26*
X98500000Y3500000D03*
X103000000Y3500000D03*
D25*
X111250000Y6000000D03*
X118250000Y6000000D03*
D26*
X112500000Y3500000D03*
X117000000Y3500000D03*
D25*
X55250000Y6000000D03*
X62250000Y6000000D03*
D26*
X56500000Y3500000D03*
X61000000Y3500000D03*
D25*
X69250000Y6000000D03*
X76250000Y6000000D03*
D26*
X70500000Y3500000D03*
X75000000Y3500000D03*
D25*
X83250000Y6000000D03*
X90250000Y6000000D03*
D26*
X84500000Y3500000D03*
X89000000Y3500000D03*
D27*
X37250000Y500000D03*
X36250000Y500000D03*
X35250000Y500000D03*
X38250000Y500000D03*
X39250000Y500000D03*
X40250000Y500000D03*
X37250000Y-1500000D03*
X36250000Y-1500000D03*
X35250000Y-1500000D03*
X38250000Y-1500000D03*
X39250000Y-1500000D03*
X40250000Y-1500000D03*
X112250000Y-1500000D03*
X111250000Y-1500000D03*
X110250000Y-1500000D03*
X113250000Y-1500000D03*
X114250000Y-1500000D03*
X115250000Y-1500000D03*
X112250000Y500000D03*
X111250000Y500000D03*
X110250000Y500000D03*
X113250000Y500000D03*
X114250000Y500000D03*
X115250000Y500000D03*
D19*
X10500000Y105500000D03*
D21*
X59415000Y108407500D03*
X59415000Y101407500D03*
X69511500Y108407500D03*
X69511500Y101407500D03*
D28*
X113738500Y70244002D03*
X109103000Y62242978D03*
X103388000Y75578000D03*
X100491000Y60211000D03*
X38999000Y75578000D03*
X112341500Y58369500D03*
X112913000Y60709000D03*
X105674000Y60719000D03*
X14614998Y83833000D03*
X24013000Y60211000D03*
X24521000Y60846000D03*
X12710000Y99708000D03*
X44460000Y61798500D03*
X63256000Y21539500D03*
X67510500Y65418000D03*
X42555000Y59956996D03*
X47773869Y76328127D03*
X10450000Y74600000D03*
X64043400Y57239200D03*
X46925000Y-12825000D03*
X34554000Y81166000D03*
X68717000Y21603000D03*
X107071000Y54242002D03*
X87132000Y73863500D03*
X106690000Y73863500D03*
X124660498Y53670500D03*
X97291996Y69736000D03*
X74178000Y73863500D03*
X38999000Y73838003D03*
X106091000Y53206020D03*
X101991000Y57290000D03*
X120088500Y84976000D03*
X124787500Y80150000D03*
X96589673Y69098913D03*
X38999000Y73038000D03*
X59475000Y-7750000D03*
X77575000Y-7750000D03*
X95625000Y-7750000D03*
X113750000Y-7725000D03*
X41950000Y21150000D03*
X34925000Y35250000D03*
X61775000Y-9500000D03*
X78700000Y-5000000D03*
X76440000Y-5000000D03*
X74180000Y-5000000D03*
X71920000Y-5000000D03*
X69660000Y-5000000D03*
X67400000Y-5000000D03*
X65140000Y-5000000D03*
X62880000Y-5000000D03*
X32268000Y21920502D03*
X38950000Y19825002D03*
X57225000Y-7050000D03*
X75275000Y-7050000D03*
X93400000Y-7050000D03*
X111450000Y-7050000D03*
X109200000Y-6375000D03*
X54975000Y-6375000D03*
X73050000Y-6375000D03*
X91100000Y-6375000D03*
X39425000Y23600000D03*
X36949998Y22525000D03*
X52725000Y-5700000D03*
X70775000Y-5700000D03*
X88850000Y-5700000D03*
X106925000Y-5700000D03*
X45850000Y21149998D03*
X35950000Y20474998D03*
X50450000Y-4275000D03*
X68500000Y-4275000D03*
X86600000Y-4275000D03*
X104675000Y-4325000D03*
X38950000Y21150000D03*
X34950000Y21125000D03*
X48200000Y-3600000D03*
X66275000Y-3600000D03*
X84300000Y-3600000D03*
X102425000Y-3600000D03*
X45950000Y-2925000D03*
X64350000Y-2925000D03*
X82075000Y-2925000D03*
X100150000Y-2925000D03*
X38675880Y22974990D03*
X33249990Y21875000D03*
X44775000Y-2250000D03*
X62875000Y-2250000D03*
X79825000Y-2250000D03*
X97900000Y-2250000D03*
X41250000Y30850000D03*
X40950000Y21150000D03*
X40925000Y-11800000D03*
X60620000Y-5000000D03*
X58360000Y-5000000D03*
X56100000Y-5000000D03*
X53840000Y-5000000D03*
X51579999Y-5000000D03*
X49320000Y-5000000D03*
X47060000Y-5000000D03*
X44800000Y-5000000D03*
X43920551Y21154449D03*
X39975000Y35250000D03*
X98075000Y-10800000D03*
X114860000Y-5000000D03*
X112600000Y-5000000D03*
X110339999Y-5000000D03*
X108079999Y-5000000D03*
X105820000Y-5000000D03*
X103560000Y-5000000D03*
X101299999Y-5000000D03*
X99040000Y-5000000D03*
X42975000Y21150000D03*
X41275000Y32825000D03*
X79800000Y-10775000D03*
X96780000Y-5000000D03*
X94519999Y-5000000D03*
X92260000Y-5000000D03*
X90000000Y-5000000D03*
X87740000Y-5000000D03*
X85480000Y-5000000D03*
X83220000Y-5000000D03*
X80959999Y-5000000D03*
X45412500Y22873000D03*
X44925000Y-12437479D03*
X45075000Y35275000D03*
X20076000Y93484998D03*
X23251000Y92469000D03*
X38719600Y56045400D03*
X56017000Y56273992D03*
X38707085Y57654231D03*
X56017000Y58544990D03*
X38706961Y56854220D03*
X56017000Y57544002D03*
X78623000Y65037000D03*
X78623000Y57289998D03*
X114818000Y46368000D03*
X88656000Y47638000D03*
X109166494Y72403000D03*
X99578004Y72403000D03*
X83322000Y58813996D03*
X80401000Y55893000D03*
X60398498Y56274000D03*
X114309994Y53734000D03*
X72400000Y64275000D03*
X85100000Y63005000D03*
X54023500Y66180005D03*
X50149600Y62090602D03*
X53223489Y66180000D03*
X50123807Y62890196D03*
X55623522Y66180739D03*
X50149600Y60439600D03*
X54823511Y66179935D03*
X50149600Y61277800D03*
X57223500Y66180000D03*
X50149600Y58052000D03*
X56423508Y66174327D03*
X50149600Y58864800D03*
X61478000Y45733002D03*
X45490000Y52640000D03*
X46290000Y52640000D03*
X104658000Y50432000D03*
X105293000Y51702000D03*
X114183000Y51194000D03*
X68650003Y56925000D03*
X33650000Y29000000D03*
X67850000Y56925000D03*
X47625000Y38375000D03*
X111071498Y55893000D03*
X50683000Y71387000D03*
X97000012Y55000000D03*
X90434000Y55004000D03*
X17059800Y94361300D03*
X33775858Y61604558D03*
X17859800Y94361300D03*
X34341542Y62170242D03*
X33792000Y72403000D03*
X26800000Y79350000D03*
X59192000Y10046000D03*
X56652000Y12459000D03*
X76718004Y12459000D03*
X73035002Y9538000D03*
X57922000Y10046000D03*
X55763000Y12459000D03*
X74305000Y9538000D03*
X77607000Y12459000D03*
X76844998Y9538000D03*
X79385000Y12459000D03*
X56906000Y10046000D03*
X54874000Y12459000D03*
X75574994Y9538000D03*
X78496000Y12459000D03*
X55763000Y10046000D03*
X53985000Y12459000D03*
X47254000Y63640000D03*
X38745000Y63640000D03*
X68336000Y64275000D03*
X71003000Y64275000D03*
X38694199Y58534600D03*
X58887200Y59941590D03*
X38225000Y53950000D03*
X33650000Y38350000D03*
X61224000Y57226498D03*
X61859000Y59936990D03*
X58353800Y60566600D03*
X62367000Y42304000D03*
X110246000Y48146000D03*
X90053000Y48781000D03*
X79639000Y65037000D03*
X79385000Y57925000D03*
X114818000Y47765000D03*
X89418000Y48273000D03*
X109928500Y71577500D03*
X99556457Y71544021D03*
X83956998Y58179000D03*
X81036000Y55258000D03*
X26299000Y44590000D03*
X53159500Y58941000D03*
X25346500Y58623500D03*
X20330000Y72466500D03*
X26108500Y72720500D03*
X26807000Y81102500D03*
X17409000Y75451000D03*
X106425001Y56772001D03*
X102308500Y54940500D03*
X114310000Y56464500D03*
X126311500Y79769000D03*
X97673000Y56655000D03*
X77480000Y58941000D03*
X77480000Y54623000D03*
X85862000Y57925000D03*
X97673000Y51956000D03*
X83322000Y60465000D03*
X15250000Y94120000D03*
X17409000Y101663800D03*
X119311500Y82450000D03*
X49540000Y12128800D03*
X47508000Y17564400D03*
X47508000Y17564400D03*
X63256000Y19342402D03*
X53324600Y28181600D03*
X53350000Y35141200D03*
X35036600Y66484800D03*
X35036600Y68770800D03*
X25333800Y54064200D03*
X32325000Y-9225000D03*
X47925000Y-12825000D03*
X61986000Y53226000D03*
X63256000Y62497000D03*
X109611000Y51330990D03*
X66558000Y14999000D03*
X113738496Y69443989D03*
X38999000Y74638006D03*
X108849000Y55766000D03*
X105293000Y52581010D03*
M02*
