G04 #@! TF.FileFunction,Paste,Top*
%FSLAX46Y46*%
G04 Gerber Fmt 4.6, Leading zero omitted, Abs format (unit mm)*
G04 Created by KiCad (PCBNEW 4.0.7-e2-6376~58~ubuntu16.04.1) date Thu Nov  2 15:42:12 2017*
%MOMM*%
%LPD*%
G01*
G04 APERTURE LIST*
%ADD10C,0.100000*%
%ADD11R,0.800000X0.750000*%
%ADD12R,0.750000X0.800000*%
%ADD13R,1.950000X1.500000*%
%ADD14R,1.500000X1.950000*%
%ADD15R,1.000000X1.600000*%
%ADD16R,0.800000X0.800000*%
%ADD17R,0.900000X1.200000*%
%ADD18R,1.140000X2.030000*%
%ADD19R,0.650000X1.060000*%
%ADD20R,1.060000X0.650000*%
%ADD21R,2.500000X1.200000*%
%ADD22R,1.000000X1.500000*%
%ADD23R,1.200000X2.200000*%
%ADD24R,0.400000X1.350000*%
%ADD25R,1.000000X3.500000*%
%ADD26R,1.500000X3.400000*%
%ADD27R,0.500000X0.900000*%
%ADD28R,0.800000X0.900000*%
%ADD29R,0.900000X0.500000*%
%ADD30R,0.400000X0.900000*%
%ADD31R,0.760000X1.600000*%
%ADD32R,1.500000X0.550000*%
%ADD33R,0.550000X1.500000*%
%ADD34R,1.300000X0.250000*%
%ADD35R,0.250000X1.300000*%
%ADD36R,0.600000X2.000000*%
%ADD37R,1.500000X0.450000*%
%ADD38R,1.450000X0.450000*%
%ADD39R,1.600000X1.300000*%
%ADD40R,0.300000X0.450000*%
%ADD41R,0.800000X0.350000*%
%ADD42R,0.350000X0.800000*%
%ADD43R,0.750000X0.750000*%
%ADD44R,0.900000X0.400000*%
%ADD45R,1.800000X2.200000*%
%ADD46R,0.600000X1.300000*%
%ADD47R,2.286000X1.854500*%
G04 APERTURE END LIST*
D10*
D11*
X26259500Y48146000D03*
X27759500Y48146000D03*
D12*
X46531500Y45812000D03*
X46531500Y47312000D03*
X38911500Y47336000D03*
X38911500Y45836000D03*
X30680500Y59195000D03*
X30680500Y60695000D03*
X28902500Y59195000D03*
X28902500Y60695000D03*
X32458500Y60719000D03*
X32458500Y59219000D03*
D11*
X38173500Y69736000D03*
X36673500Y69736000D03*
X39975500Y50813000D03*
X41475500Y50813000D03*
X47468500Y68593000D03*
X48968500Y68593000D03*
D12*
X52524500Y56401000D03*
X52524500Y54901000D03*
D11*
X38149500Y67958000D03*
X36649500Y67958000D03*
D12*
X103388000Y44463000D03*
X103388000Y42963000D03*
X112151000Y42951000D03*
X112151000Y44451000D03*
D11*
X109079000Y60719000D03*
X107579000Y60719000D03*
X97927000Y46749000D03*
X99427000Y46749000D03*
X97927000Y44844000D03*
X99427000Y44844000D03*
X97927000Y43066000D03*
X99427000Y43066000D03*
D13*
X100086000Y40653000D03*
X97336000Y40653000D03*
D11*
X100491000Y61735000D03*
X101991000Y61735000D03*
X100491000Y60211000D03*
X101991000Y60211000D03*
X93506000Y64402000D03*
X95006000Y64402000D03*
X93506000Y62624000D03*
X95006000Y62624000D03*
X93506000Y60719000D03*
X95006000Y60719000D03*
X93506000Y58941000D03*
X95006000Y58941000D03*
D13*
X95641000Y56655000D03*
X92891000Y56655000D03*
D12*
X107452000Y63652000D03*
X107452000Y65152000D03*
X109357000Y63640000D03*
X109357000Y65140000D03*
X100340000Y67704000D03*
X100340000Y66204000D03*
X102245000Y67704000D03*
X102245000Y66204000D03*
D11*
X112937000Y61608000D03*
X114437000Y61608000D03*
X112913000Y63513000D03*
X114413000Y63513000D03*
X112913000Y65291000D03*
X114413000Y65291000D03*
D13*
X115072000Y67577000D03*
X112322000Y67577000D03*
D12*
X116024500Y83198000D03*
X116024500Y81698000D03*
X118056500Y81698000D03*
X118056500Y83198000D03*
D11*
X124203300Y78753000D03*
X122703300Y78753000D03*
D12*
X118056500Y86881000D03*
X118056500Y88381000D03*
X128216500Y86905000D03*
X128216500Y88405000D03*
D11*
X20913500Y96787000D03*
X22413500Y96787000D03*
D12*
X11430400Y76111400D03*
X11430400Y74611400D03*
X9422400Y76111400D03*
X9422400Y74611400D03*
X20344400Y70967900D03*
X20344400Y69467900D03*
X33628600Y88838200D03*
X33628600Y87338200D03*
X22376400Y70967900D03*
X22376400Y69467900D03*
X33628600Y84187200D03*
X33628600Y85687200D03*
D14*
X51375000Y30750000D03*
X51375000Y33500000D03*
D12*
X54075000Y32875000D03*
X54075000Y31375000D03*
D11*
X69467000Y19952000D03*
X67967000Y19952000D03*
X76007500Y58941000D03*
X74507500Y58941000D03*
D12*
X62875000Y56643000D03*
X62875000Y55143000D03*
D15*
X32966500Y45860000D03*
X29966500Y45860000D03*
D16*
X22905500Y108636000D03*
X22905500Y107036000D03*
D17*
X18413000Y89802000D03*
X15113000Y89802000D03*
D16*
X35100000Y-10800000D03*
X33500000Y-10800000D03*
X44800000Y-6600000D03*
X44800000Y-5000000D03*
X47060000Y-6600000D03*
X47060000Y-5000000D03*
X49320000Y-6600000D03*
X49320000Y-5000000D03*
X51579999Y-6600000D03*
X51579999Y-5000000D03*
X53840000Y-6600000D03*
X53840000Y-5000000D03*
X56100000Y-6600000D03*
X56100000Y-5000000D03*
X58360000Y-6600000D03*
X58360000Y-5000000D03*
X60620000Y-6600000D03*
X60620000Y-5000000D03*
X62880000Y-6600000D03*
X62880000Y-5000000D03*
X65140000Y-6600000D03*
X65140000Y-5000000D03*
X67400000Y-6600000D03*
X67400000Y-5000000D03*
X69660000Y-6600000D03*
X69660000Y-5000000D03*
X71920000Y-6600000D03*
X71920000Y-5000000D03*
X74180000Y-6600000D03*
X74180000Y-5000000D03*
X76440000Y-6600000D03*
X76440000Y-5000000D03*
X78700000Y-6600000D03*
X78700000Y-5000000D03*
X80959999Y-6600000D03*
X80959999Y-5000000D03*
X83220000Y-6600000D03*
X83220000Y-5000000D03*
X85480000Y-6600000D03*
X85480000Y-5000000D03*
X87740000Y-6600000D03*
X87740000Y-5000000D03*
X90000000Y-6600000D03*
X90000000Y-5000000D03*
X92260000Y-6600000D03*
X92260000Y-5000000D03*
X94519999Y-6600000D03*
X94519999Y-5000000D03*
X96780000Y-6600000D03*
X96780000Y-5000000D03*
X99040000Y-6600000D03*
X99040000Y-5000000D03*
X101299999Y-6600000D03*
X101299999Y-5000000D03*
X103560000Y-6600000D03*
X103560000Y-5000000D03*
X105820000Y-6600000D03*
X105820000Y-5000000D03*
X108079999Y-6600000D03*
X108079999Y-5000000D03*
X110339999Y-6600000D03*
X110339999Y-5000000D03*
X112600000Y-6600000D03*
X112600000Y-5000000D03*
X114860000Y-6600000D03*
X114860000Y-5000000D03*
X45600000Y-10800000D03*
X44000000Y-10800000D03*
X59600000Y-10800000D03*
X58000000Y-10800000D03*
X73600000Y-10800000D03*
X72000000Y-10800000D03*
X87600000Y-10800000D03*
X86000000Y-10800000D03*
X101600000Y-10800000D03*
X100000000Y-10800000D03*
X115600000Y-10800000D03*
X114000000Y-10800000D03*
D18*
X22863500Y99581000D03*
X20463500Y99581000D03*
X31510000Y93358000D03*
X29110000Y93358000D03*
D19*
X16153400Y76492400D03*
X15203400Y76492400D03*
X14253400Y76492400D03*
X14253400Y74292400D03*
X16153400Y74292400D03*
D20*
X26471000Y92474000D03*
X26471000Y93424000D03*
X26471000Y94374000D03*
X24271000Y94374000D03*
X24271000Y92474000D03*
D19*
X27075400Y71348900D03*
X26125400Y71348900D03*
X25175400Y71348900D03*
X25175400Y69148900D03*
X27075400Y69148900D03*
D20*
X28040600Y86698200D03*
X28040600Y85748200D03*
X28040600Y84798200D03*
X30240600Y84798200D03*
X30240600Y86698200D03*
X30240600Y85748200D03*
D21*
X107123000Y98707500D03*
X113623000Y99807500D03*
X113623000Y103807500D03*
X113623000Y106807500D03*
X117219500Y98707500D03*
X123719500Y99807500D03*
X123719500Y103807500D03*
X123719500Y106807500D03*
D22*
X83456000Y79938000D03*
X85956000Y79938000D03*
X89256000Y79938000D03*
X90956000Y79938000D03*
X93456000Y79938000D03*
X95956000Y79938000D03*
X98376000Y79938000D03*
X100076000Y79938000D03*
X80956000Y79938000D03*
X87606000Y79938000D03*
X103426000Y79938000D03*
D23*
X75926000Y100938000D03*
X103926000Y102138000D03*
D24*
X18395000Y105300000D03*
X17745000Y105300000D03*
X17095000Y105300000D03*
X16445000Y105300000D03*
X15795000Y105300000D03*
D25*
X30000000Y98625000D03*
X28000000Y98625000D03*
D26*
X32350000Y104375000D03*
X25650000Y104375000D03*
D21*
X35972000Y98707500D03*
X42472000Y99807500D03*
X42472000Y103807500D03*
X42472000Y106807500D03*
X46068500Y98707500D03*
X52568500Y99807500D03*
X52568500Y103807500D03*
X52568500Y106807500D03*
D27*
X30704500Y67958000D03*
X32204500Y67958000D03*
D28*
X15559000Y85389000D03*
X17459000Y85389000D03*
X16509000Y87389000D03*
D27*
X27735500Y45987000D03*
X26235500Y45987000D03*
X32331500Y48146000D03*
X30831500Y48146000D03*
X48968500Y71387000D03*
X47468500Y71387000D03*
D29*
X100848000Y57266000D03*
X100848000Y55766000D03*
D27*
X107095000Y47003000D03*
X108595000Y47003000D03*
X117751000Y56528000D03*
X119251000Y56528000D03*
X117763000Y54496000D03*
X119263000Y54496000D03*
D29*
X100340000Y64783000D03*
X100340000Y63283000D03*
X102245000Y64783000D03*
X102245000Y63283000D03*
X121612500Y88405000D03*
X121612500Y86905000D03*
X124660500Y86905000D03*
X124660500Y88405000D03*
X119834500Y88405000D03*
X119834500Y86905000D03*
X126438500Y88405000D03*
X126438500Y86905000D03*
X16517400Y95922000D03*
X16517400Y97422000D03*
X18295400Y95922000D03*
X18295400Y97422000D03*
X22905500Y103391000D03*
X22905500Y104891000D03*
X6857000Y92572000D03*
X6857000Y91072000D03*
X8381000Y92572000D03*
X8381000Y91072000D03*
X9905000Y92572000D03*
X9905000Y91072000D03*
X11429000Y92572000D03*
X11429000Y91072000D03*
D27*
X32358600Y81115200D03*
X30858600Y81115200D03*
X29437600Y81115200D03*
X27937600Y81115200D03*
X18707500Y82436000D03*
X17207500Y82436000D03*
X15786500Y82436000D03*
X14286500Y82436000D03*
X33550000Y-8941000D03*
X35050000Y-8941000D03*
D29*
X30075000Y32875000D03*
X30075000Y31375000D03*
D30*
X54855000Y13895000D03*
X55655000Y13895000D03*
X54055000Y13895000D03*
X56455000Y13895000D03*
X54055000Y15595000D03*
X54855000Y15595000D03*
X55655000Y15595000D03*
X56455000Y15595000D03*
X77715000Y13895000D03*
X78515000Y13895000D03*
X76915000Y13895000D03*
X79315000Y13895000D03*
X76915000Y15595000D03*
X77715000Y15595000D03*
X78515000Y15595000D03*
X79315000Y15595000D03*
D31*
X6984000Y94628000D03*
X8254000Y99708000D03*
X8254000Y94628000D03*
X6984000Y99708000D03*
D32*
X37402500Y63655000D03*
X37402500Y62855000D03*
X37402500Y62055000D03*
X37402500Y61255000D03*
X37402500Y60455000D03*
X37402500Y59655000D03*
X37402500Y58855000D03*
X37402500Y58055000D03*
X37402500Y57255000D03*
X37402500Y56455000D03*
X37402500Y55655000D03*
D33*
X39102500Y53955000D03*
X39902500Y53955000D03*
X40702500Y53955000D03*
X41502500Y53955000D03*
X42302500Y53955000D03*
X43102500Y53955000D03*
X43902500Y53955000D03*
X44702500Y53955000D03*
X45502500Y53955000D03*
X46302500Y53955000D03*
X47102500Y53955000D03*
D32*
X48802500Y55655000D03*
X48802500Y56455000D03*
X48802500Y57255000D03*
X48802500Y58055000D03*
X48802500Y58855000D03*
X48802500Y59655000D03*
X48802500Y60455000D03*
X48802500Y61255000D03*
X48802500Y62055000D03*
X48802500Y62855000D03*
X48802500Y63655000D03*
D33*
X47102500Y65355000D03*
X46302500Y65355000D03*
X45502500Y65355000D03*
X44702500Y65355000D03*
X43902500Y65355000D03*
X43102500Y65355000D03*
X42302500Y65355000D03*
X41502500Y65355000D03*
X40702500Y65355000D03*
X39902500Y65355000D03*
X39102500Y65355000D03*
D34*
X103991000Y56738000D03*
X103991000Y56238000D03*
X103991000Y55738000D03*
X103991000Y55238000D03*
X103991000Y54738000D03*
X103991000Y54238000D03*
X103991000Y53738000D03*
X103991000Y53238000D03*
X103991000Y52738000D03*
X103991000Y52238000D03*
X103991000Y51738000D03*
X103991000Y51238000D03*
D35*
X105591000Y49638000D03*
X106091000Y49638000D03*
X106591000Y49638000D03*
X107091000Y49638000D03*
X107591000Y49638000D03*
X108091000Y49638000D03*
X108591000Y49638000D03*
X109091000Y49638000D03*
X109591000Y49638000D03*
X110091000Y49638000D03*
X110591000Y49638000D03*
X111091000Y49638000D03*
D34*
X112691000Y51238000D03*
X112691000Y51738000D03*
X112691000Y52238000D03*
X112691000Y52738000D03*
X112691000Y53238000D03*
X112691000Y53738000D03*
X112691000Y54238000D03*
X112691000Y54738000D03*
X112691000Y55238000D03*
X112691000Y55738000D03*
X112691000Y56238000D03*
X112691000Y56738000D03*
D35*
X111091000Y58338000D03*
X110591000Y58338000D03*
X110091000Y58338000D03*
X109591000Y58338000D03*
X109091000Y58338000D03*
X108591000Y58338000D03*
X108091000Y58338000D03*
X107591000Y58338000D03*
X107091000Y58338000D03*
X106591000Y58338000D03*
X106091000Y58338000D03*
X105591000Y58338000D03*
D36*
X47610000Y36825000D03*
X46340000Y36825000D03*
X45070000Y36825000D03*
X43800000Y36825000D03*
X42530000Y36825000D03*
X41260000Y36825000D03*
X39990000Y36825000D03*
X38720000Y36825000D03*
X37450000Y36825000D03*
X36180000Y36825000D03*
X34910000Y36825000D03*
X33640000Y36825000D03*
X33640000Y27425000D03*
X34910000Y27425000D03*
X36180000Y27425000D03*
X37450000Y27425000D03*
X38720000Y27425000D03*
X39990000Y27425000D03*
X41260000Y27425000D03*
X42530000Y27425000D03*
X43800000Y27425000D03*
X45070000Y27425000D03*
X46340000Y27425000D03*
X47610000Y27425000D03*
D37*
X63608000Y17274000D03*
X63608000Y16624000D03*
X63608000Y15974000D03*
X63608000Y15324000D03*
X63608000Y14674000D03*
X63608000Y14024000D03*
X63608000Y13374000D03*
X63608000Y12724000D03*
X69508000Y12724000D03*
X69508000Y13374000D03*
X69508000Y14024000D03*
X69508000Y14674000D03*
X69508000Y15324000D03*
X69508000Y15974000D03*
X69508000Y16624000D03*
X69508000Y17274000D03*
D38*
X71320500Y56012000D03*
X71320500Y56662000D03*
X71320500Y57312000D03*
X71320500Y57962000D03*
X71320500Y58612000D03*
X71320500Y59262000D03*
X71320500Y59912000D03*
X71320500Y60562000D03*
X71320500Y61212000D03*
X71320500Y61862000D03*
X65420500Y61862000D03*
X65420500Y61212000D03*
X65420500Y60562000D03*
X65420500Y59912000D03*
X65420500Y59262000D03*
X65420500Y58612000D03*
X65420500Y57962000D03*
X65420500Y57312000D03*
X65420500Y56662000D03*
X65420500Y56012000D03*
D39*
X44372500Y47590000D03*
X41072500Y47590000D03*
X41072500Y45590000D03*
X44372500Y45590000D03*
X106183000Y42701000D03*
X109483000Y42701000D03*
X109483000Y44701000D03*
X106183000Y44701000D03*
D40*
X16909000Y98779400D03*
X17909000Y98779400D03*
X17409000Y100179400D03*
X17409000Y98779400D03*
X17909000Y100179400D03*
X16909000Y100179400D03*
D41*
X121136500Y84173000D03*
X121136500Y83523000D03*
X121136500Y82873000D03*
X121136500Y82223000D03*
D42*
X122161500Y81198000D03*
X122811500Y81198000D03*
X123461500Y81198000D03*
X124111500Y81198000D03*
D41*
X125136500Y82223000D03*
X125136500Y82873000D03*
X125136500Y83523000D03*
X125136500Y84173000D03*
D42*
X124111500Y85198000D03*
X123461500Y85198000D03*
X122811500Y85198000D03*
X122161500Y85198000D03*
D43*
X123761500Y82573000D03*
X123761500Y83823000D03*
X122511500Y82573000D03*
X122511500Y83823000D03*
D44*
X58938000Y56998000D03*
X58938000Y57798000D03*
X58938000Y56198000D03*
X58938000Y58598000D03*
X57238000Y56198000D03*
X57238000Y56998000D03*
X57238000Y57798000D03*
X57238000Y58598000D03*
D45*
X50350000Y14675000D03*
D46*
X39950000Y11075000D03*
X38950000Y11075000D03*
X37950000Y11075000D03*
X41950000Y11075000D03*
X42950000Y11075000D03*
X40950000Y11075000D03*
D45*
X30550000Y14675000D03*
D46*
X46950000Y11075000D03*
X45950000Y11075000D03*
X44950000Y11075000D03*
X43950000Y11075000D03*
X47950000Y11075000D03*
X34950000Y11075000D03*
X33950000Y11075000D03*
X32950000Y11075000D03*
X35950000Y11075000D03*
X36950000Y11075000D03*
D47*
X24357600Y83921950D03*
X24357600Y87706450D03*
D12*
X32471200Y64073200D03*
X32471200Y62573200D03*
X22425500Y76149500D03*
X22425500Y74649500D03*
X20330000Y76149500D03*
X20330000Y74649500D03*
D19*
X27188000Y76467000D03*
X26238000Y76467000D03*
X25288000Y76467000D03*
X25288000Y74267000D03*
X27188000Y74267000D03*
D29*
X13980000Y97422000D03*
X13980000Y95922000D03*
X18552000Y76189000D03*
X18552000Y74689000D03*
D21*
X56165000Y98707500D03*
X62665000Y99807500D03*
X62665000Y103807500D03*
X62665000Y106807500D03*
X66261500Y98707500D03*
X72761500Y99807500D03*
X72761500Y103807500D03*
X72761500Y106807500D03*
D30*
X43114000Y69052000D03*
X43914000Y69052000D03*
X42314000Y69052000D03*
X44714000Y69052000D03*
X42314000Y70752000D03*
X43114000Y70752000D03*
X43914000Y70752000D03*
X44714000Y70752000D03*
M02*
