M48
;DRILL file {KiCad 4.0.7-e2-6376~58~ubuntu16.04.1} date Thu Nov  2 15:41:44 2017
;FORMAT={-:-/ absolute / metric / decimal}
FMAT,2
METRIC,TZ
T1C0.500
T2C1.500
T3C3.200
%
G90
G05
M71
T1
X35.25Y0.5
X35.25Y-1.5
X36.25Y0.5
X36.25Y-1.5
X37.25Y0.5
X37.25Y-1.5
X38.25Y0.5
X38.25Y-1.5
X39.25Y0.5
X39.25Y-1.5
X40.25Y0.5
X40.25Y-1.5
X110.25Y0.5
X110.25Y-1.5
X111.25Y0.5
X111.25Y-1.5
X112.25Y0.5
X112.25Y-1.5
X113.25Y0.5
X113.25Y-1.5
X114.25Y0.5
X114.25Y-1.5
X115.25Y0.5
X115.25Y-1.5
T2
X39.222Y108.407
X39.222Y101.407
X49.319Y108.407
X49.319Y101.407
X59.415Y108.407
X59.415Y101.407
X69.511Y108.407
X69.511Y101.407
X78.226Y104.238
X102.426Y104.238
X110.373Y108.407
X110.373Y101.407
X120.469Y108.407
X120.469Y101.407
T3
X5.Y105.
X5.Y5.
X130.Y105.
X130.Y5.
T0
M30
