G04 #@! TF.FileFunction,Soldermask,Bot*
%FSLAX46Y46*%
G04 Gerber Fmt 4.6, Leading zero omitted, Abs format (unit mm)*
G04 Created by KiCad (PCBNEW 4.0.7-e2-6376~58~ubuntu16.04.1) date Thu Nov  2 15:42:12 2017*
%MOMM*%
%LPD*%
G01*
G04 APERTURE LIST*
%ADD10C,0.100000*%
%ADD11C,2.400000*%
%ADD12C,3.900000*%
%ADD13R,2.200000X2.600000*%
%ADD14R,1.000000X1.700000*%
%ADD15R,2.100000X2.100000*%
%ADD16O,2.100000X2.100000*%
%ADD17C,1.900000*%
%ADD18O,1.650000X1.350000*%
%ADD19O,1.400000X1.950000*%
%ADD20C,3.600000*%
%ADD21C,2.600000*%
%ADD22C,2.100000*%
%ADD23C,0.900000*%
%ADD24C,1.000000*%
G04 APERTURE END LIST*
D10*
X31893000Y6000000D02*
G75*
G03X31893000Y6000000I-1143000J0D01*
G01*
X37389000Y3500000D02*
G75*
G03X37389000Y3500000I-889000J0D01*
G01*
X32889000Y3500000D02*
G75*
G03X32889000Y3500000I-889000J0D01*
G01*
X38893000Y6000000D02*
G75*
G03X38893000Y6000000I-1143000J0D01*
G01*
X42393000Y6000000D02*
G75*
G03X42393000Y6000000I-1143000J0D01*
G01*
X47889000Y3500000D02*
G75*
G03X47889000Y3500000I-889000J0D01*
G01*
X43389000Y3500000D02*
G75*
G03X43389000Y3500000I-889000J0D01*
G01*
X49393000Y6000000D02*
G75*
G03X49393000Y6000000I-1143000J0D01*
G01*
X98393000Y6000000D02*
G75*
G03X98393000Y6000000I-1143000J0D01*
G01*
X103889000Y3500000D02*
G75*
G03X103889000Y3500000I-889000J0D01*
G01*
X99389000Y3500000D02*
G75*
G03X99389000Y3500000I-889000J0D01*
G01*
X105393000Y6000000D02*
G75*
G03X105393000Y6000000I-1143000J0D01*
G01*
X112393000Y6000000D02*
G75*
G03X112393000Y6000000I-1143000J0D01*
G01*
X117889000Y3500000D02*
G75*
G03X117889000Y3500000I-889000J0D01*
G01*
X113389000Y3500000D02*
G75*
G03X113389000Y3500000I-889000J0D01*
G01*
X119393000Y6000000D02*
G75*
G03X119393000Y6000000I-1143000J0D01*
G01*
X56393000Y6000000D02*
G75*
G03X56393000Y6000000I-1143000J0D01*
G01*
X61889000Y3500000D02*
G75*
G03X61889000Y3500000I-889000J0D01*
G01*
X57389000Y3500000D02*
G75*
G03X57389000Y3500000I-889000J0D01*
G01*
X63393000Y6000000D02*
G75*
G03X63393000Y6000000I-1143000J0D01*
G01*
X70393000Y6000000D02*
G75*
G03X70393000Y6000000I-1143000J0D01*
G01*
X75889000Y3500000D02*
G75*
G03X75889000Y3500000I-889000J0D01*
G01*
X71389000Y3500000D02*
G75*
G03X71389000Y3500000I-889000J0D01*
G01*
X77393000Y6000000D02*
G75*
G03X77393000Y6000000I-1143000J0D01*
G01*
X84393000Y6000000D02*
G75*
G03X84393000Y6000000I-1143000J0D01*
G01*
X89889000Y3500000D02*
G75*
G03X89889000Y3500000I-889000J0D01*
G01*
X85389000Y3500000D02*
G75*
G03X85389000Y3500000I-889000J0D01*
G01*
X91393000Y6000000D02*
G75*
G03X91393000Y6000000I-1143000J0D01*
G01*
D11*
X20000000Y8000000D03*
X22500000Y8000000D03*
X17500000Y8000000D03*
D12*
X25850000Y8000000D03*
X14150000Y8000000D03*
D13*
X30525000Y-9225000D03*
D14*
X40925000Y-12825000D03*
X41925000Y-12825000D03*
X42925000Y-12825000D03*
X38925000Y-12825000D03*
X37925000Y-12825000D03*
X39925000Y-12825000D03*
D13*
X50325000Y-9225000D03*
D14*
X33925000Y-12825000D03*
X34925000Y-12825000D03*
X35925000Y-12825000D03*
X36925000Y-12825000D03*
X32925000Y-12825000D03*
X45925000Y-12825000D03*
X46925000Y-12825000D03*
X47925000Y-12825000D03*
X44925000Y-12825000D03*
X43925000Y-12825000D03*
D15*
X16456500Y60338000D03*
D16*
X18996500Y60338000D03*
X16456500Y57798000D03*
X18996500Y57798000D03*
X16456500Y55258000D03*
X18996500Y55258000D03*
D17*
X110373000Y108407500D03*
X110373000Y101407500D03*
X120469500Y108407500D03*
X120469500Y101407500D03*
X78226000Y104238000D03*
X102426000Y104238000D03*
D18*
X19595000Y105300000D03*
X14595000Y105300000D03*
D19*
X20595000Y108000000D03*
X13595000Y108000000D03*
D15*
X53286500Y80277000D03*
D16*
X55826500Y80277000D03*
X58366500Y80277000D03*
X60906500Y80277000D03*
X63446500Y80277000D03*
X65986500Y80277000D03*
X68526500Y80277000D03*
X71066500Y80277000D03*
D17*
X39222000Y108407500D03*
X39222000Y101407500D03*
X49318500Y108407500D03*
X49318500Y101407500D03*
D15*
X59319000Y49162000D03*
D16*
X59319000Y46622000D03*
X59319000Y44082000D03*
X59319000Y41542000D03*
D15*
X46610000Y41540000D03*
D16*
X49150000Y41540000D03*
X51690000Y41540000D03*
X54230000Y41540000D03*
D15*
X129042000Y47892000D03*
D16*
X129042000Y50432000D03*
X129042000Y52972000D03*
X129042000Y55512000D03*
X129042000Y58052000D03*
X129042000Y60592000D03*
D20*
X5000000Y105000000D03*
X130000000Y105000000D03*
X5000000Y5000000D03*
X130000000Y5000000D03*
D21*
X30750000Y6000000D03*
X37750000Y6000000D03*
D22*
X32000000Y3500000D03*
X36500000Y3500000D03*
D21*
X41250000Y6000000D03*
X48250000Y6000000D03*
D22*
X42500000Y3500000D03*
X47000000Y3500000D03*
D21*
X97250000Y6000000D03*
X104250000Y6000000D03*
D22*
X98500000Y3500000D03*
X103000000Y3500000D03*
D21*
X111250000Y6000000D03*
X118250000Y6000000D03*
D22*
X112500000Y3500000D03*
X117000000Y3500000D03*
D21*
X55250000Y6000000D03*
X62250000Y6000000D03*
D22*
X56500000Y3500000D03*
X61000000Y3500000D03*
D21*
X69250000Y6000000D03*
X76250000Y6000000D03*
D22*
X70500000Y3500000D03*
X75000000Y3500000D03*
D21*
X83250000Y6000000D03*
X90250000Y6000000D03*
D22*
X84500000Y3500000D03*
X89000000Y3500000D03*
D23*
X37250000Y500000D03*
X36250000Y500000D03*
X35250000Y500000D03*
X38250000Y500000D03*
X39250000Y500000D03*
X40250000Y500000D03*
X37250000Y-1500000D03*
X36250000Y-1500000D03*
X35250000Y-1500000D03*
X38250000Y-1500000D03*
X39250000Y-1500000D03*
X40250000Y-1500000D03*
X112250000Y-1500000D03*
X111250000Y-1500000D03*
X110250000Y-1500000D03*
X113250000Y-1500000D03*
X114250000Y-1500000D03*
X115250000Y-1500000D03*
X112250000Y500000D03*
X111250000Y500000D03*
X110250000Y500000D03*
X113250000Y500000D03*
X114250000Y500000D03*
X115250000Y500000D03*
D15*
X10500000Y105500000D03*
D17*
X59415000Y108407500D03*
X59415000Y101407500D03*
X69511500Y108407500D03*
X69511500Y101407500D03*
D24*
X113738500Y70244002D03*
X109103000Y62242978D03*
X103388000Y75578000D03*
X100491000Y60211000D03*
X38999000Y75578000D03*
X112341500Y58369500D03*
X112913000Y60709000D03*
X105674000Y60719000D03*
X14614998Y83833000D03*
X24013000Y60211000D03*
X24521000Y60846000D03*
X12710000Y99708000D03*
X44460000Y61798500D03*
X63256000Y21539500D03*
X67510500Y65418000D03*
X42555000Y59956996D03*
X47773869Y76328127D03*
X10450000Y74600000D03*
X64043400Y57239200D03*
X46925000Y-12825000D03*
X34554000Y81166000D03*
X68717000Y21603000D03*
X107071000Y54242002D03*
X87132000Y73863500D03*
X106690000Y73863500D03*
X124660498Y53670500D03*
X97291996Y69736000D03*
X74178000Y73863500D03*
X38999000Y73838003D03*
X106091000Y53206020D03*
X101991000Y57290000D03*
X120088500Y84976000D03*
X124787500Y80150000D03*
X96589673Y69098913D03*
X38999000Y73038000D03*
X59475000Y-7750000D03*
X77575000Y-7750000D03*
X95625000Y-7750000D03*
X113750000Y-7725000D03*
X41950000Y21150000D03*
X34925000Y35250000D03*
X61775000Y-9500000D03*
X78700000Y-5000000D03*
X76440000Y-5000000D03*
X74180000Y-5000000D03*
X71920000Y-5000000D03*
X69660000Y-5000000D03*
X67400000Y-5000000D03*
X65140000Y-5000000D03*
X62880000Y-5000000D03*
X32268000Y21920502D03*
X38950000Y19825002D03*
X57225000Y-7050000D03*
X75275000Y-7050000D03*
X93400000Y-7050000D03*
X111450000Y-7050000D03*
X109200000Y-6375000D03*
X54975000Y-6375000D03*
X73050000Y-6375000D03*
X91100000Y-6375000D03*
X39425000Y23600000D03*
X36949998Y22525000D03*
X52725000Y-5700000D03*
X70775000Y-5700000D03*
X88850000Y-5700000D03*
X106925000Y-5700000D03*
X45850000Y21149998D03*
X35950000Y20474998D03*
X50450000Y-4275000D03*
X68500000Y-4275000D03*
X86600000Y-4275000D03*
X104675000Y-4325000D03*
X38950000Y21150000D03*
X34950000Y21125000D03*
X48200000Y-3600000D03*
X66275000Y-3600000D03*
X84300000Y-3600000D03*
X102425000Y-3600000D03*
X45950000Y-2925000D03*
X64350000Y-2925000D03*
X82075000Y-2925000D03*
X100150000Y-2925000D03*
X38675880Y22974990D03*
X33249990Y21875000D03*
X44775000Y-2250000D03*
X62875000Y-2250000D03*
X79825000Y-2250000D03*
X97900000Y-2250000D03*
X41250000Y30850000D03*
X40950000Y21150000D03*
X40925000Y-11800000D03*
X60620000Y-5000000D03*
X58360000Y-5000000D03*
X56100000Y-5000000D03*
X53840000Y-5000000D03*
X51579999Y-5000000D03*
X49320000Y-5000000D03*
X47060000Y-5000000D03*
X44800000Y-5000000D03*
X43920551Y21154449D03*
X39975000Y35250000D03*
X98075000Y-10800000D03*
X114860000Y-5000000D03*
X112600000Y-5000000D03*
X110339999Y-5000000D03*
X108079999Y-5000000D03*
X105820000Y-5000000D03*
X103560000Y-5000000D03*
X101299999Y-5000000D03*
X99040000Y-5000000D03*
X42975000Y21150000D03*
X41275000Y32825000D03*
X79800000Y-10775000D03*
X96780000Y-5000000D03*
X94519999Y-5000000D03*
X92260000Y-5000000D03*
X90000000Y-5000000D03*
X87740000Y-5000000D03*
X85480000Y-5000000D03*
X83220000Y-5000000D03*
X80959999Y-5000000D03*
X45412500Y22873000D03*
X44925000Y-12437479D03*
X45075000Y35275000D03*
X20076000Y93484998D03*
X23251000Y92469000D03*
X38719600Y56045400D03*
X56017000Y56273992D03*
X38707085Y57654231D03*
X56017000Y58544990D03*
X38706961Y56854220D03*
X56017000Y57544002D03*
X78623000Y65037000D03*
X78623000Y57289998D03*
X114818000Y46368000D03*
X88656000Y47638000D03*
X109166494Y72403000D03*
X99578004Y72403000D03*
X83322000Y58813996D03*
X80401000Y55893000D03*
X60398498Y56274000D03*
X114309994Y53734000D03*
X72400000Y64275000D03*
X85100000Y63005000D03*
X54023500Y66180005D03*
X50149600Y62090602D03*
X53223489Y66180000D03*
X50123807Y62890196D03*
X55623522Y66180739D03*
X50149600Y60439600D03*
X54823511Y66179935D03*
X50149600Y61277800D03*
X57223500Y66180000D03*
X50149600Y58052000D03*
X56423508Y66174327D03*
X50149600Y58864800D03*
X61478000Y45733002D03*
X45490000Y52640000D03*
X46290000Y52640000D03*
X104658000Y50432000D03*
X105293000Y51702000D03*
X114183000Y51194000D03*
X68650003Y56925000D03*
X33650000Y29000000D03*
X67850000Y56925000D03*
X47625000Y38375000D03*
X111071498Y55893000D03*
X50683000Y71387000D03*
X97000012Y55000000D03*
X90434000Y55004000D03*
X17059800Y94361300D03*
X33775858Y61604558D03*
X17859800Y94361300D03*
X34341542Y62170242D03*
X33792000Y72403000D03*
X26800000Y79350000D03*
X59192000Y10046000D03*
X56652000Y12459000D03*
X76718004Y12459000D03*
X73035002Y9538000D03*
X57922000Y10046000D03*
X55763000Y12459000D03*
X74305000Y9538000D03*
X77607000Y12459000D03*
X76844998Y9538000D03*
X79385000Y12459000D03*
X56906000Y10046000D03*
X54874000Y12459000D03*
X75574994Y9538000D03*
X78496000Y12459000D03*
X55763000Y10046000D03*
X53985000Y12459000D03*
X47254000Y63640000D03*
X38745000Y63640000D03*
X68336000Y64275000D03*
X71003000Y64275000D03*
X38694199Y58534600D03*
X58887200Y59941590D03*
X38225000Y53950000D03*
X33650000Y38350000D03*
X61224000Y57226498D03*
X61859000Y59936990D03*
X58353800Y60566600D03*
X62367000Y42304000D03*
X110246000Y48146000D03*
X90053000Y48781000D03*
X79639000Y65037000D03*
X79385000Y57925000D03*
X114818000Y47765000D03*
X89418000Y48273000D03*
X109928500Y71577500D03*
X99556457Y71544021D03*
X83956998Y58179000D03*
X81036000Y55258000D03*
X26299000Y44590000D03*
X53159500Y58941000D03*
X25346500Y58623500D03*
X20330000Y72466500D03*
X26108500Y72720500D03*
X26807000Y81102500D03*
X17409000Y75451000D03*
X106425001Y56772001D03*
X102308500Y54940500D03*
X114310000Y56464500D03*
X126311500Y79769000D03*
X97673000Y56655000D03*
X77480000Y58941000D03*
X77480000Y54623000D03*
X85862000Y57925000D03*
X97673000Y51956000D03*
X83322000Y60465000D03*
X15250000Y94120000D03*
X17409000Y101663800D03*
X119311500Y82450000D03*
X49540000Y12128800D03*
X47508000Y17564400D03*
X47508000Y17564400D03*
X63256000Y19342402D03*
X53324600Y28181600D03*
X53350000Y35141200D03*
X35036600Y66484800D03*
X35036600Y68770800D03*
X25333800Y54064200D03*
X32325000Y-9225000D03*
X47925000Y-12825000D03*
X61986000Y53226000D03*
X63256000Y62497000D03*
X109611000Y51330990D03*
X66558000Y14999000D03*
X113738496Y69443989D03*
X38999000Y74638006D03*
X108849000Y55766000D03*
X105293000Y52581010D03*
M02*
