M48
;DRILL file {KiCad 4.0.7-e2-6376~58~ubuntu16.04.1} date Fri Nov 10 13:47:59 2017
;FORMAT={-:-/ absolute / metric / decimal}
FMAT,2
METRIC,TZ
T1C0.400
T2C0.500
T3C0.550
T4C1.000
T5C1.300
T6C1.800
%
G90
G05
M71
T1
X12.659Y79.998
X12.71Y99.708
X14.615Y83.833
X15.25Y94.12
X17.06Y94.361
X17.409Y101.664
X17.86Y94.361
X18.643Y72.317
X19.212Y75.121
X20.076Y93.485
X23.251Y92.469
X24.013Y60.211
X24.089Y81.41
X24.521Y60.846
X25.334Y54.064
X25.346Y58.623
X26.299Y44.59
X32.268Y21.921
X32.325Y-9.225
X33.25Y21.875
X33.436Y78.931
X33.65Y38.35
X33.65Y29.
X33.776Y61.605
X34.342Y62.17
X34.925Y35.25
X34.95Y21.125
X35.037Y68.771
X35.037Y66.485
X35.95Y20.475
X36.95Y22.525
X37.18Y74.41
X38.047Y81.166
X38.225Y53.95
X38.676Y22.975
X38.694Y58.535
X38.707Y56.854
X38.707Y57.654
X38.72Y56.045
X38.745Y63.64
X38.95Y21.15
X38.95Y19.825
X38.999Y75.578
X38.999Y74.638
X38.999Y73.838
X39.329Y71.209
X39.425Y23.6
X39.975Y35.25
X40.925Y-11.8
X40.95Y21.15
X41.25Y30.85
X41.275Y32.825
X41.95Y21.15
X42.555Y59.957
X42.975Y21.15
X43.921Y21.154
X44.46Y61.798
X44.775Y-2.25
X44.8Y-5.
X44.925Y-12.437
X45.075Y35.275
X45.413Y22.873
X45.49Y52.64
X45.85Y21.15
X45.95Y-2.925
X46.29Y52.64
X46.925Y-12.825
X47.06Y-5.
X47.254Y63.64
X47.508Y17.564
X47.508Y17.564
X47.625Y38.375
X47.925Y-12.825
X48.2Y-3.6
X48.219Y80.15
X49.32Y-5.
X49.54Y12.129
X50.124Y62.89
X50.15Y62.091
X50.15Y61.278
X50.15Y60.44
X50.15Y58.865
X50.15Y58.052
X50.45Y-4.275
X50.683Y71.387
X51.58Y-5.
X52.725Y-5.7
X53.159Y58.941
X53.223Y66.18
X53.325Y28.182
X53.35Y35.141
X53.84Y-5.
X53.985Y12.459
X54.023Y66.18
X54.824Y66.18
X54.874Y12.459
X54.975Y-6.375
X55.624Y66.181
X55.763Y12.459
X55.763Y10.046
X56.017Y58.545
X56.017Y57.544
X56.017Y56.274
X56.1Y-5.
X56.424Y66.174
X56.652Y12.459
X56.906Y10.046
X57.223Y66.18
X57.225Y-7.05
X57.922Y10.046
X58.354Y60.567
X58.36Y-5.
X58.887Y59.942
X59.192Y10.046
X59.475Y-7.75
X60.398Y56.274
X60.62Y-5.
X61.224Y57.226
X61.478Y45.733
X61.775Y-9.5
X61.859Y59.937
X61.986Y53.226
X62.367Y42.304
X62.875Y-2.25
X62.88Y-5.
X63.256Y62.497
X63.256Y21.54
X63.256Y19.342
X64.043Y57.239
X64.35Y-2.925
X65.14Y-5.
X66.275Y-3.6
X66.558Y14.999
X67.4Y-5.
X67.51Y65.418
X67.85Y56.925
X68.336Y64.275
X68.5Y-4.275
X68.65Y56.925
X68.717Y21.603
X69.66Y-5.
X70.775Y-5.7
X71.003Y64.275
X71.92Y-5.
X72.4Y64.275
X73.035Y9.538
X73.05Y-6.375
X74.178Y73.864
X74.18Y-5.
X74.305Y9.538
X75.275Y-7.05
X75.575Y9.538
X76.44Y-5.
X76.718Y12.459
X76.845Y9.538
X77.48Y58.941
X77.48Y54.623
X77.575Y-7.75
X77.607Y12.459
X78.496Y12.459
X78.623Y65.037
X78.623Y57.29
X78.7Y-5.
X79.385Y57.925
X79.385Y12.459
X79.639Y65.037
X79.8Y-10.775
X79.825Y-2.25
X80.401Y55.893
X80.96Y-5.
X81.036Y55.258
X82.075Y-2.925
X83.22Y-5.
X83.322Y60.465
X83.322Y58.814
X83.957Y58.179
X84.3Y-3.6
X85.1Y63.005
X85.48Y-5.
X85.862Y57.925
X86.6Y-4.275
X87.132Y73.864
X87.74Y-5.
X88.656Y47.638
X88.85Y-5.7
X89.418Y48.273
X90.Y-5.
X90.053Y48.781
X90.434Y55.004
X91.1Y-6.375
X92.26Y-5.
X93.4Y-7.05
X94.52Y-5.
X95.625Y-7.75
X96.59Y69.099
X96.78Y-5.
X97.Y55.
X97.292Y69.736
X97.673Y56.655
X97.673Y51.956
X97.9Y-2.25
X98.075Y-10.8
X99.04Y-5.
X99.556Y71.544
X99.578Y72.403
X100.15Y-2.925
X100.491Y60.211
X101.3Y-5.
X101.991Y57.29
X102.308Y54.941
X102.425Y-3.6
X103.388Y75.578
X103.56Y-5.
X104.658Y50.432
X104.675Y-4.325
X105.293Y52.581
X105.293Y51.702
X105.674Y60.719
X105.82Y-5.
X106.091Y53.206
X106.425Y56.772
X106.69Y73.864
X106.925Y-5.7
X107.071Y54.242
X108.08Y-5.
X108.849Y55.766
X109.103Y62.243
X109.166Y72.403
X109.2Y-6.375
X109.611Y51.331
X109.928Y71.578
X110.246Y48.146
X110.34Y-5.
X111.071Y55.893
X111.45Y-7.05
X112.341Y58.369
X112.6Y-5.
X112.913Y60.709
X113.738Y69.444
X113.739Y70.244
X113.75Y-7.725
X114.183Y51.194
X114.31Y53.734
X114.31Y56.464
X114.818Y47.765
X114.818Y46.368
X114.86Y-5.
X119.311Y82.45
X120.088Y84.976
X124.66Y53.67
X124.787Y80.15
X126.311Y79.769
T4
X10.5Y105.5
X16.456Y60.338
X16.456Y57.798
X16.456Y55.258
X17.5Y8.
X18.996Y60.338
X18.996Y57.798
X18.996Y55.258
X20.Y8.
X22.362Y87.11
X22.362Y84.57
X22.5Y8.
X32.Y3.5
X36.5Y3.5
X42.5Y3.5
X46.61Y41.54
X47.Y3.5
X49.15Y41.54
X51.69Y41.54
X53.286Y80.277
X54.23Y41.54
X55.826Y80.277
X56.5Y3.5
X58.366Y80.277
X59.319Y49.162
X59.319Y46.622
X59.319Y44.082
X59.319Y41.542
X60.906Y80.277
X61.Y3.5
X63.447Y80.277
X65.986Y80.277
X68.526Y80.277
X70.5Y3.5
X71.066Y80.277
X75.Y3.5
X84.5Y3.5
X89.Y3.5
X98.5Y3.5
X103.Y3.5
X112.5Y3.5
X117.Y3.5
X129.042Y60.592
X129.042Y58.052
X129.042Y55.512
X129.042Y52.972
X129.042Y50.432
X129.042Y47.892
T5
X30.75Y6.
X37.75Y6.
X41.25Y6.
X48.25Y6.
X55.25Y6.
X62.25Y6.
X69.25Y6.
X76.25Y6.
X83.25Y6.
X90.25Y6.
X97.25Y6.
X104.25Y6.
X111.25Y6.
X118.25Y6.
T2
X13.595Y108.325G85X13.595Y107.675
G05
X20.595Y108.325G85X20.595Y107.675
G05
T3
X14.745Y105.3G85X14.445Y105.3
G05
X19.745Y105.3G85X19.445Y105.3
G05
T6
X14.15Y8.15G85X14.15Y7.85
G05
X25.85Y8.15G85X25.85Y7.85
G05
T0
M30
